<svg version="1.0" xmlns="http://www.w3.org/2000/svg" width="213.333" height="213.333" viewBox="0 0 160 160"><path d="M67.4 13.9c-11.9 4-20.4 11.6-25.7 22.8-2.6 5.7-3.1 8.1-3.5 17-.4 9.4-.6 10.3-2.4 10.3-1.1 0-3.5 1.5-5.4 3.4L27 70.8v34.9c0 33.8.1 35.1 2 36.8 1.9 1.7 5.1 1.8 51 1.8 46 0 49.1-.1 51-1.8 1.9-1.7 2-3 2-36.8V70.8l-3.4-3.4c-1.9-1.9-4.3-3.4-5.5-3.4-1.9 0-2.1-.6-2.2-7.8-.1-10.5-.5-12.7-3.9-19.9-4.1-8.8-10.8-15.6-19.8-20-6.7-3.4-8.2-3.7-16.5-3.9-6.6-.2-10.7.3-14.3 1.5zm22.1 15.2c10.8 4.1 17 13.9 17.4 27.6l.2 7.3H52.8l.3-7.8c.4-9.5 2.7-15.6 8.1-21.1 7.3-7.3 18.5-9.7 28.3-6z"/></svg>