<?xml version="1.0" encoding="UTF-8" standalone="no"?>
<!-- Created with Inkscape (http://www.inkscape.org/) -->

<svg
   version="1.1"
   id="svg240"
   width="101.22118"
   height="85.058189"
   viewBox="0 0 101.22117 85.05819"
   sodipodi:docname="Firstrand.svg"
   inkscape:version="1.2.1 (9c6d41e410, 2022-07-14)"
   xmlns:inkscape="http://www.inkscape.org/namespaces/inkscape"
   xmlns:sodipodi="http://sodipodi.sourceforge.net/DTD/sodipodi-0.dtd"
   xmlns="http://www.w3.org/2000/svg"
   xmlns:svg="http://www.w3.org/2000/svg">
  <defs
     id="defs244" />
  <sodipodi:namedview
     id="namedview242"
     pagecolor="#ffffff"
     bordercolor="#000000"
     borderopacity="0.25"
     inkscape:showpageshadow="2"
     inkscape:pageopacity="0.0"
     inkscape:pagecheckerboard="0"
     inkscape:deskcolor="#d1d1d1"
     showgrid="false"
     inkscape:zoom="5.0588083"
     inkscape:cx="86.680494"
     inkscape:cy="52.976904"
     inkscape:window-width="1920"
     inkscape:window-height="974"
     inkscape:window-x="-11"
     inkscape:window-y="-11"
     inkscape:window-maximized="1"
     inkscape:current-layer="g246" />
  <g
     inkscape:groupmode="layer"
     inkscape:label="Image"
     id="g246"
     transform="translate(-0.02502308,-0.00146939)">
    <path
       style="fill:#000000;stroke-width:0.32"
       d="M 42.618042,84.466835 C 34.170406,83.18872 28.111223,81.115235 21.550034,77.257244 10.09169,70.519718 2.5228272,60.004613 0.50741021,48.023611 c -0.64318284,-3.823513 -0.64318284,-7.103706 0,-10.927219 C 3.0505986,21.977959 14.083683,9.7206 30.72,3.5312916 36.067747,1.541737 44.740918,0.00400448 50.628998,0.00147378 58.059328,-0.00171977 66.56753,1.7367151 73.471696,4.6687979 86.068429,10.018419 95.201299,19.192757 99.305763,30.620164 c 2.587247,7.203268 2.587247,16.676407 0,23.879675 C 96.288374,62.900681 90.422602,70.243311 82.4,75.662067 71.282723,83.171078 56.16648,86.516688 42.618042,84.466835 Z M 55.52,79.348329 c 12.235002,-1.150982 22.878448,-6.002243 30.536813,-13.918608 4.582835,-4.737229 7.3192,-9.49857 8.891645,-15.471678 1.172883,-4.455331 1.16142,-10.379165 -0.02886,-14.918042 -0.981089,-3.741083 -3.3702,-8.721469 -5.605016,-11.684285 C 83.275386,15.349217 73.561034,9.3507594 62.695437,6.9188172 45.602698,3.0931136 27.945872,7.5360239 16.538046,18.5332 9.0796448,25.72312 5.6745645,33.254148 5.6745645,42.560001 c 0,5.469709 0.9579126,9.474948 3.4466861,14.411335 C 11.519338,61.727855 16.89343,67.651852 21.830012,70.980527 31.42848,77.452656 43.582211,80.471356 55.52,79.348329 Z M 41.109472,71.760003 C 41.51088,70.728607 41.445661,70.618758 40.16,70.160838 35.683453,68.566402 34.232643,67.905193 32.140771,66.50606 c -2.386379,-1.596106 -4.613909,-3.948346 -3.948926,-4.170007 0.223225,-0.07441 0.0418,-0.590659 -0.475435,-1.352841 -1.322796,-1.949252 -1.159683,-2.420506 0.84359,-2.437255 2.03345,-0.01699 3.588838,-0.538758 5.145459,-1.726051 L 34.87319,55.929234 34.228022,55.02318 c -0.354841,-0.49833 -0.863408,-1.428375 -1.130144,-2.066765 -0.266739,-0.638394 -0.58688,-1.107223 -0.711427,-1.041844 -3.386254,1.777533 -4.883697,2.295437 -6.946451,2.4025 -2.816175,0.146166 -4.055728,-0.518282 -5.015785,-2.68865 -0.754429,-1.705514 -0.633299,-3.285149 0.419583,-5.47168 1.024853,-2.128327 2.985607,-3.468122 8.565176,-5.852634 7.99788,-3.418019 9.951026,-4.988439 9.951026,-8.001088 0,-1.697743 -0.231206,-2.543018 -0.695587,-2.543018 -0.168912,0 -0.775395,0.357175 -1.347738,0.793722 -1.270774,0.969267 -3.450611,1.768713 -4.796909,1.759251 -0.549871,-0.0039 -1.575766,-0.27153 -2.279766,-0.594807 -1.354716,-0.622088 -2.791915,-1.958166 -2.10637,-1.958166 0.242012,0 0.138199,-0.323699 -0.270404,-0.843155 C 27.498452,28.453111 27.2,27.665451 27.2,27.16649 v -0.907201 l 1.164655,0.790356 c 1.469711,0.997373 2.527712,0.995297 4.915345,-0.0096 3.083043,-1.297635 5.071581,-0.970826 6.833466,1.123057 1.659401,1.972085 1.844211,4.944041 0.46054,7.405951 -1.273756,2.266346 -4.211318,4.100573 -11.175897,6.978285 -2.22304,0.918544 -4.544262,2.084176 -5.158272,2.590295 -2.238533,1.845187 -2.884921,5.046419 -1.332441,6.598899 0.737384,0.737383 1.007183,0.808416 2.48,0.652938 3.262675,-0.344429 6.996812,-2.457184 7.773442,-4.398176 0.67169,-1.678717 1.846048,-2.619226 4.570311,-3.660224 2.461885,-0.94074 3.980726,-2.334967 4.343632,-3.987255 0.19495,-0.887613 0.334787,-0.98377 1.430646,-0.98377 0.668013,0 1.700573,-0.09628 2.294573,-0.213968 1.015005,-0.201094 1.051216,-0.179001 0.601725,0.367104 -0.456285,0.554356 -0.367994,0.57394 1.92,0.425872 1.457984,-0.09436 3.007129,-0.425132 3.951193,-0.843673 1.217239,-0.539651 1.513389,-0.585456 1.370045,-0.211904 -0.100582,0.262115 -0.03861,0.476569 0.137719,0.476569 0.619792,0 3.487804,-1.609443 4.585539,-2.573267 l 1.109846,-0.974458 -0.333865,1.213863 C 58.303763,40.07458 55.571658,43.390929 52.8,44.724631 c -1.562202,0.751719 -4.71535,1.574887 -7.098867,1.853245 l -1.498864,0.175046 1.428006,1.490349 c 1.963123,2.048829 3.101152,4.468976 3.101152,6.594948 0,2.037577 -0.672406,3.195459 -2.353814,4.053248 -1.656288,0.844976 -5.441463,1.380454 -7.98584,1.129741 -2.054845,-0.20248 -2.127568,-0.184397 -2.494167,0.620195 -0.844166,1.852749 -0.06319,3.623555 2.32177,5.264451 2.165411,1.489844 3.456656,1.934192 5.620624,1.934192 2.562064,0 4.013027,0.630084 4.682138,2.033223 0.290761,0.609734 0.437321,1.346624 0.325686,1.637536 -0.185123,0.482429 -0.265715,0.484986 -0.916598,0.02909 -0.933831,-0.65408 -1.493088,-0.63064 -3.176282,0.133126 -0.767219,0.348135 -1.950349,0.636135 -2.629181,0.64 -1.046505,0.006 -1.201085,-0.07815 -1.016291,-0.552972 z m 24.470237,-2.106631 c 0.581168,-1.528589 -1.231895,-2.40552 -2.760215,-1.335043 -1.909126,1.337206 -10.042537,-3.26642 -11.848627,-6.706493 -0.461584,-0.879178 -0.45552,-0.972314 0.08333,-1.28 0.319619,-0.182509 1.087981,-0.78217 1.707466,-1.332583 2.086515,-1.853856 1.228672,-4.599251 -1.437108,-4.599251 -0.928204,0 -1.08455,-0.109526 -1.08455,-0.759767 0,-1.220691 -0.910947,-3.467408 -1.912038,-4.715769 l -0.926656,-1.155536 1.179347,-0.342733 c 4.443107,-1.291223 9.450589,-1.337159 11.831901,-0.108538 1.841388,0.950052 2.624806,2.299207 2.625996,4.522343 0.0013,2.358285 -1.331267,5.142243 -3.498806,7.309779 l -1.659162,1.659162 0.607376,0.772154 c 1.83897,2.337868 3.899946,3.378396 6.696151,3.380691 1.196739,9.6e-4 2.704045,0.148477 3.349565,0.327773 1.392044,0.38664 3.146326,2.249718 3.146326,3.341459 0,0.700794 -0.09964,0.752576 -1.127238,0.585821 -0.817645,-0.132688 -1.29746,-0.02886 -1.747015,0.377961 -0.340877,0.30849 -1.277334,0.635005 -2.081017,0.725591 l -1.461242,0.164704 z M 73.92,44.160002 c 0.696771,-0.696772 0.786762,-1.192663 0.34351,-1.892919 -0.355798,-0.562093 -1.795049,-0.525158 -4.514736,0.115859 -1.137824,0.26818 -3.200179,0.489728 -4.583011,0.49233 -2.104608,0.004 -2.484227,-0.07348 -2.330041,-0.475271 0.222544,-0.579945 0.344844,-0.577296 -1.577642,-0.03419 -0.867942,0.245197 -2.047699,0.529923 -2.62168,0.63272 l -1.043597,0.186906 1.131594,-1.672721 c 2.495894,-3.68943 3.357299,-9.642141 1.932345,-13.353434 -0.157027,-0.408978 0.368074,-0.479286 3.579616,-0.479286 3.468954,0 3.905648,-0.06974 5.577316,-0.890655 1.663075,-0.8167 1.831936,-0.998761 2.033632,-2.192595 0.45719,-2.706072 2.98936,-4.134741 5.346182,-3.016355 0.61481,0.291746 1.287725,0.903313 1.495366,1.359036 0.373975,0.820789 0.366781,0.826845 -0.764144,0.643321 l -1.141676,-0.185268 0.648483,0.824412 c 0.775241,0.985562 0.814979,1.727917 0.160265,2.993995 -0.507417,0.981241 -1.111782,1.260491 -1.111782,0.51371 0,-0.435752 -1.200058,-1.703119 -1.383376,-1.460968 -0.0547,0.07225 -0.521818,0.986176 -1.038038,2.030936 -1.54048,3.117718 -5.898586,7.369307 -5.898586,5.754417 0,-0.366493 -0.167168,-0.458 -0.56,-0.306544 -0.308,0.118752 -1.208,0.368211 -2,0.554355 -2.941818,0.691418 -2.941818,0.69553 2.59e-4,2.113994 1.495856,0.721197 3.839767,1.616522 5.208688,1.989606 2.104928,0.573677 2.666125,0.619863 3.637309,0.299341 3.202176,-1.056813 6.531546,1.430301 5.212925,3.89417 -0.358323,0.66953 -0.410227,0.679789 -0.79273,0.156685 -0.382473,-0.523066 -0.423539,-0.514912 -0.626448,0.124406 -0.319206,1.005725 -2.029715,1.917431 -3.600003,1.91881 l -1.36,0.0012 z M 49.453744,37.361681 c 0.897792,-1.57024 1.054384,-4.358249 0.319117,-5.68168 -0.419418,-0.754923 -0.444538,-0.693333 -0.445805,1.093072 -0.0013,2.014071 -0.459638,2.949696 -2.012288,4.108915 -1.705459,1.273309 -6.00023,1.486298 -5.59337,0.277393 0.09614,-0.285658 0.536439,-1.52738 0.978439,-2.75938 1.13071,-3.151647 1.082461,-5.42785 -0.198327,-9.356174 -1.201603,-3.685463 -1.342944,-6.140424 -0.440678,-7.654264 l 0.60223,-1.010439 1.148471,0.741178 C 44.44319,17.52795 45.428,17.958088 46,18.076166 c 0.797261,0.164578 1.04,0.380808 1.04,0.92643 0,0.391459 0.355341,1.424822 0.789648,2.296362 0.991824,1.990329 2.502192,2.999039 6.469664,4.320802 3.392061,1.130066 4.688307,2.047109 5.234976,3.703538 0.747837,2.265968 -0.435133,5.362169 -2.519062,6.593177 l -0.919312,0.543053 0.15103,-1.571786 c 0.187501,-1.951363 -0.09299,-3.469738 -0.813904,-4.405916 -0.538128,-0.69881 -0.55304,-0.65068 -0.55304,1.784908 0,2.231552 -0.09452,2.627005 -0.871299,3.645418 -0.851376,1.116211 -2.743786,2.223184 -4.471101,2.615392 l -0.8624,0.195817 z m 5.819562,-13.172029 c -0.31168,-0.236497 -1.152893,-0.523732 -1.869364,-0.6383 -3.273014,-0.523376 -5.364118,-2.890757 -4.993577,-5.653331 l 0.168736,-1.25802 h -1.334544 c -1.512163,0 -3.298906,-0.837475 -3.982151,-1.866499 -0.435753,-0.656281 -0.394438,-0.721131 0.7692,-1.20733 0.817072,-0.341396 1.687997,-0.450978 2.595565,-0.326582 0.751229,0.102968 1.76344,0.03378 2.249351,-0.153756 1.599561,-0.617335 4.375068,-0.419007 6.268736,0.447943 0.958416,0.438776 2.330572,0.897118 3.049238,1.018536 1.77737,0.300285 3.015386,1.296477 2.733856,2.199847 -0.312883,1.00397 -2.037997,3.32745 -2.880298,3.879345 -0.697027,0.456711 -0.724428,0.440387 -0.667462,-0.39762 0.05738,-0.844093 -6.4e-4,-0.876713 -1.700592,-0.956859 -0.968,-0.04564 -1.976,0.05813 -2.24,0.230583 -0.402496,0.262929 -0.311085,0.483001 0.566154,1.362975 0.949337,0.952299 1.22327,1.049417 2.96,1.049417 1.052614,0 1.913846,0.102989 1.913846,0.228865 0,0.125876 -0.446918,0.737876 -0.993149,1.36 -1.057961,1.204952 -1.701737,1.372645 -2.613545,0.680786 z M 54.321962,15.51108 C 54.276883,15.474683 53.664,15.341069 52.96,15.214161 l -1.28,-0.230741 0.775331,0.827812 c 0.727965,0.777239 0.811171,0.795379 1.361962,0.296919 0.322646,-0.291991 0.549747,-0.560673 0.504669,-0.597071 z"
       id="path421"
       sodipodi:nodetypes="sssssssssssssscsssssssssssssscsscssssssscsssscscssssssssssssssssscssscssssssssssscsssssssssscsscscscssssscsssscssscsssssssscssssssssssssssscssscssssscssssssscssssscsssscsssscsssssssssssssscsss" />
  </g>
</svg>
