<?xml version="1.0" encoding="UTF-8" standalone="no"?>
<!-- Created with Inkscape (http://www.inkscape.org/) -->

<svg
   version="1.1"
   id="svg2328"
   width="1024"
   height="1024"
   viewBox="0 0 1024 1024"
   sodipodi:docname="Nedbank.svg"
   inkscape:version="1.2.1 (9c6d41e410, 2022-07-14)"
   xmlns:inkscape="http://www.inkscape.org/namespaces/inkscape"
   xmlns:sodipodi="http://sodipodi.sourceforge.net/DTD/sodipodi-0.dtd"
   xmlns="http://www.w3.org/2000/svg"
   xmlns:svg="http://www.w3.org/2000/svg">
  <defs
     id="defs2332">
    <filter
       style="color-interpolation-filters:sRGB;"
       height="1"
       width="1"
       y="0"
       x="0"
       inkscape:label="Color Blindness"
       id="filter3376">
      <feColorMatrix
         values="0.299 0.587 0.114 0 0 0.299 0.587 0.114 0 0 0.299 0.587 0.114 0 0 0 0 0 1 0 "
         type="matrix"
         result="colormatrix1"
         id="feColorMatrix3374" />
    </filter>
  </defs>
  <sodipodi:namedview
     id="namedview2330"
     pagecolor="#ffffff"
     bordercolor="#000000"
     borderopacity="0.25"
     inkscape:showpageshadow="2"
     inkscape:pageopacity="0.0"
     inkscape:pagecheckerboard="0"
     inkscape:deskcolor="#d1d1d1"
     showgrid="false"
     inkscape:zoom="0.55380824"
     inkscape:cx="147.16285"
     inkscape:cy="572.4003"
     inkscape:window-width="1920"
     inkscape:window-height="974"
     inkscape:window-x="-11"
     inkscape:window-y="-11"
     inkscape:window-maximized="1"
     inkscape:current-layer="g2334" />
  <g
     inkscape:groupmode="layer"
     inkscape:label="Image"
     id="g2334">
    <path
       style="fill:#cf0000;fill-opacity:1;filter:url(#filter3376)"
       d="M 373.44565,630.53223 C 356.42554,619.34304 330.26491,602.1584 315.31091,592.34413 L 288.12181,574.5 288.06091,421.86049 288,269.22098 305.25,257.90175 c 9.4875,-6.22557 29.85,-19.62183 45.25,-29.76946 44.5692,-29.3683 53.47911,-35.1336 54.26328,-35.11194 0.4052,0.0112 9.96172,6.27787 21.23672,13.92595 11.275,7.64809 36.63257,24.78498 56.35016,38.08199 l 35.85015,24.17638 21.64985,-14.5096 C 551.75757,246.7148 569.375,234.83151 579,228.28778 614.43668,204.19549 631.22391,193 631.91273,193 c 0.38844,0 15.97949,10.32552 34.64677,22.94559 18.66727,12.62008 44.178,29.79934 56.6905,38.17614 L 746,269.35227 745.92,421.92614 745.84,574.5 719.16996,592.3131 c -14.66852,9.79721 -40.29552,27.01633 -56.94889,38.26472 l -30.27886,20.45161 -24.72114,-16.68619 c -52.29887,-35.3005 -61.13942,-41.26952 -74.42088,-50.24801 -7.53486,-5.09368 -14.2925,-9.11139 -15.01699,-8.92823 -0.72449,0.18315 -26.0596,17.01669 -56.30026,37.40787 -30.24066,20.39118 -55.45748,37.35083 -56.03737,37.6881 -0.57989,0.33728 -14.97989,-8.54156 -32,-19.73074 z m 77.4972,-40.74364 c 23.34357,-16.10873 42.42202,-29.72234 42.39656,-30.25247 -0.044,-0.91664 -6.80489,-5.71652 -42.33941,-30.05889 -8.525,-5.83992 -22.3625,-15.34035 -30.75,-21.11207 L 405,497.87113 v 61.59962 c 0,58.37929 0.0915,61.54752 1.75,60.60302 0.9625,-0.54813 20.84928,-14.17646 44.19285,-30.28518 z M 719.98715,418.75 719.9743,281.5 l -6.23715,-4.17358 c -11.24956,-7.52764 -46.91753,-31.67198 -62.99538,-42.64279 -8.66702,-5.91399 -16.42952,-11.01032 -17.25,-11.32516 C 632.17746,222.85412 632,231.83978 632,298.89301 632,340.75186 631.82703,375 631.61562,375 c -0.2114,0 -10.4489,-6.81093 -22.75,-15.13541 -35.71786,-24.17122 -65.50135,-44.28306 -92.36562,-62.37155 -13.75,-9.25827 -33.775,-22.77636 -44.5,-30.0402 -57.5176,-38.95558 -67.3395,-45.36059 -68.51221,-44.6778 -4.69565,2.73393 -91.42469,60.8272 -91.40444,61.22496 0.0216,0.42426 406.95382,271.91123 407.66665,271.97695 0.1375,0.0127 0.24422,-61.73945 0.23715,-137.22695 z"
       id="path3009"
       transform="matrix(2.0194042,0,0,2.0194042,-534.04026,-344.1881)"
       sodipodi:nodetypes="cscccssssscssssscccsscsssssccsssscsssscssssssssssss" />
  </g>
</svg>
