<?xml version="1.0" encoding="UTF-8" standalone="no"?>
<!-- Generator: Adobe Illustrator 22.1.0, SVG Export Plug-In . SVG Version: 6.00 Build 0)  -->

<svg
   version="1.1"
   id="Layer_1"
   wide="132.7px"
   height="64.690414"
   viewBox="0 0 50.223378 64.690414"
   xml:space="preserve"
   sodipodi:docname="SARB.svg"
   inkscape:version="1.2.1 (9c6d41e410, 2022-07-14)"
   width="50.223377"
   xmlns:inkscape="http://www.inkscape.org/namespaces/inkscape"
   xmlns:sodipodi="http://sodipodi.sourceforge.net/DTD/sodipodi-0.dtd"
   xmlns="http://www.w3.org/2000/svg"
   xmlns:svg="http://www.w3.org/2000/svg"><defs
   id="defs1076"><filter
     style="color-interpolation-filters:sRGB"
     height="1.0096347"
     width="1.0151991"
     y="-0.0044520705"
     x="-0.0075995315"
     inkscape:label="Brilliance"
     id="filter1667"><feColorMatrix
       values="0.299 0.587 0.114 0 0 0.299 0.587 0.114 0 0 0.299 0.587 0.114 0 0 0 0 0 1 0 "
       type="matrix"
       result="fbSourceGraphic"
       id="feColorMatrix1665" /><feColorMatrix
       result="fbSourceGraphicAlpha"
       in="fbSourceGraphic"
       values="0 0 0 -1 0 0 0 0 -1 0 0 0 0 -1 0 0 0 0 1 0"
       id="feColorMatrix1673" /><feColorMatrix
       id="feColorMatrix1675"
       values="0.299 0.587 0.114 0 0 0.299 0.587 0.114 0 0 0.299 0.587 0.114 0 0 0 0 0 1 0 "
       type="matrix"
       result="fbSourceGraphic"
       in="fbSourceGraphic" /><feColorMatrix
       result="fbSourceGraphicAlpha"
       in="fbSourceGraphic"
       values="0 0 0 -1 0 0 0 0 -1 0 0 0 0 -1 0 0 0 0 1 0"
       id="feColorMatrix1809" /><feColorMatrix
       id="feColorMatrix1811"
       values="3.36842 -0.5 -0.5 0 -1.11111 -0.5 3.36842 -0.5 0 -1.11111 -0.5 -0.5 3.36842 0 -1.11111 0 0 0 1 0 "
       in="fbSourceGraphic" /></filter><filter
     style="color-interpolation-filters:sRGB"
     height="1"
     width="1"
     y="0"
     x="0"
     inkscape:label="Brilliance"
     id="filter1671"><feColorMatrix
       values="0.299 0.587 0.114 0 0 0.299 0.587 0.114 0 0 0.299 0.587 0.114 0 0 0 0 0 1 0 "
       type="matrix"
       result="fbSourceGraphic"
       id="feColorMatrix1669" /><feColorMatrix
       result="fbSourceGraphicAlpha"
       in="fbSourceGraphic"
       values="0 0 0 -1 0 0 0 0 -1 0 0 0 0 -1 0 0 0 0 1 0"
       id="feColorMatrix1677" /><feColorMatrix
       id="feColorMatrix1679"
       values="0.299 0.587 0.114 0 0 0.299 0.587 0.114 0 0 0.299 0.587 0.114 0 0 0 0 0 1 0 "
       type="matrix"
       result="fbSourceGraphic"
       in="fbSourceGraphic" /><feColorMatrix
       result="fbSourceGraphicAlpha"
       in="fbSourceGraphic"
       values="0 0 0 -1 0 0 0 0 -1 0 0 0 0 -1 0 0 0 0 1 0"
       id="feColorMatrix1813" /><feColorMatrix
       id="feColorMatrix1815"
       values="3.36842 -0.5 -0.5 0 -1.11111 -0.5 3.36842 -0.5 0 -1.11111 -0.5 -0.5 3.36842 0 -1.11111 0 0 0 1 0 "
       in="fbSourceGraphic" /></filter></defs><sodipodi:namedview
   id="namedview1074"
   pagecolor="#ffffff"
   bordercolor="#000000"
   borderopacity="0.25"
   inkscape:showpageshadow="2"
   inkscape:pageopacity="0.0"
   inkscape:pagecheckerboard="0"
   inkscape:deskcolor="#d1d1d1"
   showgrid="false"
   inkscape:zoom="7.5916956"
   inkscape:cx="30.757292"
   inkscape:cy="43.600273"
   inkscape:window-width="1920"
   inkscape:window-height="974"
   inkscape:window-x="-11"
   inkscape:window-y="-11"
   inkscape:window-maximized="1"
   inkscape:current-layer="g1071" />
<style
   type="text/css"
   id="style915">
	.st0{fill:none;}
	.st1{fill:#B59652;}
	.st2{fill:none;stroke:#B59652;stroke-width:0.649;stroke-linejoin:bevel;stroke-miterlimit:3.864;}
	.st3{fill:none;stroke:#B59652;stroke-width:0.649;stroke-miterlimit:3.864;}
	.st4{fill:none;stroke:#B59652;stroke-width:0.649;stroke-linecap:round;stroke-miterlimit:3.864;}
	.st5{fill:none;stroke:#B59652;stroke-width:0.328;stroke-miterlimit:3.864;}
	.st6{fill:none;stroke:#B59652;stroke-width:0.389;stroke-miterlimit:3.864;}
</style>
<g
   id="g1071"
   transform="translate(-14.990959,-1.7599021)">
	
	<g
   id="g1069"
   style="filter:url(#filter1667)"
   transform="matrix(1.1585821,0,0,1.0786715,-37.464425,1.7215586)">
		<line
   class="st2"
   x1="63.400002"
   y1="0.30000001"
   x2="67.900002"
   y2="3.5"
   id="line987" />
		<line
   class="st3"
   x1="88.199997"
   y1="40.299999"
   x2="88.199997"
   y2="44.900002"
   id="line989" />
		<path
   class="st3"
   d="m 76.6,32.2 c 5.9,1.8 10.3,5.1 10.3,8.5 0,3.3 -3.6,6.4 -9.1,8.2"
   id="path991" />
		<path
   class="st3"
   d="m 76.5,30.8 1.7,0.6 c 5.9,1.8 10.1,5.6 10.1,9 0,3.3 -3.5,7.5 -9,9.3 L 78,50.2"
   id="path993" />
		<path
   class="st3"
   d="m 88.2,43.9 c 0,0.1 0,0.2 0,0.3 0,3.3 -4.5,7.2 -10,9"
   id="path995" />
		<line
   class="st4"
   x1="45.700001"
   y1="39.900002"
   x2="45.700001"
   y2="43.599998"
   id="line997" />
		<path
   class="st4"
   d="M 57.3,31.8 C 51.4,33.6 47,36.9 47,40.2 c 0,3.3 3.6,6.4 9.1,8.2"
   id="path999" />
		<path
   class="st4"
   d="m 57.3,30.4 -1.6,0.5 c -5.9,1.8 -10.1,5.6 -10.1,9 0,3.3 3.5,7.5 9,9.3 l 1.3,0.5"
   id="path1001" />
		<path
   class="st4"
   d="m 45.7,43.5 c 0,0.1 0,0.2 0,0.3 0,3.3 4.5,7.2 10,9"
   id="path1003" />
		<line
   class="st5"
   x1="55"
   y1="49.5"
   x2="55"
   y2="52.700001"
   id="line1005" />
		<line
   class="st5"
   x1="54.299999"
   y1="49.099998"
   x2="54.299999"
   y2="52.299999"
   id="line1007" />
		<line
   class="st5"
   x1="53.5"
   y1="48.900002"
   x2="53.5"
   y2="52.099998"
   id="line1009" />
		<line
   class="st5"
   x1="52.700001"
   y1="48.5"
   x2="52.700001"
   y2="51.700001"
   id="line1011" />
		<line
   class="st5"
   x1="51.900002"
   y1="47.900002"
   x2="51.900002"
   y2="51.099998"
   id="line1013" />
		<line
   class="st5"
   x1="51.099998"
   y1="47.400002"
   x2="51.099998"
   y2="50.599998"
   id="line1015" />
		<line
   class="st5"
   x1="50.400002"
   y1="46.900002"
   x2="50.400002"
   y2="50.099998"
   id="line1017" />
		<line
   class="st5"
   x1="49.599998"
   y1="46.200001"
   x2="49.599998"
   y2="49.5"
   id="line1019" />
		<line
   class="st5"
   x1="48.799999"
   y1="45.700001"
   x2="48.799999"
   y2="49"
   id="line1021" />
		<line
   class="st5"
   x1="48"
   y1="44.900002"
   x2="48"
   y2="48.200001"
   id="line1023" />
		<line
   class="st5"
   x1="47.299999"
   y1="44"
   x2="47.299999"
   y2="47.200001"
   id="line1025" />
		<line
   class="st5"
   x1="46.5"
   y1="43"
   x2="46.5"
   y2="46.299999"
   id="line1027" />
		<polyline
   class="st3"
   points="71.3,0.3 74.2,3 78.4,57.9 73,59.7   "
   id="polyline1029" />
		<polyline
   class="st1"
   points="59.5,3.8 55,57.7 61.3,59.5 63.4,0.5   "
   id="polyline1031" />
		<polygon
   class="st6"
   points="59.5,3.8 55,57.7 61.3,59.5 63.4,0.5 "
   id="polygon1033" />
		<polyline
   class="st1"
   points="67.4,11.1 67.3,12.6 66.6,58.1 73,59.7 71.3,0.5 67.8,3.1 67.7,5.8 69.2,5.8 69.2,11.1   "
   id="polyline1035" />
		<polygon
   class="st6"
   points="73,59.7 71.3,0.5 67.8,3.1 67.7,5.8 69.2,5.8 69.2,11.1 67.4,11.1 67.3,12.6 66.6,58.1 "
   id="polygon1037" />
		<polyline
   class="st1"
   points="67.2,13.6 68.7,11.8 65.5,11.8   "
   id="polyline1039" />
		<path
   class="st3"
   d="M 65.1,5.8 H 69 v 5.4 h -3.9 z m 2.1,7.8 1.5,-1.9 -3.2,0.1 z"
   id="path1041" />
		<line
   class="st3"
   x1="67.199997"
   y1="58"
   x2="61.299999"
   y2="59.5"
   id="line1043" />
		<line
   class="st5"
   x1="78.699997"
   y1="49.900002"
   x2="78.699997"
   y2="53.099998"
   id="line1045" />
		<line
   class="st5"
   x1="79.5"
   y1="49.599998"
   x2="79.5"
   y2="52.799999"
   id="line1047" />
		<line
   class="st5"
   x1="80.300003"
   y1="49.299999"
   x2="80.300003"
   y2="52.599998"
   id="line1049" />
		<line
   class="st5"
   x1="81.099998"
   y1="49"
   x2="81.099998"
   y2="52.200001"
   id="line1051" />
		<line
   class="st5"
   x1="81.900002"
   y1="48.400002"
   x2="81.900002"
   y2="51.599998"
   id="line1053" />
		<line
   class="st5"
   x1="82.699997"
   y1="47.900002"
   x2="82.699997"
   y2="51.099998"
   id="line1055" />
		<line
   class="st5"
   x1="83.5"
   y1="47.599998"
   x2="83.5"
   y2="50.799999"
   id="line1057" />
		<line
   class="st5"
   x1="84.300003"
   y1="47"
   x2="84.300003"
   y2="50.299999"
   id="line1059" />
		<line
   class="st5"
   x1="85.099998"
   y1="46.400002"
   x2="85.099998"
   y2="49.599998"
   id="line1061" />
		<line
   class="st5"
   x1="85.900002"
   y1="45.599998"
   x2="85.900002"
   y2="48.799999"
   id="line1063" />
		<line
   class="st5"
   x1="86.699997"
   y1="44.599998"
   x2="86.699997"
   y2="47.799999"
   id="line1065" />
		<line
   class="st5"
   x1="87.5"
   y1="43.400002"
   x2="87.5"
   y2="46.599998"
   id="line1067" />
	</g>
</g>
</svg>
