<?xml version="1.0" standalone="no"?>
<!DOCTYPE svg PUBLIC "-//W3C//DTD SVG 20010904//EN"
 "http://www.w3.org/TR/2001/REC-SVG-20010904/DTD/svg10.dtd">
<svg version="1.0" xmlns="http://www.w3.org/2000/svg"
 width="160.000000pt" height="160.000000pt" viewBox="0 0 160.000000 160.000000"
 preserveAspectRatio="xMidYMid meet">
<metadata>
Created by potrace 1.14, written by Peter Selinger 2001-2017
</metadata>
<g transform="translate(0.000000,160.000000) scale(0.100000,-0.100000)"
fill="#000000" stroke="none">
<path d="M674 1461 c-119 -40 -204 -116 -257 -228 -26 -57 -31 -81 -35 -170
-4 -94 -6 -103 -24 -103 -11 0 -35 -15 -54 -34 l-34 -34 0 -349 c0 -338 1
-351 20 -368 19 -17 51 -18 510 -18 460 0 491 1 510 18 19 17 20 30 20 368 l0
349 -34 34 c-19 19 -43 34 -55 34 -19 0 -21 6 -22 78 -1 105 -5 127 -39 199
-41 88 -108 156 -198 200 -67 34 -82 37 -165 39 -66 2 -107 -3 -143 -15z m221
-152 c108 -41 170 -139 174 -276 l2 -73 -271 0 -272 0 3 78 c4 95 27 156 81
211 73 73 185 97 283 60z"/>
</g>
</svg>
