<svg width="1400" height="1148" xmlns="http://www.w3.org/2000/svg"><path style="fill:#000;stroke-width:2.17001" d="M636.385 1085.007c-57.59-5.112-94.803-18.727-106.183-38.848-2.373-4.195-6.419-16.018-8.99-26.273-2.573-10.255-8.025-24.4-12.118-31.432-4.092-7.033-9.94-17.919-12.995-24.191-7.987-16.397-5.425-22.691 16.677-40.976 9.436-7.807 17.157-15.084 17.157-16.17 0-2.608-11.688-2.424-23.87.374-17.52 4.025-48.09 20.331-87.886 46.879-56.162 37.465-68.94 44.1-93.755 48.688-18.91 3.496-26.695.033-68.786-30.595l-14.98-10.901h10.727c19.929 0 48.915-9.913 77.824-26.615 8.355-4.827 34.447-21.371 57.983-36.764 68.75-44.964 91.633-55.042 121.043-53.31 27.509 1.621 40.858 11.593 55.99 41.824 4.78 9.548 12.202 23.161 16.495 30.252 13.992 23.112 9.138 34.054-22.707 51.194-17.175 9.244-25.494 17.032-22.818 21.362 2.26 3.656 41.437 15.599 65.273 19.897 79.663 14.366 174.877 9.833 239.235-11.389 27.858-9.186 27.536-13.2-2.375-29.616-32.942-18.08-36.678-28.292-20.262-55.385 5.153-8.506 12.97-22.965 17.369-32.132 13.308-27.729 30.824-37.912 61.956-36.019 27.572 1.677 49.376 12.169 115.286 55.474 68.591 45.067 96.27 58.228 127.54 60.643l15.785 1.218-7.09 4.312c-3.9 2.372-13.903 9.642-22.229 16.157-21.888 17.126-30.292 21.003-44.998 20.757-24.872-.417-43.05-8.983-102.644-48.37-23.87-15.776-48.77-31.395-55.335-34.708-16.18-8.167-39.75-15.213-50.681-15.152l-8.994.05 10.057 9.173a1772.6 1772.6 0 0 0 20.073 17.974c9.11 8.006 10.015 9.681 10.015 18.534 0 7.955-1.995 12.885-10.93 27.003-6.01 9.499-12.417 22.642-14.237 29.206-10.062 36.29-11.663 40.319-18.68 46.995-23.238 22.105-80.988 33.607-165.559 32.975-20.29-.152-46.111-1.095-57.382-2.095zm47.687-18.742.069-12.478 5.356 6.089 5.356 6.088 5.357-6.088 5.356-6.089.069 12.609.069 12.608 8.137-.673 8.138-.674.611-25.497.611-25.498h-7.453c-5.981 0-8.77 1.608-14.119 8.138l-6.665 8.137-7.108-8.226c-4.922-5.697-9.11-8.366-13.618-8.68l-6.51-.454-.62 23.73c-.34 13.053-.127 25.015.475 26.583.618 1.611 4.429 2.852 8.757 2.852h7.663zm80.206 8.976c23.517-9.41 24.456-37.884 1.624-49.242-11.15-5.547-22.141-3.1-32.53 7.242-6.99 6.957-8.138 9.474-8.138 17.828 0 11.314 5.737 20.081 16.09 24.589 8.818 3.84 12.482 3.773 22.954-.417zm-18.972-15.296c-3.724-1.502-3.427-14.798.4-17.975 1.713-1.421 6.334-2.273 10.27-1.893 5.529.533 7.623 2.031 9.217 6.592 3.567 10.208-8.133 18.02-19.887 13.276zm-118.092-5.013-.716-17.822 7.177 1.17c7.125 1.161 7.172 1.112 6.51-6.845l-.667-8.014-17.36-2.556c-27.43-4.04-27.512-4.027-26.72 4.045.566 5.77 1.859 7.23 7.733 8.742l7.052 1.814v38.661l7.053.723c3.879.398 7.863.088 8.853-.687.99-.775 1.479-9.43 1.085-19.231zm172.342 15.787c.895-.502 1.628-6.922 1.628-14.266V1043.1l10.667 10.507c8.85 8.718 11.607 10.272 16.18 9.124 6.328-1.588 7.134-4.813 8.614-34.441 1.022-20.464.655-21.062-10.365-16.872-5.082 1.933-5.566 3.2-5.566 14.566v12.45l-10.572-10.413c-13.897-13.687-20.217-13.458-22.36.811-.807 5.371-1.539 17.84-1.627 27.71l-.161 17.943 5.967-1.426c3.282-.785 6.7-1.838 7.595-2.34zm-204.928-7.71c-.597-6.187-1.81-7.41-9.902-9.97-10.69-3.383-12.696-7.54-2.185-4.525 10.106 2.898 10.322 2.783 10.322-5.493 0-6.927-.675-7.693-8.68-9.849-4.774-1.285-8.68-2.874-8.68-3.53 0-.655 3.906-.531 8.68.275l8.68 1.467v-7.39c0-7.387-.002-7.389-15.732-11.068-8.653-2.024-16.465-3.667-17.36-3.652-1.996.034-2.12 20.729-.232 38.787l1.396 13.355 13.251 4.201c19.307 6.121 21.26 5.872 20.442-2.607zm-242.822-75.312c20.597-10.508 25.953-29.012 12.338-42.627-9.41-9.411-20.27-9.913-36.637-1.692-6.226 3.127-11.602 5.932-11.947 6.233-1.14.995 24.445 42.331 26.202 42.331.948 0 5.467-1.91 10.044-4.245zM341.33 964.65c-2.518-4.268-4.022-8.663-3.34-9.765 1.781-2.883 12.669-2.468 15.737.601 3.987 3.987 3.099 12.169-1.593 14.68-5.803 3.106-5.68 3.169-10.804-5.516zm721.371 13.264c4.756-7.715 9.429-14.062 10.383-14.105.954-.042 4.586 1.397 8.07 3.2 6.198 3.204 6.412 3.128 9.818-3.457 1.915-3.704 3.166-6.887 2.78-7.074-.387-.188-9.64-4.956-20.56-10.596l-19.858-10.254-3.738 5.703c-3.627 5.536-3.585 5.82 1.413 9.664 2.832 2.178 5.876 3.982 6.763 4.009.887.026-2.834 6.987-8.27 15.467s-9.544 15.759-9.129 16.174c.846.846 10.83 4.946 12.563 5.16.615.075 5.01-6.175 9.765-13.89zm-173.759-7.818c13.654-15.113 9.673-27.837-14.274-45.623-7.92-5.882-15.607-12.15-17.083-13.928-8.88-10.7-47.722 8.574-47.722 23.68 0 6.302 6.188 11.701 24.955 21.776 21.273 11.42 28.72 17.534 30.34 24.91l1.402 6.381 7.33-4.325c4.032-2.379 10.805-8.17 15.052-12.871zm-359.01 12.248c0-6.36 11.24-16.042 30.495-26.268 10.93-5.804 21.385-12.864 23.236-15.688 3.053-4.66 3.031-5.834-.24-12.693-2.76-5.787-6.78-9.06-17.155-13.969-7.453-3.526-15.733-6.412-18.399-6.412-5.548-.002-39.433 25.346-44.769 33.49-7.796 11.899-3.016 26.028 12.875 38.052 9.368 7.088 13.957 8.235 13.957 3.488zm506.787-28.618 12.618-20.857-5.27-4.047c-2.897-2.226-6.05-3.81-7.006-3.52-.956.29-7.506 9.789-14.557 21.107-12.791 20.535-12.809 20.586-8.329 24.376 2.47 2.088 5.712 3.797 7.207 3.797s8.396-9.385 15.337-20.856zm-635.325 3.954 4.918-3.785-13.215-21.121c-7.267-11.617-13.875-21.09-14.682-21.05-.808.04-3.723 1.951-6.477 4.247l-5.009 4.175 7.674 11.996a5071.054 5071.054 0 0 1 13.173 20.708c6.22 9.853 6.818 10.065 13.618 4.83zm609.3-7.922c7.065-4.63 12.48-17.68 10.88-26.216-1.584-8.443-13.066-19.49-22.382-21.537-17.744-3.897-36.526 15.44-31.066 31.985 5.899 17.874 27.27 25.79 42.567 15.768zm-22.408-13.274c-6.527-4.572-6.238-12.955.602-17.437 5.026-3.293 5.825-3.293 10.85 0 5.34 3.499 6.339 5.69 5.533 12.135-.454 3.624-6.165 8.68-9.804 8.68-1.297 0-4.528-1.52-7.18-3.378zm-546.782-4.872c8.835-5.805 9.616-8.06 4.933-14.244-2.974-3.927-3.3-3.903-10.895.79-4.306 2.662-8.502 4.166-9.324 3.344-.823-.823-.039-2.332 1.742-3.354 10.271-5.898 11.478-7.739 8.642-13.178-1.506-2.89-3.043-5.609-3.415-6.043-.373-.435-4.198 1.386-8.5 4.045-4.303 2.66-8.312 4.347-8.909 3.75-.597-.597 2.384-3.23 6.624-5.85 4.24-2.62 7.678-5.905 7.64-7.3-.1-3.662-5.843-10.72-7.986-9.814-5.337 2.254-26.55 16.176-26.603 17.459-.034.825 5.928 10.86 13.248 22.302l13.31 20.802 5.678-3.682c3.123-2.024 9.34-6.087 13.815-9.027zm521.468-9.788c-1.412-13.185-1.261-13.792 4.027-16.201 6.951-3.167 9.492-12.433 5.406-19.71-2.655-4.727-23.142-18.939-24.814-17.213-1.252 1.293-24.888 42.755-24.888 43.658 0 .516 3.11 2.225 6.91 3.8 5.226 2.164 7.118 2.235 7.766.292.471-1.414 2.7-4.78 4.953-7.482l4.097-4.911.072 11.18c.066 10.205.687 11.572 7.125 15.695 3.879 2.484 7.899 4.533 8.933 4.553 1.034.02 1.22-6.127.413-13.661zm-9.889-31.053c0-2.883.59-3.032 3.255-.82 1.79 1.487 3.255 3.07 3.255 3.521 0 .451-1.464.82-3.255.82-1.79 0-3.255-1.585-3.255-3.521zm-469.712 18.652c13.067-8.075 13.105-15.89.222-46.292-3.207-7.57-4.124-8.233-9.528-6.899-3.288.812-6.732 2.21-7.653 3.106-.921.896 1.4 8.59 5.157 17.097 7.362 16.668 7.156 22.197-.826 22.197-4.194 0-6.247-2.637-11.824-15.19-6.886-15.498-9.645-17.489-16.891-12.19-3.98 2.91-3.914 3.448 2.218 17.903 3.477 8.196 8.51 17.099 11.185 19.784 6.216 6.24 18.288 6.45 27.94.484zm439.588-14.876c7.28-7.28 8.424-9.746 8.424-18.15 0-11.62-6.943-19.98-19.278-23.21-20.983-5.495-18.197-7.31-27.057 17.627-4.375 12.316-7.946 23.516-7.935 24.89.026 3.239 13.447 6.759 26.858 7.044 9.512.202 11.4-.614 18.988-8.201zm-26.296-8.76c0-3.984 6.921-19.705 8.675-19.705.932 0 3.98 1.85 6.774 4.113 4.366 3.535 4.775 4.982 2.913 10.307-1.786 5.107-3.587 6.313-10.264 6.868-4.592.382-8.098-.304-8.098-1.583zm-209.07 117.377c-1.975-2.183-3.59-6.577-3.59-9.765 0-3.605-1.185-5.797-3.133-5.797-4.47 0-9.512-7.977-13.37-21.157-3.598-12.288-7.148-14.194-12.217-6.56l-3.21 4.833-3.565-6.895c-8.842-17.099-1.216-35.321 14.78-35.321h7.694v-21.7c0-11.935.657-21.7 1.459-21.7s9.346 1.43 18.987 3.18c9.641 1.748 20.828 3.457 24.859 3.797l7.33.618.265 17.36.266 17.36 9.534 1.272c9.819 1.31 14.556 5.382 16.839 14.475 1.6 6.375-.728 17.88-4.675 23.094-3.029 4-3.243 3.97-7.372-1.085-5.358-6.558-7.353-4.613-12.002 11.697-2.651 9.304-4.966 13.194-8.92 14.996-3.225 1.47-5.34 4.252-5.34 7.027 0 2.526-1.52 6.764-3.378 9.416-4.258 6.08-16.08 6.556-21.24.855zm16.87-3.782c4.034-4.034 4.068-4.324 1.163-9.753-2.687-5.02-11.314-5.52-15.167-.878-2.106 2.538-2.18 4.581-.312 8.68 2.79 6.125 9.26 7.007 14.315 1.951zm-13.59-18.483c3.8-2.033 4.214-3.696 2.979-11.935-1.29-8.607-.997-9.572 2.91-9.572 5.958 0 7.293 2.989 4.284 9.594-2.128 4.67-1.901 6.287 1.393 9.927 8.103 8.954 16.781 3.174 21.955-14.621 3.664-12.605 7.625-15.806 14.357-11.602 5.218 3.258 5.883 2.664 7.385-6.592 2.374-14.625-14.519-25.568-23.74-15.38-1.93 2.133-5.051 7.571-6.938 12.086-1.886 4.515-4.609 7.816-6.05 7.336-4.742-1.58-4.095-7.887 1.57-15.314 7.72-10.12 7.144-17.084-2.273-27.508-4.316-4.777-9.085-8.686-10.598-8.686-1.512 0-6.28 3.909-10.597 8.686-9.545 10.565-10.19 18.577-2.257 28.005 5.715 6.791 6.334 13.225 1.431 14.858-1.581.526-4.2-2.615-6.184-7.415-1.892-4.581-4.959-10.038-6.815-12.127-7.891-8.878-24.433-.52-24.37 12.314.05 9.944 2.69 13.146 8.069 9.786 6.825-4.262 10.696-1.106 13.627 11.111 2.621 10.927 8.362 19.412 13.134 19.412 1.272 0 4.3-1.063 6.728-2.363zm-480.177-45.621c-5.394-5.395-4.571-17.105 1.688-24.022 2.883-3.185 3.245-5.084 1.502-7.869-3.821-6.104-12.687-5.764-17.757.682l-4.465 5.676-2.699-9.006c-2.276-7.598-2.126-11.154.959-22.73 3.989-14.97 4.845-31.457 1.633-31.457-1.113 0-2.676 2.197-3.472 4.882-1.684 5.676-11.807 21.158-13.835 21.158-1.9 0-6.72-26.255-6.662-36.29.05-8.67 5.587-22.778 13.052-33.262 3.74-5.253 4.142-7.566 2.407-13.85-2.78-10.071 1.115-13.81 10.388-9.969 9.055 3.75 18.643.948 27.681-8.09 10.886-10.885 17.294-26.339 21.333-51.446 4.339-26.97 9.414-42.199 22.805-68.434 19.344-37.896 16.92-43.714-4.403-10.568-7.758 12.059-18.175 26.309-23.15 31.665-4.974 5.357-9.689 12.323-10.476 15.48-3.9 15.63-25.738 30.72-44.378 30.663-18.068-.054-26.233-4.62-12.996-7.268 3.658-.731 9.762-4.443 13.563-8.248l6.912-6.92-6.5-1.741c-3.576-.959-9.68-.865-13.563.207-9.057 2.501-21.181-.771-27.955-7.545-6.403-6.403-6.954-10.804-.95-7.591 5.117 2.738 15.333 2.966 15.333.341 0-1.048-1.465-5.41-3.256-9.695-4.875-11.67-4.075-32.81 1.78-47.042 7.971-19.373 18.863-33.784 51.622-68.303 34.629-36.49 46.182-52.58 49.573-69.043 5.615-27.26-11.729-44.39-35.683-35.241l-9.557 3.65 4.217 6.916c4.828 7.919 5.315 15.824 1.715 27.84-5.525 18.442-21.966 30.384-70.052 50.884-12.493 5.326-22.735 11.463-28.753 17.229-9.88 9.467-11.48 8.154-6.009-4.938 4.687-11.219 8.224-14.568 28.036-26.553 19.282-11.664 27.904-19.633 31.48-29.093 3.45-9.132 1.266-9.343-6.396-.616-7.183 8.181-26.17 18.825-33.556 18.811-3.597-.007-3.07-.853 2.734-4.392 7.04-4.292 8.586-7.026 24.791-43.83 7.078-16.073 12.625-20.066 28.41-20.452 9.775-.239 16.27-1.85 24.064-5.968 12.708-6.714 24.726-7.206 37.235-1.525 20.92 9.501 27.298 32.336 17.104 61.23-5.334 15.118-18.495 32.21-49.816 64.7-44.48 46.137-53.044 59.935-53.126 85.584-.046 14.443.212 15.162 8.377 23.327 7.405 7.405 9.664 8.425 18.66 8.425 5.63 0 13.49-1.545 17.468-3.433 10.754-5.102 26.542-23.076 42.323-48.18 7.717-12.275 23.442-36.904 34.945-54.733 23.777-36.848 31.187-53.276 49.76-110.31 7.25-22.27 13.683-41.71 14.293-43.202.61-1.492.16-2.713-1-2.713s-6.132 7.732-11.048 17.181c-4.916 9.45-11.983 19.744-15.704 22.875-7.328 6.165-9.984 6.058-6.63-.267 1.161-2.191 2.809-15.16 3.662-28.82.852-13.66 2.9-29.284 4.55-34.72 3.396-11.189 3.964-23.166 1.18-24.887-2.905-1.795-8.501 13.058-13.163 34.94-4.282 20.097-8.326 30.47-13.58 34.83-3.066 2.544-2.914 3.851-4.347-37.407-.625-17.997-.142-20.723 6.145-34.72 8.754-19.492 10.968-29.295 6.614-29.295-1.88 0-5.687 5.998-9.296 14.647-8.306 19.906-10.973 23.722-18.39 26.308-7.367 2.568-7.635 2.058-2.799-5.322 2.113-3.225 4.262-13.067 5.271-24.138 1.26-13.81 2.92-20.337 6.358-24.987l4.654-6.295-9.683-8.523c-10.304-9.07-14.616-18.78-9.75-21.957 1.56-1.019 7.965-3.378 14.23-5.242 9.052-2.693 11.393-4.326 11.393-7.947 0-2.507 1.623-6.351 3.607-8.544 3.11-3.436 4.083-3.57 7.053-.968 2.999 2.627 5.7 1.715 20.859-7.035 16.639-9.605 37.178-17.659 64.702-25.37 10.607-2.971 12.499-4.224 11.595-7.68-.855-3.269.085-4.128 4.514-4.128 3.077 0 7.35 1.59 9.498 3.533 3.608 3.266 4.488 3.255 11.637-.137 16.975-8.055 24.243-.793 21.664 21.646l-1.257 10.936 15.195 6.41c17.524 7.393 17.169 10.16-1.524 11.88l-12.387 1.141 7.595 4.053c10.86 5.795 49.932 46.396 46.074 47.876-6.753 2.592-13.402.748-27.105-7.517-18.474-11.143-26.574-11.42-9.204-.315 11.697 7.478 19.776 15.328 41.44 40.264 3.695 4.253 6.217 8.235 5.605 8.847-3.193 3.193-16.952.377-27.647-5.659-6.6-3.725-12.416-6.358-12.923-5.851-.507.507 5.03 6.16 12.303 12.562 15.064 13.26 23.483 28.606 23.516 42.867.013 5.267 1.842 12.165 4.299 16.205 2.352 3.868 4.905 11.216 5.671 16.327 1.411 9.411 2.706 10.885 6.434 7.325 1.134-1.083 5.633-3.437 9.997-5.23l7.935-3.261-13.418 16.622c-15.282 18.932-27.18 37.787-34.993 55.454-2.959 6.69-5.931 12.163-6.605 12.163-.674 0-8.448-6.835-17.274-15.19-8.827-8.354-17.747-15.19-19.823-15.19-3.167 0-2.889.96 1.728 5.968 31.128 33.762 65.942 74.513 68.128 79.748 1.495 3.58 3.415 11.392 4.266 17.36.851 5.967 3.538 14.142 5.971 18.165 2.433 4.024 5.193 10.86 6.132 15.19.94 4.331 2.969 12.124 4.508 17.318 2.655 8.955 2.537 9.655-2.288 13.562-6.963 5.638-8.947 5.183-8.947-2.054 0-5.998-5.62-13.356-10.201-13.356-1.246 0-2.88 3.853-3.634 8.562-1.424 8.907-7.669 15.308-14.934 15.308-3.217 0-3.524-.765-1.688-4.197 2.524-4.715 3.063-17.503.738-17.503-.83 0-4.003 2.371-7.053 5.27-8.673 8.246-15.754 9.04-23.14 2.593-5.1-4.45-5.445-5.267-1.848-4.365 2.784.698 5.934-.558 8.494-3.387 3.989-4.407 3.976-4.596-.627-9.496-7.11-7.568-6.082-15.378 2.926-22.25 8.49-6.474 11.608-14.49 7.543-19.388-3.752-4.521-8.618-4.02-14.484 1.491l-5.022 4.718-.01-16.11-.008-16.111-4.027 6.603c-2.215 3.631-6.605 8.292-9.757 10.357l-5.73 3.755V581.68c0-8.871-.88-15.114-2.075-14.698-1.141.398-4.44 5.118-7.33 10.489-3.176 5.901-6.433 9.401-8.232 8.847-1.638-.505-10.427-1.336-19.532-1.846-13.362-.748-18.488-.072-26.582 3.509-5.516 2.44-10.028 5.442-10.028 6.672 0 1.23 8.766 8.13 19.48 15.334 35.278 23.72 44.082 34.724 44.379 55.458.2 13.968-3.264 19.213-23.829 36.093-22.448 18.424-23.458 25.205-6.802 45.692 11.254 13.841 37.7 33.286 49.647 36.503 7.87 2.12 9.474 1.81 16.739-3.224 12.002-8.318 24.108-7.703 34.203 1.738 4.296 4.018 9.635 8.9 11.862 10.85 3.933 3.44 5.69 16.372 2.64 19.422-.776.777-3.716-1.075-6.532-4.114-3.846-4.15-6.864-5.356-12.12-4.847-6.732.652-6.976 1.011-6.363 9.358.472 6.424-.545 9.95-3.913 13.563-5.52 5.923-9.482 6.358-7.733.848 2.12-6.679-.93-11.156-7.602-11.156-3.382 0-6.753.977-7.491 2.17-.738 1.194-6.84 2.17-13.56 2.17-11.888 0-12.49-.294-22.306-10.916-7.397-8.003-11.104-10.526-13.895-9.456-2.743 1.053-3.552 3.193-2.896 7.662.783 5.334.19 6.2-4.238 6.2-7.266 0-15.095-8.707-17.823-19.823-2.896-11.804-9.041-24.09-12.625-25.239-1.957-.627-2.712 2.622-2.712 11.672v12.542l-7.28-7.057c-8.057-7.809-15.62-23.06-17.644-35.584-.86-5.314-3.172-9.368-6.642-11.642-7.521-4.928-6.606-9.887 2.752-14.924 18.614-10.017 23.802-34.088 12.315-57.14-4.865-9.761-16.651-22.065-21.138-22.065-.783 0-1.423 9.56-1.423 21.244 0 35.346-8.086 57.462-29.444 80.53-14.589 15.759-34.365 29.022-59.83 40.128-10.31 4.497-21.54 11.097-24.954 14.666-5.895 6.164-6.197 7.438-6.012 25.324.255 24.512 5.96 39.908 19.366 52.266 12.265 11.305 21.127 11.998 30.349 2.373 7.721-8.06 21.16-9.035 29.887-2.17 3.035 2.387 7.898 4.34 10.807 4.34 10.831 0 16.633 15.058 8.813 22.878-3.43 3.43-3.76 3.381-5.302-.788-1.987-5.37-9.711-9.864-14.074-8.19-2.46.944-2.85 3.587-1.754 11.855 1.202 9.064.732 11.321-3.175 15.228-5.25 5.25-9.356 6.059-7.606 1.498.675-1.757-.714-4.105-3.222-5.447-3.672-1.965-5.648-1.27-11.847 4.174-8.145 7.15-17.472 8.384-32.29 4.268-10.442-2.9-21.663-.071-24.46 6.166-2.664 5.944-4.256 5.975-10.037.194zm204.059-556.556c8.008-6.738 8.68-14.497 2.335-26.935-3.399-6.662-6.173-9.004-12.772-10.78-11.944-3.217-13.462-9.985-4.056-18.086 6.353-5.47 6.682-6.3 3.267-8.245-6.576-3.744-4.408-6.953 3.797-5.622 6.181 1.003 7.583.551 7.527-2.428-.037-2.014-2.547-5.467-5.576-7.674-5.45-3.971-5.734-3.929-26.855 3.993-11.74 4.404-23.27 9.356-25.623 11.004-4.862 3.405-7.246 12.29-4.44 16.543 1.437 2.175 2.948 1.435 6.364-3.115 5.675-7.559 8.969-7.63 8.071-.173-.663 5.503-.207 5.803 9.067 5.967 8.937.159 9.823.67 10.44 6.016.37 3.213-.91 8.26-2.845 11.213-4.853 7.407-1.165 20.81 7.803 28.356 8.411 7.078 15.055 7.068 23.496-.034zm-67.65-73.666c5.458-3.823 11.019-19.629 7.963-22.636-1.19-1.17-10.247.917-22.5 5.187l-20.507 7.146 7.93 3.763c4.362 2.07 9.071 5.138 10.466 6.819 3.326 4.007 10.705 3.884 16.648-.279zm65.923-26.28c2.637-3.162 8.853-24.892 7.51-26.25-.288-.29-4.817 1.548-10.066 4.084-5.248 2.535-13.962 6.509-19.364 8.83l-9.822 4.218 7.087 6.346c8.116 7.267 19.812 8.583 24.655 2.773zm726.83 646.445c4.746-16.597 4.915-17.91 2.312-17.91-1.03 0-4.45 5.742-7.598 12.758-6.178 13.765-11.228 19.526-14.325 16.337-2.675-2.754 13.702-29.898 23.178-38.416 17.76-15.965 19.915-18.636 22.401-27.768 3.214-11.808 1.716-66.167-2.016-73.14-1.994-3.725-4.509-4.78-11.387-4.78-19.89 0-61.553-30.728-73.468-54.187-2.87-5.65-5.385-15.393-6.022-23.328-1.09-13.572-1.12-13.626-7.849-13.614-11.477.02-21.913 4.009-28.512 10.897-5.459 5.698-6.433 8.61-7.155 21.38-.8 14.165-.534 15.128 6.343 22.961 6.65 7.575 6.9 8.38 3.383 10.952-3.65 2.67-93.24 40.403-102.52 43.18-3.247.972-6.463-.496-11.374-5.188-10.561-10.094-21.467-7.806-15.545 3.261 6.826 12.753-4.605 22.746-26.018 22.746H872.74l5.068-8.138c11.403-18.309 7.464-21.87-5.4-4.883-5.347 7.063-9.17 9.957-13.811 10.459-6.096.658-5.656-.085 8.772-14.807 21.114-21.545 27.713-24.947 58.59-30.21 77.276-13.17 92.323-26.265 65.16-56.707-12.956-14.52-15.284-21.233-13.726-39.578 2.64-31.086 23.008-45.54 68.46-48.58 12.954-.866 20.072-2.23 20.072-3.848 0-3.573-8.635-14.798-16.275-21.156-8.703-7.244-13.998-9.887-32.207-16.08-18.583-6.321-29.702-13.694-36.7-24.337-5.91-8.99-12.469-26.942-12.469-34.131 0-4.456-1.297-4.88-18.987-6.22-10.443-.791-25.912-2.536-34.374-3.877-26.645-4.223-29.195-.034-14.703 24.15 7.94 13.25 11.83 17.714 16.282 18.692 7.226 1.587 9.432 6.675 5.514 12.718-1.632 2.517-2.55 5.797-2.039 7.29 1.29 3.764 6.949 3.401 8.463-.543.844-2.201 4.296-3.255 10.662-3.255 8.96 0 9.837.591 18.213 12.288 4.84 6.759 8.8 13.053 8.8 13.988 0 .935-5.524-.2-12.275-2.523-13.925-4.791-15.936-5.063-15.936-2.155 0 1.138 4.395 4.012 9.765 6.388 7.007 3.1 9.765 5.58 9.765 8.782 0 5.543.368 5.575-11.367-.984-5.358-2.995-15.979-8.61-23.6-12.478-13.008-6.6-14.37-8.03-22.207-23.306-4.591-8.952-13.624-25.83-20.072-37.508-6.448-11.677-11.724-22.366-11.724-23.753 0-1.387 2.574-6.236 5.72-10.775l5.72-8.255 16.523-.03c18.139-.032 26.287-1.511 26.287-4.772 0-1.169-5.181-8.135-11.515-15.48-6.333-7.344-14.802-17.747-18.82-23.118-12.489-16.69-17.653-18.724-27.625-10.88-6.18 4.861-7.37 4.51-13.384-3.937l-4.277-6.005 11.785-9.12c17.52-13.555 24.593-12.945 44.586 3.842 14.45 12.132 15.726 12.755 19.995 9.765 11.705-8.198 25.295.913 25.295 16.959 0 8.45.945 10.26 8.553 16.373 10.058 8.083 10.977 8.29 10.977 2.48 0-7.82 8.33-28.372 17.296-42.67 4.81-7.671 8.745-15.075 8.745-16.454 0-1.378 3.037-12.4 6.75-24.49l6.75-21.986 11.522 4.244 11.52 4.245 7.227-5.445c3.974-2.994 16.014-10.55 26.756-16.79 33.396-19.402 45.507-34.698 40.202-50.773-1.347-4.081-3.815-8.555-5.485-9.94-2.532-2.102-2.836-1.285-1.83 4.915 2.338 14.408-9.815 28.322-27.162 31.096-7.595 1.214-10.41.512-17.958-4.483-11.943-7.904-18.071-5.543-19.84 7.644-.676 5.042-2.77 10.707-4.65 12.588-3.116 3.116-3.422 2.81-3.422-3.425 0-14.154-6.658-9.721-9.56 6.365-.88 4.873-3.674 9.792-7.089 12.478-7.931 6.239-9.331 5.56-6.638-3.215 2.712-8.837-.528-14.974-5.357-10.145-3.881 3.88-7.779 3.155-9.332-1.736-.757-2.387-2.971-4.34-4.92-4.34-5.347 0-.55-4.014 14.113-11.81 13.741-7.305 17.767-14.23 8.273-14.23-3.102 0-12.55 3.48-20.997 7.734s-15.57 7.428-15.83 7.053c-2.416-3.496-5.404-19.843-4.06-22.215 2.513-4.435 21.374-18.8 36.923-28.12 7.426-4.45 14.75-10.592 16.275-13.647 1.843-3.69 7.082-7.29 15.608-10.725 7.059-2.844 13.185-5.522 13.614-5.95.429-.429-22.757-30.3-51.523-66.381-28.766-36.081-51.704-66.2-50.974-66.93 1.298-1.298 14.335 11.093 88.448 84.062 19.948 19.64 36.81 35.168 37.47 34.508.66-.66 1.917-6.935 2.793-13.943l1.591-12.742 9.569 8.62c5.262 4.741 11.35 12.632 13.526 17.536 3.792 8.54 4.449 8.966 15.615 10.118 6.63.685 17.379 4.092 24.928 7.903 7.299 3.684 14.763 6.699 16.587 6.699 5.682 0 3.636 4.596-3.193 7.174-3.58 1.351-6.466 2.975-6.411 3.609.054.633 5.18 3.593 11.392 6.577 9.156 4.398 13.148 8.234 21.088 20.264 5.387 8.161 12.093 16.069 14.902 17.572 4.546 2.433 4.688 2.895 1.293 4.198-2.098.805-5.778.841-8.178.08-3.63-1.153-4.07-.706-2.618 2.663 7.805 18.11 9.625 27.03 9.691 47.508.052 16.091.951 23.016 3.45 26.582 2.055 2.936 2.438 4.823.977 4.823-4.315 0-14.65-6.272-15.96-9.685-2.293-5.975-6.346-3.81-4.752 2.538.81 3.23.788 16.46-.051 29.4-1.292 19.936-2.056 23.423-5.008 22.855-1.915-.37-5.448-3.796-7.851-7.616-2.403-3.82-4.9-6.982-5.548-7.028-.649-.046-2.266 3.985-3.593 8.957-2.188 8.199-1.982 9.39 2.217 12.79 4.62 3.741 4.6 3.78-11.507 20.796-8.876 9.377-17.618 17.406-19.429 17.844-6.484 1.568-21.793 26.55-21.824 35.614-.028 8.221 10 27.37 25.255 48.22l12.7 17.36 1.085-8.462c2.32-18.09 21.28-21.703 34.554-6.585 7.483 8.524 8.798 18.648 3.418 26.328-4.042 5.771-14.48 8.277-20.67 4.963-2.56-1.37-5.025-2.119-5.479-1.665-.453.454 4.414 7.876 10.816 16.494 6.402 8.619 17.282 25.975 24.177 38.569 14.977 27.356 25.544 37.774 38.312 37.774 10.353 0 18.924-4.26 26.369-13.108 4.981-5.92 5.68-8.677 5.662-22.321-.034-25.191-5.229-33.736-43.1-70.901-34.941-34.289-41.7-44.358-46.271-68.943-4.988-26.819 5.841-50.24 28.647-61.958 14.502-7.451 30.837-7.316 41.194.342 3.74 2.765 9.56 4.698 14.146 4.698 17.07 0 23.597 8.226 29.273 36.89 2.532 12.791 5.073 17.313 11.937 21.25 3.914 2.244 3.628 2.495-2.92 2.555-10.318.093-19.14-5.891-26.642-18.073-7.369-11.966-10.115-12.04-6.197-.168 3.872 11.732 15.573 23.486 34.719 34.874 16.435 9.777 19.808 13.417 22.85 24.663l1.468 5.425-4.65-4.86c-5.71-5.968-11.142-8.816-35.68-18.707-26.205-10.562-39.406-19.444-46.246-31.116-6.949-11.857-7.793-28.474-2.005-39.458 4.668-8.86 2.57-11.021-10.755-11.071-10.727-.041-23.837 7.878-31.446 18.994-4.586 6.7-5.335 10.258-5.327 25.307.013 23.442 6.236 34.912 32.453 59.808 10.694 10.155 24.665 23.828 31.048 30.385 27.026 27.766 33.907 64.624 16.777 89.867-2.982 4.394-5.422 8.434-5.422 8.978 0 1.985 5.58.88 11.716-2.32 7.856-4.096 9.17-2.95 4.606 4.018-7.21 11.004-24.636 15.304-36.642 9.042-3.419-1.783-8.6-3.242-11.516-3.242h-5.3l3.92 6.717c4.315 7.392 12.39 13.93 19.111 15.473 3.837.881 3.632 1.289-1.769 3.509-20.602 8.47-43.758-7.599-45.235-31.391-.303-4.866-3.351-12.987-7.232-19.263-3.69-5.967-7.902-13.612-9.36-16.988-3.937-9.114-7.816-5.926-9.552 7.85-.845 6.713-4.996 20.559-9.222 30.77-9.44 22.805-9.938 33.726-2.085 45.746 3.08 4.715 8.097 10.429 11.15 12.697 4.824 3.586 6.502 3.781 12.832 1.492 4.006-1.448 8.07-2.147 9.03-1.553.961.594 1.923 14.956 2.137 31.917.215 16.96.942 31.389 1.617 32.063.674.675 3.38-1.39 6.013-4.587 13.003-15.795 38.421-11.926 38.421 5.848 0 18.558-25.677 31.114-39.367 19.25-3.256-2.82-3.63-1.603-4.346 14.176-.6 13.226-1.76 18.341-4.958 21.875-2.296 2.537-4.735 3.759-5.42 2.716-2.673-4.074-10.043-6.328-14.807-4.53-6.037 2.28-6.221 7.191-.542 14.412 5.639 7.168 5.474 9.76-1.115 17.592-5.15 6.12-21.155 13.38-29.499 13.38-3.582 0-3.56-.84.387-14.64zm88.274-73.363c13.373-15.196-3.032-28.164-18.821-14.879-7.472 6.287-8.659 13.79-3.066 19.383 4.885 4.885 15.557 2.689 21.887-4.504zm-109.162-112.18c11.624-10.228 8.448-25.497-5.304-25.497-11.867 0-20.041 18.711-11.782 26.97 4.755 4.756 10.58 4.254 17.086-1.472zm34.708-56.162c11.005-8.656 11.584-20.206 1.29-25.715-5.695-3.048-14.71 1.272-18.682 8.955-4.175 8.074-3.895 11.902 1.248 17.045 5.524 5.524 8.833 5.466 16.144-.285zm19.506-72.565c5.288-5.288 4.108-13.586-2.933-20.627-10.066-10.066-21.867-7.66-21.867 4.458 0 13.559 16.592 24.376 24.8 16.169zm-31.179-129.71 13.973-14.853-6.51-5.208c-8.517-6.815-9.707-6.6-10.06 1.823-.213 5.1-.555 5.7-1.235 2.17-1.26-6.54-3.781-6.15-9.171 1.42-5.571 7.824-5.59 8.887-.148 8.887 2.387 0 4.34.977 4.34 2.17 0 1.194-2.798 2.17-6.217 2.17-6.95 0-17.653-7.331-17.653-12.092 0-4.35 5.857-3.865 8.456.7 2.007 3.526 2.518 3.445 7.146-1.131 4.667-4.615 4.775-5.302 1.687-10.802-2.993-5.333-2.941-6.571.557-13.433 4.313-8.46 4.611-10.767 1.939-14.984-2.566-4.048-14.774 2.325-17.995 9.394-2.206 4.842-2.69 4.968-7.35 1.915-4.569-2.993-5.367-2.89-9.48 1.222-5.866 5.867-5.705 10.527.392 11.393 6.117.868 6.44 6.98.416 7.842-6.89.986-16.209-7.47-15.823-14.359l.325-5.81.904 5.968c.497 3.282 1.572 5.96 2.387 5.95 1.4-.015 11.249-15.92 11.249-18.164 0-.576-2.197-1.434-4.883-1.906-4.416-.777-4.173-1.182 2.543-4.235l7.424-3.375-11.764-6.739-11.765-6.738-1.32 8.11c-.725 4.46-1.458 6.458-1.627 4.44-.596-7.103-4.264-5.992-8.772 2.656-6.062 11.631-5.843 13.3 1.411 10.712 5.676-2.025 5.756-1.965 1.628 1.235-2.72 2.109-6.365 2.86-9.765 2.014-10.9-2.714-17.9-14.033-8.68-14.033 2.387 0 4.34.977 4.34 2.17 0 4.5 6.708 1.939 9.19-3.51 2.278-4.998 1.997-6.16-2.342-9.672-4.005-3.244-4.5-4.797-2.634-8.283 2.819-5.266 3.025-19.059.31-20.737-2.571-1.588-14.768 8.663-16.391 13.777-.87 2.739-2.78 3.642-6.284 2.972-5.863-1.12-12.775 4.742-11.766 9.98.374 1.942 2.604 3.532 4.955 3.534 2.468.002 4.613 1.743 5.074 4.117.695 3.585-.136 3.933-6.475 2.715-4-.77-9.47-3.895-12.155-6.947-6.055-6.88-6.458-11.745-.53-6.379 4.76 4.306 4.8 4.294 8.374-2.582 3.988-7.672 3.12-11.275-2.419-10.036-4.216.944-4.022.495 1.422-3.288l6.304-4.382-8.197-3.424c-4.508-1.884-8.52-3.425-8.915-3.425-.986 0-14.258 41.66-13.48 42.316 5.46 4.601 129.003 74.11 129.87 73.069.67-.803 7.505-8.144 15.19-16.313zm-203.74-5.012c7.334-6.638 3.36-24.7-5.41-24.586-6.78.088-13.32 10.675-11.091 17.952 3.25 10.61 9.383 13.076 16.5 6.634zm107.96-183.01 13.935-3.49-7.7-4.544c-15.087-8.9-23.75-8.238-26.707 2.045-3.908 13.596-3.982 13.017 1.439 11.194 2.803-.943 11.368-3.285 19.032-5.205zM691.597 868.214c-25.644-5.267-39.568-9.534-61.384-18.813-16.06-6.83-18.668-7.365-24.376-5-3.66 1.515-9.584 2.048-13.858 1.247-9.36-1.756-20.817-14.177-20.817-22.567 0-4.413-3.403-9.323-13.11-18.913-15.298-15.115-30.957-37.097-41.688-58.522-6.831-13.637-21.152-54.125-21.152-59.8 0-1.371 2.845-1.708 7.331-.866 4.766.894 9.59.208 13.782-1.96 4.75-2.457 7.09-2.698 8.874-.913 3.603 3.602 19.343-1.732 26.64-9.03l5.992-5.992 5.786 18.666c7.658 24.702 18.33 44.652 33.472 62.573 11.56 13.68 12.945 14.64 20.305 14.053 4.345-.346 10.899.922 14.565 2.818 7.572 3.916 15.133 14.989 15.145 22.18.011 6.028 6.47 9.432 45.896 24.185 35.682 13.352 73.468 23.371 95.762 25.391l16.42 1.488-5.851 4.923c-9.918 8.346-31.186 19.937-45.31 24.695-16.631 5.602-35.68 5.65-62.424.157zm33.838-13.36c3.562-6.656 1.486-15.498-4.314-18.374-6.504-3.225-13.52-.841-16.86 5.73-6.832 13.439 14.069 25.92 21.174 12.643zm-120.802-14.548c.648-1.048-2.712-4.48-7.467-7.625-4.754-3.147-8.644-6.78-8.644-8.075 0-2.545 6.556-17.115 7.701-17.115.383 0 3.265.977 6.405 2.17 6.422 2.442 14.104-.395 14.104-5.208 0-1.588-1.911-5.316-4.248-8.286l-4.247-5.4 6.675-6.828c7.863-8.043 10.888-8.392 19.513-2.25 7.795 5.55 10.213 4.018 5.356-3.395-9.411-14.363-22.096-15.084-38.95-2.215-5.434 4.148-12.378 7.542-15.434 7.542-6.25 0-6.564.614-3.126 6.119 1.907 3.054 1.441 5.826-2.17 12.904-2.53 4.958-4.599 12.858-4.599 17.556 0 7.061 1.33 9.71 7.67 15.277 7.473 6.561 18.814 9.113 21.461 4.83zm62.01-2.434c2.386-2.387 4.34-6.475 4.34-9.083 0-5.927-8.088-14.788-13.498-14.788-5.416 0-14.713 9.536-14.713 15.092 0 6.1 7.546 13.119 14.105 13.119 2.984 0 7.378-1.953 9.765-4.34zm-93.854-66.507c9.847-6.75 17.87-12.858 17.83-13.571-.039-.714-1.973-3.58-4.298-6.37l-4.227-5.072-5.8 4.563c-5.548 4.363-5.986 4.396-10.01.754-4.134-3.741-4.085-3.913 2.782-9.646l6.991-5.836-4.297-5.463-4.296-5.463-18.766 13.058c-10.322 7.181-18.766 13.644-18.766 14.361 0 2.266 7.086 9.241 9.388 9.241 1.213 0 3.99-1.616 6.174-3.591 3.701-3.35 4.27-3.318 8.46.474l4.492 4.066-7.167 5.85c-7.084 5.781-7.12 5.901-3.07 10.375 2.252 2.49 4.677 4.53 5.387 4.535.71.004 9.347-5.515 19.193-12.265zm-23.512-38.643c7.948-4.11 13.964-16.656 12.086-25.205-2.158-9.825-11.028-19.016-19.974-20.694-16.925-3.175-31.782 13.244-26.858 29.68 4.831 16.126 20.648 23.509 34.746 16.219zm-19.817-17.624c-3.395-7.453.07-12.852 8.251-12.852 4.798 0 6.691 1.336 8.274 5.838 4.141 11.773-11.359 18.352-16.525 7.014zm596.736 154.234c-22.124-12.465-6.925-40.493 18.198-33.557 23.274 6.427 21.307 33.744-2.592 35.98-6.21.582-11.818-.29-15.606-2.423zm24.445-7.224c7.09-5.741 4.413-14.804-5.608-18.991-8.856-3.7-17.217-2.17-21.493 3.935-8.662 12.366 14.519 25.244 27.1 15.056zm104.117-25.763c-24.84-12.823-21.922-47.295 4.677-55.264 11.114-3.33 26.466 2.372 32.345 12.013 4.956 8.127 5.437 23.002 1.02 31.543-6.682 12.922-24.856 18.515-38.042 11.708zm28.874-11.2c4.867-4.866 6.403-8.47 6.586-15.45.206-7.881-.847-10.1-7.836-16.504-8.89-8.147-15.63-9.247-25.474-4.157-8.48 4.385-13.044 11.441-13.044 20.168 0 9.516 3.085 14.923 11.531 20.21 9.146 5.724 19.866 4.105 28.237-4.266zm-194.205.727c-11.139-6.049-13.014-24.839-3.666-36.724 3.286-4.177 6.346-5.527 12.534-5.527 19.321 0 25.85 28.33 9.494 41.197-6.518 5.127-10.447 5.353-18.362 1.054zm16.799-7.704c6.05-6.686 5.515-20.832-.99-26.098-6.237-5.051-7.268-5.075-13.098-.311-7.01 5.73-8.146 17.628-2.383 24.956 5.602 7.122 10.916 7.59 16.47 1.453zm-322.403 5.547c-28.551-5.112-43.405-9.824-43.353-13.752.139-10.343 8.568-21.894 22.311-30.573 7.71-4.87 21.41-16.591 30.447-26.05 25.566-26.76 42.118-64.344 46.153-104.802l1.461-14.647h-137.31v153.63l14.75 1.481 14.748 1.481-4.338 9.356-4.339 9.356-22.208-7.79c-12.215-4.285-21.734-8.56-21.154-9.498.58-.939 4.18-2.517 8-3.507l6.946-1.8V634.976l-69.827-.573-69.828-.572-.945 4.912c-.655 3.41-1.034 2.646-1.24-2.492-.162-4.073-3.146-11.885-6.63-17.36-3.575-5.62-6.984-14.681-7.827-20.805-.82-5.968-3.38-14.147-5.688-18.176-2.308-4.03-3.913-7.499-3.566-7.71.347-.21 3.316-2.063 6.598-4.116 3.283-2.054 5.968-2.743 5.968-1.532 0 1.211-1.953 3.421-4.34 4.912-5.82 3.635-5.467 5.686 1.428 8.307 4.948 1.881 6.646 1.353 11.935-3.714 7.572-7.254 8.006-15.632 1.145-22.078-6.244-5.866-11.29-5.938-21.018-.302l-7.595 4.4 6.404-5.38 6.405-5.382-6.003-2.282c-8.755-3.329-11.577-2.854-15.47 2.6-3.422 4.793-3.543 4.806-6.634.67-4.426-5.923-4.069-8.182 4.083-25.827 14.9-32.25 41.191-65.705 65.069-82.8 6.667-4.775 12.17-9.61 12.227-10.748.057-1.136-2.988-5.257-6.768-9.156-5.655-5.835-6.871-8.825-6.871-16.893 0-6.327 1.36-11.305 3.834-14.04 3.66-4.044 3.662-4.762.033-15.76-6.06-18.368-17.729-42.713-25.965-54.178l-7.6-10.578 11.413-5.08c6.277-2.794 11.684-4.867 12.016-4.608.332.26-.4 3.113-1.627 6.34-2.668 7.015-2.972 22.945-.44 22.945 2.172 0 9.838-8.261 12.737-13.724 1.768-3.333 2.78-2.114 6.397 7.706l4.297 11.664-9.293-.11c-11.638-.14-12.603 2.641-3.13 9.025 12.795 8.623 36.35 5.39 44.394-6.094 3.005-4.29 3.086-5.65.561-9.452-4.247-6.396-12.707-5.822-14.51.985-1.382 5.223-1.577 5.103-5.22-3.22-7.808-17.831 3.541-27.171 15.906-13.089 3.756 4.279 6.83 8.722 6.83 9.874 0 5.09 3.93 1.437 5.18-4.815 2.456-12.282 11.874-18.568 18.256-12.186 2.82 2.82 3.661 23.436.956 23.436-.906 0-2.906-2.015-4.444-4.478-1.753-2.807-4.578-4.223-7.574-3.797-3.885.553-4.779 2.1-4.779 8.275 0 6.51 1.085 8.136 7.595 11.389 14.559 7.273 37.084 2.7 45.598-9.259 3.963-5.564 5.936-15.15 3.12-15.15-2.093 0-14.962 6.928-18.338 9.872-2.855 2.49-3.255.88-3.255-13.127 0-14.007.4-15.618 3.255-13.127 5.212 4.544 17.642 10.313 19.094 8.861 2.025-2.025-6.28-16.196-12.237-20.883l-5.272-4.146h44.837l-6.675 7.052c-14.948 15.792-13.534 23.114 2.633 13.64l9.7-5.685v28.141l-9.222-5.273c-12.383-7.08-15.515-6.932-13.643.642 3.588 14.518 21.27 23.944 40.08 21.365 14.894-2.041 24.248-13.212 17.072-20.388-3.984-3.984-9.816-3.11-13.4 2.006-3.164 4.518-3.256 4.464-4.606-2.735-.758-4.04-.361-10.02.882-13.29 4.244-11.163 15.71-5.787 21.012 9.85l2.37 6.99 3.643-7.032c4.605-8.889 12.785-14.39 18.636-12.532 3.443 1.093 4.43 3.215 4.37 9.402-.042 4.396-1.368 10.321-2.946 13.168l-2.87 5.176-1.435-5.719c-1.92-7.652-11.25-8.014-14.642-.568-7.245 15.901 26.158 28.043 45.041 16.373 10.851-6.707 9.788-11.517-2.245-10.16l-9.553 1.076 3.535-10.017c1.945-5.51 3.743-10.364 3.995-10.788.253-.423 3.547 2.747 7.322 7.046 3.774 4.298 7.74 7.273 8.813 6.61 2.773-1.714 2.252-11.51-1.111-20.932l-2.873-8.047 7.85 3.4c4.318 1.87 9.56 3.896 11.648 4.503 2.089.606 3.798 1.457 3.798 1.892 0 .434-3.613 6.423-8.03 13.309-9.223 14.383-26.618 53.82-26.579 60.26.016 2.387 1.46 6.235 3.213 8.552 1.752 2.317 3.186 8.417 3.186 13.556 0 7.592-1.394 10.887-7.43 17.568l-7.43 8.224 15.219 11.855c16.116 12.554 37.07 35.683 47.233 52.133 5.354 8.668 5.746 10.401 3.153 13.947-1.628 2.227-3.573 3.435-4.323 2.686-1.04-1.04-38.24 15.98-41.682 19.07-.376.339 2.35 6.626 6.058 13.972 5.89 11.668 7.35 13.175 11.535 11.911 7.773-2.346 8.618-4.41 4.817-11.76-1.98-3.83-3.284-7.23-2.898-7.559.387-.328 3.513-2.039 6.947-3.801l6.244-3.204 8.484 16.014c4.667 8.808 7.815 17.2 6.996 18.65-3.97 7.031-11.104 12.66-18.604 14.68-6.443 1.734-8.272 3.293-8.246 7.028.06 8.746 2.38 10.135 12.44 7.45 12.062-3.22 28.747 2.347 40.078 13.371l8.066 7.848.072 20.873c.162 47.351-14.226 95.73-40.523 136.257-19.687 30.341-47.385 56.823-59.01 56.42-3.102-.108-12.965-1.508-21.916-3.11zm44.588-24.277 9.796-10.223-16.31-16.31-16.31-16.31-10.84 10.677c-10.182 10.03-10.624 10.914-7.29 14.598 4.578 5.059 7.78 4.952 12.64-.419 2.161-2.387 4.936-4.34 6.168-4.34 1.232 0-.371 2.726-3.563 6.057l-5.802 6.056 4.765 4.765 4.765 4.765 6.599-5.939 6.599-5.939-6.175 6.846c-6.035 6.69-6.084 6.944-2.17 11.211 2.203 2.402 4.754 4.448 5.669 4.548.915.099 6.072-4.42 11.46-10.043zm23.45-27.648c7.22-6.691 7.651-16.601.993-22.804-5.654-5.268-8.153-5.439-18.186-1.247-4.183 1.748-6.987 2.176-6.23.951.757-1.224 3.723-3.119 6.59-4.209 7.037-2.675 6.56-5.346-1.552-8.706-7.672-3.178-11.18-1.756-17.914 7.264-3.546 4.75-3.862 6.661-1.835 11.11 1.347 2.955 4.995 7.041 8.107 9.08 5.308 3.479 6.153 3.483 13.661.069 6.362-2.893 7.139-2.962 3.79-.338-2.316 1.816-5.001 3.301-5.967 3.301-3.623 0-1.55 3.462 4.212 7.035 7.668 4.754 7.565 4.765 14.331-1.506zm20.665-32.934c3.068-6.733 3.542-6.06-7.887-11.178l-9.079-4.064 11.33-3.633c13.898-4.457 15.795-5.687 17.572-11.39 1.253-4.02-.858-5.402-19.568-12.807-20.052-7.936-21.101-8.125-23.897-4.302-4.68 6.4-3.51 8.78 6.298 12.808l9.223 3.787-12.63 4.369c-8.728 3.019-13.361 5.975-15 9.57-1.303 2.862-1.967 5.507-1.475 5.878 1.997 1.506 37.956 16.23 40.15 16.44 1.3.125 3.533-2.34 4.963-5.478zm18.377-54.513c.718-4.475 1.908-11.146 2.645-14.823l1.341-6.687-22.014-3.866c-12.108-2.127-22.694-3.19-23.526-2.363-2.09 2.08-6.526 27.216-4.955 28.073.7.381 3.96 1.336 7.241 2.12 5.152 1.232 5.989.754 6.12-3.497.084-2.708 1.058-6.877 2.163-9.264 1.443-3.114 1.665-1.811.787 4.615-1.185 8.678-1.016 8.985 5.484 9.939 5.801.852 6.871.229 7.93-4.615 2.058-9.417 3.105-10.376 2.106-1.93-.984 8.323.409 9.954 8.768 10.265 3.688.137 4.865-1.45 5.91-7.967zm-1.617-32.583c4.536-3.029 7.377-11.11 7.377-20.982v-9.907H848.65l.68 7.052c.62 6.439 1.388 7.111 8.818 7.726 5.982.495 8.137 1.66 8.137 4.4 0 7.159 6.377 13.374 13.686 13.339 3.81-.018 8.004-.751 9.317-1.628zM695.938 544.92v-81.375l-9.765.652c-30.577 2.04-66.627 21.487-88.699 47.85-21.875 26.127-38.318 65.72-40.832 98.318l-1.317 17.077 70.307-.573 70.306-.573zm-53.198 69.378c-1.424-2.66-1.415-4.467.027-5.359 1.197-.74 2.176-.31 2.176.954s1.465 2.298 3.255 2.298c4.08 0 4.124-1.612.155-5.58-3.962-3.963-10.944-3.95-18.265.034-12.777 6.953-47.018 11.308-54.167 6.89-2.167-1.34-2.22-2.428-.236-4.82 1.729-2.082 3.398-2.395 5.126-.962 2.984 2.477 18.562.454 18.562-2.41 0-1.067-2.197-2.859-4.883-3.982-7.572-3.167-12.477-7.747-12.477-11.652 0-1.957-.814-3.558-1.808-3.558-.995 0-1.809-1.302-1.809-2.894a2.902 2.902 0 0 1 2.894-2.893c1.591 0 2.893 1.639 2.893 3.642 0 4.676 6.774 10.825 11.925 10.825 2.194 0 3.417-.572 2.719-1.27-.698-.698-.277-4.116.936-7.595 1.598-4.585 3.618-6.325 7.341-6.325 6.754 0 10.665 7.03 7.354 13.217-2.307 4.31-1.957 4.509 6.976 3.972 19.818-1.192 54.112.225 52.9 2.186-.685 1.108.967 2.328 3.67 2.712 4.002.568 4.974 2.16 5.235 8.574.27 6.638-.304 7.713-3.647 6.839-4.955-1.296-7.503-7.12-3.116-7.12 1.753 0 3.187-1.587 3.187-3.527 0-2.792-1.411-3.243-6.78-2.17-3.73.746-8.679 1.357-10.997 1.357-3.096 0-3.88 1.053-2.956 3.967.984 3.1-.413 4.48-6.392 6.316-6.651 2.041-7.93 1.824-9.798-1.666zm-33.626-22.99c2.05-3.13 2.652-5.026 1.334-4.211-1.317.814-2.395.446-2.395-.818 0-5.636-3.7-1.604-3.865 4.212-.226 7.951.204 8.023 4.926.817zm72.72 2.31c0-1.861.992-2.77 2.205-2.02s1.643 2.272.957 3.383c-1.86 3.01-3.163 2.448-3.163-1.363zm-51.538-2.394c-1.492-.602-2.713-2.11-2.713-3.35 0-1.526.904-1.505 2.796.065 1.538 1.277 9.105 2.673 16.817 3.103l14.022.782-14.105.247c-7.758.136-15.325-.246-16.817-.848zm18.987-7.243c0-1.194 4.883-2.17 10.85-2.17 5.968 0 10.85.976 10.85 2.17 0 1.193-4.882 2.17-10.85 2.17-5.967 0-10.85-.977-10.85-2.17zm27.803-1.483c1.567-.627 3.439-.55 4.16.171.72.722-.56 1.234-2.848 1.14-2.528-.104-3.043-.618-1.312-1.31zm-31.645-8.84c-1.467-.489-2.668-2.291-2.668-4.005 0-2.268 1.528-2.732 5.621-1.704 5.289 1.327 5.45 1.137 2.733-3.214-3.392-5.432-13.02-6.206-17.034-1.37-1.486 1.79-4.453 3.256-6.595 3.256-2.141 0-4.289 1.187-4.773 2.639-.571 1.714-6.148 2.688-15.913 2.78-16.218.15-21.991-2.418-16.649-7.408 2.43-2.27 3.533-2.344 4.782-.323 1.105 1.786 4.282 2.128 9.93 1.069l8.307-1.558-5.94-5.11c-3.268-2.81-7.32-5.11-9.007-5.11-1.92 0-2.567-1.298-1.733-3.473.734-1.911.09-4.243-1.43-5.183-1.521-.94-2.094-2.794-1.274-4.12 2.326-3.764 5.575-2.837 5.575 1.59 0 4.401 6.414 11.187 10.574 11.187 1.45 0 2.391-1.221 2.091-2.713-1.129-5.617 2.69-14.648 6.193-14.648 6.619 0 11.472 6.36 9.27 12.15l-1.98 5.21h19.082c10.713 0 23.93 1.44 30.133 3.282 9.815 2.915 10.982 3.893 10.449 8.751-.75 6.83-2.25 8.385-6.513 6.749-3.99-1.531-4.534-5.998-.636-5.219 1.492.298 2.712-.922 2.712-2.712s-1.708-3.174-3.797-3.075c-2.089.1-7.281.344-11.539.543-6.36.297-7.522 1.051-6.514 4.227.89 2.808-.418 4.487-4.78 6.134-3.305 1.247-7.21 1.867-8.677 1.378zm-23.307-25.75c2.051-3.13 2.652-5.026 1.334-4.212-1.317.815-2.395.446-2.395-.817 0-1.264-.863-2.299-1.917-2.299-2.166 0-4.584 10.136-2.836 11.885 1.683 1.682 1.772 1.612 5.814-4.557zm61.87 4.043c0-1.305-1.71-2.819-3.798-3.365-3.424-.894-3.436-1.017-.128-1.244 3.915-.268 7.395 3.512 5.228 5.68-.717.716-1.303.234-1.303-1.07zm-45.41-5.752c-1.783-2.148-1.846-3.492-.212-4.502 1.28-.791 2.06-.146 1.732 1.435-.431 2.08 3.603 3.217 14.594 4.118l15.19 1.244-14.382.383c-10.114.27-15.135-.525-16.922-2.678zm12.31-5.937c1.816-1.817 6.183-1.898 16.166-.302l13.678 2.186-16.166.302c-12.158.228-15.55-.315-13.678-2.186zm-42.412-11.89c-3.027-3.247 1.466-8.073 4.879-5.24 2.894 2.401 20.722.306 20.722-2.435 0-1.074-1.465-2.515-3.255-3.202-1.79-.687-3.255-3.016-3.255-5.176s-1.218-4.333-2.707-4.83c-1.659-.552-.792-1.926 2.24-3.549 4.65-2.488 4.864-2.315 3.557 2.892-1.059 4.218-.559 5.538 2.1 5.538 1.92 0 3.49-1.418 3.49-3.153 0-1.734 1.133-5.64 2.519-8.68 4.467-9.805 15.601-5.528 13.461 5.172-1.07 5.355-.604 5.747 7.217 6.058 4.6.184 11.237 1.427 14.752 2.763 5.084 1.933 5.74 2.84 3.208 4.442-1.75 1.106-4.956 2.027-7.125 2.045-2.968.025-3.599 1.121-2.55 4.428.768 2.417.59 4.254-.396 4.083-.985-.171-2.279-.123-2.876.107-6.025 2.322-10.85 1.811-10.85-1.15 0-2.4 1.265-2.985 4.34-2.01 5.098 1.618 5.586-.15 1.24-4.495-4.025-4.025-7.75-3.93-10.825.277-1.358 1.856-3.907 3.662-5.664 4.012-1.758.35-4.877 1.365-6.931 2.257-6.02 2.612-24.81 2.506-27.29-.154zm37.77-21.97c3.338-4.396 3.93-7.87 1.037-6.081-1.092.674-2.48 0-3.084-1.5-.691-1.714-1.163-1.383-1.27.894-.095 1.991-.764 5.165-1.489 7.053-1.763 4.594 1.213 4.368 4.807-.365zm31.231 22.243c-2.212-2.665-2.064-3.255.82-3.255 1.936 0 3.52-1.464 3.52-3.255 0-1.79.992-3.255 2.205-3.255 1.212 0 1.981 2.93 1.708 6.51-.538 7.063-3.97 8.417-8.253 3.255zm8.66-19.504c2.845-3.43 2.133-4.009-7.575-6.157-3.429-.759-3.178-1.013 1.194-1.212 3.043-.138 6.629.844 7.968 2.183 2.727 2.727 1.331 8.415-2.064 8.415-1.278 0-1.078-1.356.476-3.229zm-27.925-10.557c-1.876-2.26-1.167-4.307 3.071-8.88 3.03-3.27 6.865-5.424 8.523-4.788 1.658.636 4.181-.25 5.608-1.97 1.427-1.719 3.696-3.09 5.042-3.048 3.806.122-10.124 10.75-14.105 10.762-1.943.007-4.738 1.464-6.212 3.24-2.847 3.43-2.134 4.009 7.573 6.157 3.327.736 3.009 1.019-1.361 1.212-3.136.138-6.799-1.07-8.14-2.685zm182 122.83c-.06-21.58-9.095-53.737-22.326-79.453-10.974-21.33-36.62-49.048-56.055-60.583-13.68-8.119-34.417-15.362-50.176-17.527l-8.138-1.118v164.648h136.711l-.017-5.968zm-76.663-3.652c-1.031-2.688-4.871-3.401-18.3-3.401-9.763 0-18.04 1.046-19.452 2.458-1.452 1.452-4.071 1.755-6.401.74-2.169-.944-4.796-1.522-5.837-1.284-1.042.238-1.34-1.008-.665-2.77.677-1.762.064-3.595-1.36-4.074-1.993-.669-1.97-2.081.1-6.108 1.48-2.88 3.044-13.05 3.475-22.597.43-9.548.61-6.816.397 6.071-.24 14.585.482 23.97 1.915 24.855 1.265.782 12.73 1.467 25.477 1.523 23.103.1 28.558 1.385 24.236 5.708-1.593 1.593-2.673 1.255-3.585-1.121zm49.645-1.083c-.841-1.362.44-2.318 3.104-2.318 6.858 0 7.264-4.271 2.367-24.892-10.826-45.585-39.348-83.052-77.172-101.376-26.886-13.025-25.738-14.495-25.717 32.957.011 22.08-.363 37.216-.83 33.636-.467-3.581-2.281-7.616-4.032-8.966-2.787-2.15-2.77-2.615.135-3.73 2.708-1.039 3.318-5.797 3.318-25.863 0-14.359-.952-25.541-2.29-26.879-1.26-1.26-1.702-4.628-.984-7.486.94-3.744 2.943-5.294 7.165-5.543 3.224-.19 6.352.358 6.953 1.22.6.861 6.462 3.72 13.027 6.355 14.674 5.887 37.666 22.86 47.418 35.004 4.723 5.882 8.422 8.617 10.55 7.8 2.249-.863 2.891-.257 2.05 1.935-.674 1.756 3.049 11.568 8.272 21.805 5.224 10.237 11.24 26.144 13.372 35.35 2.13 9.206 4.703 17.319 5.717 18.029 2.194 1.536-.276 12.814-2.807 12.814-.966 0-3.203.555-4.97 1.233s-3.858.19-4.646-1.085zm-33.184-3.913c5.67-.447 14.946-.447 20.615 0 5.67.447 1.031.812-10.307.812-11.339 0-15.977-.365-10.308-.812zm-59.856-4.192c-.795-.796-1.446-29.22-1.446-63.165v-61.72l5.897 1.48c10.833 2.72 27.612 11.802 40.281 21.805 26.402 20.845 47.12 58.493 52.228 94.91l1.141 8.137h-48.327c-26.58 0-48.978-.651-49.774-1.447zm38.974-3.9c6.334-3.16 16-2.398 16 1.26 0 1.054 8.222 1.917 18.272 1.917h18.273l1.422-6.474c3.217-14.647-17.473-62.967-26.962-62.967-1.279 0-2.168-.732-1.975-1.627 1.812-8.417-22.255-32.194-42.885-42.367-18.365-9.056-20.395-7.068-20.395 19.97 0 11.676.882 19.684 2.17 19.684 1.193 0 2.17 1.953 2.17 4.34 0 2.387 1.22 4.418 2.712 4.512 2.17.137 2.17.39 0 1.266-1.492.602-2.712 2.966-2.712 5.253 0 2.288-.977 4.16-2.17 4.16-3.32 0-2.817 47.188.542 51.004 3.67 4.168 27.23 4.214 35.538.07zm34.086-4.84c-6.39-1.247-8.049-6.455-2.517-7.901 6.291-1.645 3.673-7.009-3.028-6.203-4.113.495-6.965-1.17-11.155-6.51-4.726-6.023-6.246-6.777-9.475-4.699-2.3 1.48-3.682 4.749-3.439 8.13.412 5.715-2.058 7.191-13.427 8.022-7.848.574-9.39-.136-8.654-3.98.4-2.088.801-4.237.893-4.774.091-.537 1.337.195 2.77 1.628 2.532 2.532 12.586 3.722 12.586 1.49 0-.614-1.162-2.976-2.582-5.25-3.583-5.737 1.063-10.958 9.9-11.124 6.143-.115 6.393-.373 2.637-2.713-2.282-1.421-5.995-4.344-8.25-6.494-3.956-3.773-4.49-3.726-15.152 1.342-11.251 5.348-21.274 5.628-16.998.475 1.208-1.456 1.475-3.369.593-4.251-.883-.882.868-.984 3.89-.225 3.804.955 6.976.096 10.304-2.79 5.795-5.027 5.859-5.735 1.01-11.183a5797.923 5797.923 0 0 1-8.186-9.223c-2.413-2.725-4.05-6.664-3.638-8.753.412-2.089-.136-3.798-1.218-3.798-1.082 0-1.967-1.255-1.967-2.79 0-1.534 1.644-2.79 3.653-2.79 2.173 0 3.342 1.351 2.885 3.333-.423 1.833 2.655 6.983 6.84 11.444 7.308 7.79 7.781 7.965 11.944 4.4 5.71-4.889 5.512-9.257-.42-9.257-4.647 0-4.66-.072-.543-3.186 4.118-3.114 4.106-3.187-.542-3.255-7.191-.104-7.67-3.272-.881-5.835 7.099-2.68 10.3-.802 15.933 9.344 2.81 5.063 3.435 9.385 2.423 16.77-1.184 8.639-.59 10.964 4.51 17.65 7.826 10.26 14.425 16.253 17.899 16.253 5.085 0 3.024-5.078-5.69-14.023-4.696-4.82-9.097-11.692-9.78-15.273-1.15-6.014-.937-5.882 2.798 1.744 2.223 4.54 7.241 11.555 11.152 15.59 9.746 10.055 6.8 17.91-4.457 11.885-6.155-3.294-5.372 1.377.922 5.5 2.816 1.846 6.722 2.74 8.68 1.989 1.958-.752 3.636-.53 3.727.493.091 1.023.492 3.565.892 5.649.399 2.083-.204 4.363-1.34 5.065-1.135.702-1.471 3.147-.745 5.433.726 2.287 1.01 4.025.63 3.862-.378-.162-2.803-.708-5.387-1.212zm-232.744-56.446c7.08-4.182 12.847-14.697 12.847-23.425 0-8.928-12.7-20.613-22.402-20.613-9.546 0-19.764 8.132-23.164 18.434-1.988 6.022-1.806 8.81.952 14.624 6.33 13.34 19.856 18.016 31.767 10.98zm-17.1-14.092c-6.205-6.206-.494-15.679 8.67-14.38 9.173 1.3 6.934 16.984-2.425 16.984-2.002 0-4.812-1.171-6.244-2.604zm292.108-26.892c9.785-19.448 11.106-23.454 8.751-26.542-1.525-2-2.853-3.847-2.951-4.105-.098-.257-11.116 2.782-24.484 6.755-13.368 3.972-24.306 6.711-24.306 6.086s5.511-8.459 12.247-17.409c14.798-19.66 14.229-23.528-3.324-22.566l-11.093.607v-7.61c0-5.748-1.344-8.49-5.493-11.209-3.021-1.98-5.818-3.222-6.215-2.762-3.162 3.663-23.543 33.33-24.36 35.459-.572 1.49 1.435 4.332 4.46 6.314 5.43 3.559 5.58 3.493 11.889-5.216l6.389-8.82.697 6.08c.603 5.257 1.531 5.99 6.862 5.424l6.164-.656-5.97 7.827-5.97 7.827 10.656 9.64c7.358 6.658 12.153 9.404 15.492 8.872 6.245-.994 12.584 7.8 9.54 13.238-1.486 2.656-.863 5.364 2.237 9.717 2.364 3.32 4.963 6.017 5.777 5.995.814-.023 6.666-10.348 13.005-22.946zm-247.995 3.389c4.704-5.198 4.871-4.98-16.31-21.343-13.062-10.09-14.357-10.626-17.903-7.417-2.103 1.903-3.823 4.63-3.823 6.06 0 2.364 29.729 26.915 32.756 27.05.71.031 3.086-1.926 5.28-4.35zm19.382-19.367c3.716-4.106 3.517-4.624-6.093-15.873-9.915-11.605-9.926-11.637-5.621-15.942s4.303-4.323-.623-8.883l-4.936-4.569-14.105 12.74-14.105 12.739 4.806 4.827c4.598 4.617 4.988 4.662 9.005 1.026 4.054-3.669 4.554-3.42 14.479 7.19 5.653 6.044 10.97 10.99 11.816 10.99.845 0 3.265-1.91 5.377-4.245zm63.235-25.627c2.365-1.579 7.377-9.937 7.377-12.301 0-.675-1.928-1.228-4.286-1.228-3.738 0-4.007-.734-2.105-5.737 5.256-13.825-6.893-28.983-23.228-28.983-7.748 0-10.881 1.303-16.955 7.053-10.637 10.07-11.155 21.535-1.462 32.383 4.772 5.341 8.672 7.295 16.817 8.424 15.199 2.107 21.124 2.204 23.842.39zm-30.236-17.146c-3.161-3.16-1.35-13.642 2.736-15.829 8.39-4.49 17.642 4.593 13.177 12.936-2.265 4.232-12.68 6.126-15.913 2.893zm97 10.67c3.383-11.808 7.963-39.888 6.81-41.755-.744-1.203-4.035-2.188-7.314-2.188-5.774 0-6.076.6-9.637 19.175-5.171 26.977-5.022 28.565 2.688 28.565 4.2 0 6.734-1.291 7.452-3.797zm-28.963-1.65c8.975-4.642 10.807-9.394 10.807-28.045V408.21h-15l-.638 15.733c-.585 14.436-1.04 15.79-5.52 16.426-4.694.666-4.883.06-4.883-15.733V408.21h-15.19v16.877c0 18.07 2.88 25.182 11.625 28.711 6.942 2.802 11.762 2.513 18.799-1.125zm-62.974-48.846c11.088-3.144 25.266-4.981 44.485-5.764 35.871-1.46 63.041 3.564 88.97 16.452l17.36 8.628 7.053-6.807c14.001-13.514 6.647-28.286-17.504-35.16-28.782-8.193-111.224-10.574-152.299-4.398-44.488 6.689-60.015 23.399-38.57 41.506l5.507 4.65 14.362-7.247c7.898-3.985 21.685-9.323 30.636-11.86zm6.552 367.427c-2.41-1.688-4.382-4.444-4.382-6.124 0-3.995 7.92-8.363 9.762-5.385.74 1.197.31 2.176-.954 2.176s-2.298 1.533-2.298 3.406c0 4.82 9.514 3.108 10.465-1.882 1.147-6.018-3.73-10.204-11.888-10.204-15.052 0-39.82-16.9-53.14-36.26-8.115-11.795-14.868-31.158-14.907-42.742-.043-13.067-2.058-18.648-6.733-18.648-4.87 0-5.492-6.107-.804-7.906 1.805-.693 4.64-.133 6.299 1.244 2.282 1.894 3.223 1.883 3.865-.044.596-1.788 3.087-1.342 8.349 1.491 10.345 5.572 33.695 5.103 50.696-1.02 20.626-7.427 26.82-6.168 30.634 6.227.916 2.979 3.138 6.493 4.937 7.808 3.724 2.723 1.797 7.39-3.053 7.39-2.77 0-3.184 6.264-2.88 43.662.194 24.015-.51 44.277-1.565 45.028-1.055.751-3.039 3.922-4.41 7.046-2.978 6.792-11.759 9.104-17.993 4.737zm-13.964-47.876c-8.083-11.623-19.732-28.678-25.885-37.9-6.153-9.223-12.056-16.791-13.117-16.818-3.507-.09.337 25.741 5.397 36.268 6.036 12.557 23.767 30.321 36.746 36.815 5.25 2.627 9.999 4.324 10.551 3.771.553-.552-5.608-10.514-13.692-22.136zm19.072 7.914c1.193-5.965-1.008-10.173-18.717-35.797-17.828-25.796-20.76-29.038-26.268-29.045-4.637-.007-5.883.816-4.943 3.266 1.873 4.88 45.644 68.142 47.22 68.246.745.049 1.964-2.953 2.708-6.67zm-8.12-50.138c-11.97-17.389-13.79-19.13-18.703-17.896-2.994.75-5.799 1.722-6.234 2.157-.803.803 25.704 39.993 32.04 47.371 3.286 3.826 3.53 3.614 4.809-4.17 1.225-7.464.157-9.927-11.913-27.462zm15.99 5.088c0-2.238.61-7.12 1.357-10.85 1.073-5.37.622-6.781-2.17-6.781-5.132 0-4.324-5.795 1.002-7.188 5.495-1.437 4.867-8.68-.848-9.782-4.616-.888-23.191 6.396-23.203 9.1-.013 3.049 19.54 29.57 21.802 29.57 1.133 0 2.06-1.83 2.06-4.069zm79.496 76.737c-.976-2.541-.11-2.993 3.839-2.002 4.53 1.137 4.979.658 4.029-4.313-.588-3.076-2.35-5.593-3.916-5.593-3.079 0-8.799 4.99-10.06 8.774-1.018 3.054-24.47 3.838-27.198.91-1.363-1.462-1.12-3.164.697-4.86 1.769-1.653 3.281-1.822 4.122-.462 1.697 2.746 14.092 2.825 14.092.09 0-2.877-9.78-13.132-12.524-13.132-1.243 0-1.75-1.953-1.125-4.34.634-2.426.066-4.34-1.288-4.34-1.333 0-2.424-1.302-2.424-2.893 0-1.591 1.465-2.893 3.256-2.893 1.897 0 3.255 1.971 3.255 4.727 0 5.074 6.997 12.868 9.398 10.467.798-.798 1.452-4.184 1.452-7.523 0-7.91 6.862-12.072 11.786-7.149 2.181 2.182 2.932 5.304 2.085 8.676-1.3 5.18-1.08 5.268 13.018 5.268 11.3 0 14.34.69 14.34 3.255 0 1.79.977 3.255 2.17 3.255 3.949 0 2.254 5.655-3.084 10.297-4.417 3.84-5.456 4.047-6.51 1.299-1.848-4.815-1.674-5.086 3.266-5.086 7.279 0 3.516-5.348-4.303-6.116-6.915-.68-7.022-.555-5.847 6.837.89 5.604.33 7.863-2.19 8.83-5.586 2.144-9.005 1.488-10.336-1.983zm-5.307-26.896c3.302-3.856 3.26-4.211-.603-5.221-2.28-.597-4.145-.28-4.145.705 0 .984-.593 3.334-1.318 5.222-1.814 4.728 1.77 4.311 6.066-.706zm48.355 4.239c.747-1.21-4.835-2.386-13.435-2.83l-14.713-.76 15.732-.426c12.727-.344 15.733.197 15.733 2.83 0 1.79-1.034 3.255-2.298 3.255s-1.723-.931-1.02-2.07zm-22.723-10.95c0-1.194 5.126-2.156 11.392-2.138 8.156.024 10.468.631 8.138 2.137-4.295 2.775-19.53 2.775-19.53 0zm-1.335-11.804c-1.886-4.914.54-6.748 4.537-3.43 4.434 3.679 4.346-.779-.102-5.227-4.287-4.287-8.307-4.34-11.78-.155-1.486 1.79-3.927 3.255-5.425 3.255-1.498 0-3.794 1.29-5.102 2.865-3.373 4.064-32.172 4.263-33.719.233-1.487-3.876 2.477-6.244 5.823-3.477 3.595 2.973 14.552.576 14.552-3.183 0-1.681-2.913-3.64-6.474-4.351-3.561-.713-5.994-2.074-5.405-3.026.588-.952-.239-3.04-1.838-4.638-3.06-3.06-2.505-8.293.878-8.293 1.094 0 1.99 1.919 1.99 4.264s1.948 5.306 4.329 6.58c3.83 2.05 4.733 1.308 7.83-6.433 2.33-5.82 4.85-8.751 7.53-8.751 4.644 0 9.062 6.913 7.32 11.454-.925 2.41 2.057 3.394 13.57 4.482 8.116.766 18.418 1.4 22.893 1.409 4.476.009 8.138.992 8.138 2.185 0 1.194 2.441 2.17 5.425 2.17 5.541 0 6.315 1.887 4.123 10.056-.876 3.263-2.468 4.31-5.395 3.544-4.914-1.285-5.577-4.92-.898-4.92 1.79 0 3.255-1.368 3.255-3.04 0-2.245-2.833-2.955-10.822-2.713-8.922.27-10.625.948-9.704 3.857.687 2.169-.369 3.955-2.74 4.636-2.123.61-5.56 1.808-7.639 2.664-2.533 1.043-4.23.378-5.15-2.017zm-20.566-22.716c4.072-4.073 4.072-4.157 0-5.222-2.277-.596-4.14-.277-4.14.707s-.592 3.334-1.317 5.222c-1.77 4.612.421 4.328 5.457-.707zm59.514 2.959c0-1.738.814-3.16 1.808-3.16.995 0 1.809.919 1.809 2.042 0 1.123-.814 2.545-1.809 3.16-.994.614-1.808-.305-1.808-2.042zm-31.62-2.525c2.699-.519 6.605-.5 8.68.044 2.074.543-.134.968-4.908.944-4.774-.024-6.472-.469-3.772-.988zm-7.992-4.07c.104-2.529.618-3.043 1.311-1.312.627 1.567.55 3.438-.171 4.16-.721.72-1.234-.561-1.14-2.849zm11.764-3.075c.737-1.194 4.643-2.17 8.68-2.17 4.036 0 7.942.976 8.68 2.17.82 1.327-2.552 2.17-8.68 2.17s-9.5-.843-8.68-2.17zm3.797-8.101c-3.211-1.114-3.689-9.26-.542-9.26 1.193 0 2.17.977 2.17 2.17 0 1.194 1.464 2.171 3.255 2.171 4.079 0 4.124-1.611.155-5.58-3.956-3.956-12.201-3.96-20.052-.01-16.186 8.146-47.277 11.8-49.569 5.827-1.797-4.685 2.447-7.97 6.236-4.826 3.394 2.817 14.405 1.127 14.405-2.21 0-1.094-2.198-2.983-4.883-4.198-10.282-4.653-13.635-7.574-12.91-11.246.413-2.088-.297-3.797-1.578-3.797-1.281 0-2.33-1.302-2.33-2.894 0-1.591 1.465-2.893 3.256-2.893 1.793 0 3.255 1.922 3.255 4.281 0 2.355 1.708 5.58 3.797 7.165 4.322 3.28 12.289 4.056 10.408 1.013-2.465-3.988 3.709-13.182 8.852-13.182 5.91 0 10.104 6.383 7.204 10.966-3.533 5.586-2.23 6.533 8.256 5.994 21.627-1.11 50.707.403 49.368 2.57-.758 1.225 1.02 2.17 4.084 2.17 6.687 0 8.395 2.501 6.597 9.665-1.557 6.203-5.548 7.147-9.596 2.27-2.257-2.72-1.944-3.255 1.904-3.255 2.805 0 4.606-1.38 4.606-3.527 0-2.792-1.412-3.244-6.781-2.17-3.73.746-8.655 1.357-10.946 1.357-2.29 0-3.883 1.22-3.54 2.712.342 1.492.047 2.713-.657 2.713-.704 0-2.894 1.34-4.868 2.978-1.973 1.638-3.603 2.126-3.621 1.085-.018-1.041-.751-.82-1.628.494-.877 1.313-2.815 1.964-4.307 1.446zm-33.943-26.077c3.538-4.66 3.87-7.833.608-5.817-1.327.82-3.265.145-4.307-1.5-1.518-2.397-1.9-2.272-1.927.63-.018 1.99-.626 5.165-1.35 7.052-1.795 4.676 3.354 4.407 6.976-.365zm71.676 2.713c.687-1.79 1.633-3.255 2.102-3.255.47 0 .853 1.465.853 3.255 0 1.79-.946 3.255-2.102 3.255s-1.54-1.465-.853-3.255zm-40.949-2.658c3.9-.483 9.76-.473 13.02.022s.07.89-7.091.878c-7.161-.013-9.83-.417-5.929-.9zm-12.516-3.852c0-1.79.383-3.255.853-3.255.469 0 1.414 1.465 2.101 3.255.687 1.79.304 3.255-.852 3.255s-2.102-1.465-2.102-3.255zm20.615-3.255c-.844-1.365 3.74-2.114 12.35-2.018 9.658.108 12.412.702 9.35 2.018-6.07 2.608-20.088 2.608-21.7 0zm96.565-69.568c0-1.264.977-1.695 2.17-.957 1.194.737 2.17 1.771 2.17 2.298 0 .526-.976.957-2.17.957-1.193 0-2.17-1.035-2.17-2.298zm54.654-5.291c-11.903-10.015-10.756-26.285 2.232-31.665 9.417-3.9 22.709 1.009 29.301 10.822 6.122 9.112 6.213 13.225.456 20.544-6.317 8.03-22.62 8.183-31.99.299zm25.636-3.261c4.919-4.92 5.285-7.201 2.106-13.14-2.395-4.476-12.906-10.73-18.033-10.73-1.717 0-5.33 1.788-8.03 3.973-6.607 5.35-4.371 14.225 5.028 19.956 8.868 5.407 13.477 5.393 18.93-.06zm-10.85-132.37c-6.792-6.794-5.619-16.516 3.038-25.173 12.97-12.97 31.73-8.585 31.634 7.393-.106 17.685-23.017 29.434-34.672 17.78zm23.658-7.37c7.05-7.505 5.631-17.338-2.64-18.286-7.743-.888-16.207 4.578-17.97 11.606-2.927 11.662 11.528 16.347 20.61 6.68zM622.935 301.516c-2.99-3.977-6.038-8.867-6.774-10.867-1.598-4.343 1.527-16.658 5.661-22.312 2.783-3.806 3.302-3.543 8.7 4.402 6.645 9.778 7.163 18.537 1.704 28.777l-3.854 7.232zm139.278-2.018c-2.384-5.255-4.355-10.916-4.382-12.58-.051-3.275 11.1-21.918 13.113-21.925 2.38-.007 8.539 15.412 8.48 21.228-.034 3.241-2.945 9.704-6.469 14.362l-6.408 8.468zm-227.856-1.801c-4.149-7.752 2.993-15.191 11.463-11.941 4.743 1.82 6.747 9.128 3.556 12.973-3.727 4.491-12.381 3.896-15.019-1.032zm311.674 2.736c-2.358-2.358-1.65-10.503 1.157-13.31 6.54-6.54 16.22-.048 13.872 9.303-1.056 4.209-2.763 5.454-7.476 5.454-3.359 0-6.758-.651-7.553-1.447zm-315.92-25.465c-5.707-6.876 2.754-16.388 11.568-13.006 2.597.997 3.484 3.402 3.018 8.187-.531 5.462-1.747 6.902-6.27 7.428-3.086.358-6.828-.815-8.317-2.609zm319.7.052c-1.9-4.95-.238-10.376 3.995-13.042 5.567-3.505 11.393.93 11.393 8.673 0 5.494-.878 6.358-7.067 6.955-4.766.459-7.476-.383-8.321-2.586zm-167.978-25.017c0-20.429.216-21.44 4.34-20.362 3.951 1.033 4.34 2.96 4.34 21.497 0 18.915-.308 20.362-4.34 20.362-4.048 0-4.34-1.447-4.34-21.497zm21.7.881c0-11.338.897-20.615 1.993-20.615s3.537-.592 5.425-1.317c2.99-1.147 3.433 1.507 3.433 20.615V271.5h-5.426c-5.406 0-5.425-.073-5.425-20.616zm-406.275-7.49c-10.002-10.219-11.849-13.163-9.488-15.123 2.28-1.893 3.2-1.41 4.136 2.171.676 2.587 2.234 3.967 3.555 3.15 1.294-.799 1.68-2.606.858-4.015-.821-1.41.692-.645 3.362 1.7 4.454 3.91 4.537 4.373.996 5.615-3.366 1.18-3.096 1.852 2.118 5.268 4.844 3.174 6.985 3.455 11.311 1.484 8.496-3.871 5.694-15.158-3.073-12.376-4.994 1.585-6.09-.822-2.162-4.75 1.82-1.819 1.26-3.96-2.17-8.322-4.334-5.51-6.142-11.797-3.391-11.797 3.873 0 9.302 4.94 10.448 9.507.968 3.854 2.435 4.992 5.43 4.208 2.257-.59 4.76-.01 5.562 1.286.822 1.33-.084 2.36-2.076 2.36-2.423 0-3.316 1.533-2.84 4.882.987 6.955 14.836 8.1 21.185 1.751 4.934-4.934 5.493-8.252 2.216-13.144-1.872-2.793-2.749-2.58-6.184 1.506l-4.003 4.761-2.416-5.303c-2.21-4.848-1.955-5.304 2.962-5.304 6.601 0 6.908-2.794.756-6.88-4.504-2.99-4.418-3.131 3.392-5.528l8.014-2.46-1.394 6.35c-1.51 6.876 1.095 8.353 5.46 3.093 3.794-4.571 5.85-4.057 6.959 1.738.842 4.406.234 4.887-5.172 4.094-7.04-1.033-7.89 1.665-2.158 6.852 5.336 4.83 11.622 4.522 18.524-.906 6.313-4.966 7.21-8.922 2.845-12.545-2.098-1.741-3.562-1.696-5.425.168-1.957 1.956-2.553 1.716-2.553-1.029 0-1.97 1.71-4.545 3.798-5.724 3.041-1.716 3.257-2.688 1.085-4.882-2.886-2.914-3.664-11.046-1.285-13.425 2.834-2.834 7.252 3.56 7.252 10.494 0 5.25.925 7.01 3.564 6.787 1.96-.166 4.005.95 4.544 2.479.538 1.529-.333 2.505-1.937 2.17-1.823-.382-2.916 1.411-2.916 4.785 0 6.756 6.294 8.39 12.097 3.138 5.179-4.687 6.07-16.06.923-11.789-2.759 2.29-3.255 1.794-3.255-3.255 0-5.303.397-5.63 3.615-2.978 3.26 2.685 3.469 2.39 2.129-2.99-1.2-4.82-.748-5.968 2.353-5.972 3.423-.004 3.763 1.973 3.142 18.266l-.697 18.27-21.37 6.862c-11.753 3.774-31.164 11.667-43.135 17.54-11.97 5.872-22.06 10.627-22.419 10.565-.359-.063-6.242-5.824-13.072-12.803zm236.292 9.299c-2.358-2.358-1.65-10.503 1.157-13.31 6.54-6.54 16.219-.048 13.872 9.303-1.056 4.208-2.763 5.453-7.476 5.453-3.359 0-6.758-.65-7.553-1.446zm313.288-2.736c-4.148-7.752 2.993-15.192 11.463-11.941 4.743 1.82 6.747 9.128 3.557 12.973-3.728 4.49-12.382 3.896-15.02-1.032zm-301.53-20.548c-1.478-1.783-2.37-5.492-1.98-8.243.554-3.905 2.085-5.002 6.983-5.002 7.735 0 12.175 5.825 8.684 11.393-3.115 4.97-10.292 5.94-13.686 1.852zm290.596-1.31c-3.246-6.065.81-13.02 7.595-13.02 3.051 0 6.25 1.829 7.595 4.34 3.246 6.066-.81 13.02-7.595 13.02-3.051 0-6.25-1.828-7.595-4.34zm-173.232-1.85c-1.633-1.061-2.575-4.6-2.17-8.15.606-5.307 1.683-6.275 6.99-6.275 7.735 0 12.174 5.825 8.684 11.393-2.716 4.332-9.247 5.798-13.504 3.032zm56.052-2.49c-5.12-9.565 8.279-18.091 15.243-9.7 2.106 2.538 2.18 4.58.312 8.68-3.056 6.706-12.192 7.306-15.555 1.02zm-444.065-1.078c-.75-1.955-.36-4.556.864-5.781 3.538-3.537 10.284-1.153 10.284 3.634 0 5.52-9.176 7.287-11.148 2.147zm364.208-8.036c-6.206-6.206-.495-15.679 8.67-14.38 3.692.524 5.189 2.352 5.718 6.984 1.013 8.874-8.183 13.602-14.388 7.396zm104.16 0c-6.205-6.206-.495-15.679 8.67-14.38 3.692.524 5.19 2.352 5.718 6.984 1.013 8.874-8.182 13.602-14.387 7.396zm-179.643-2.518c-.684-1.783-.923-5.51-.53-8.282.559-3.947 2.075-5.04 6.987-5.04 7.733 0 12.174 5.823 8.687 11.392-3.092 4.939-13.481 6.263-15.144 1.93zm118.173-.701c-5.05-3.135-12.744-13.249-12.744-16.754 0-.711 13.208-1.293 29.351-1.293h29.351l-3.416 6.606c-7.092 13.714-29.27 19.678-42.542 11.44zm135.718.701c-.684-1.783-.923-5.51-.53-8.282.559-3.947 2.075-5.04 6.987-5.04 7.733 0 12.174 5.823 8.687 11.392-3.092 4.939-13.481 6.263-15.144 1.93zm-202.613-4.523c-1.431-1.725-2.283-5.387-1.893-8.138.586-4.135 2.026-5.002 8.304-5.002 6.278 0 7.718.867 8.304 5.002.85 5.988-3.044 11.273-8.304 11.273-2.095 0-4.98-1.41-6.41-3.135zm153.042-.275c-6.25-6.25-2.545-13.95 6.712-13.95 4.091 0 9.408 5.35 9.408 9.468 0 2.267-6.96 7.892-9.765 7.892-1.62 0-4.48-1.534-6.355-3.41zm-493.81-1.987c-3.605-4.345-1.203-9.793 4.318-9.793 2.462 0 5.043 1.477 5.736 3.283 1.247 3.25-2.575 9.737-5.736 9.737-.901 0-2.844-1.452-4.317-3.227zm316.257.883c-5.175-3.013-4.846-12.132.542-15.016 9.12-4.88 17.782 7.39 10.416 14.756-3.136 3.137-5.907 3.202-10.958.26zm203.701-.957c-4.432-4.433-4.466-8.46-.108-12.819 4.492-4.492 6.545-4.305 11.939 1.09 4.048 4.047 4.185 4.972 1.368 9.222-4.013 6.054-8.751 6.954-13.199 2.507zM284.95 190.399c-3.615-4.356-.533-10.392 4.909-9.612 5.328.764 7.495 7.958 3.214 10.671-4.022 2.55-5.262 2.388-8.123-1.059zm18.579-.636c-2.75-2.75-1.434-8.944 2.193-10.336 4.703-1.805 9.947 3.439 8.143 8.142-1.392 3.628-7.587 4.942-10.336 2.194zm23.178-.214c-1.374-.877-3.194-6.233-4.044-11.902-1.565-10.449-4.406-13.23-6.893-6.748-1.234 3.216-1.646 3.175-4.272-.415-4.234-5.79-3.607-7.485 2.769-7.485 5.532 0 5.586-.134 2.17-5.348-4.42-6.746-4.402-6.931.835-8.3 3.386-.886 4.34-.067 4.34 3.725 0 6.852 2.283 8.324 6.704 4.323 3.491-3.16 3.992-3.083 6.143.937 3.245 6.064 3.064 6.37-3.082 5.194-7.201-1.376-6.847 1.634 1.085 9.234 6.922 6.632 8.147 11.6 3.906 15.841-2.96 2.96-6.03 3.26-9.66.944zm62.162-12.46c-2.401-2.894-2.307-4.02.574-6.9 4.654-4.654 10.79-2.069 9.9 4.17-.849 5.944-6.569 7.435-10.474 2.73zm279.944.992c0-7.61 13.28-21.592 20.508-21.592.656 0 1.192 5.37 1.192 11.935v11.935h-10.85c-6.129 0-10.85-.99-10.85-2.278zm36.549-9.634c-.69-11.062-.434-11.818 3.596-10.594 7.367 2.24 18.446 15.04 18.446 21.313 0 .656-4.793 1.193-10.65 1.193h-10.649zm-362.773 3.955c-2.75-2.748-1.434-8.943 2.193-10.335 4.61-1.77 10.401 3.821 8.66 8.359-1.319 3.437-8.149 4.68-10.853 1.976zm33.993-10.656c-.722-1.883.285-5.022 2.239-6.975 3.289-3.29 3.814-3.29 7.103 0 4.437 4.436 2.4 10.398-3.552 10.398-2.462 0-5.067-1.54-5.79-3.423zm-16.84-2.157c-4.31-4.31-1.877-10.01 3.919-9.182 5.513.786 7.502 9.263 2.614 11.139-1.819.698-4.759-.183-6.533-1.957zm329.752-17.508c5.28-7.78 6.918-13.827 3.732-13.776-.895.015-5.778 2.4-10.85 5.3l-9.223 5.272V113.22l7.898 5.36c14.111 9.576 17.473 4.7 7.008-10.165-2.23-3.168-4.056-6.342-4.056-7.053 0-.71 6.383-1.292 14.184-1.292h14.183l-5.503 8.099c-5.94 8.741-7.167 15.771-2.752 15.771 1.513 0 6.395-2.476 10.85-5.503l8.099-5.504v28.394l-9.006-6.523c-4.953-3.588-9.836-6.524-10.85-6.524-3.253 0-1.978 6.868 2.672 14.391l4.517 7.31h-26.263z"/></svg>