<svg width="101.221" height="85.058" xmlns="http://www.w3.org/2000/svg"><path style="fill:#000;stroke-width:.32" d="M42.618 84.467c-8.448-1.278-14.507-3.352-21.068-7.21C10.092 70.52 2.523 60.005.507 48.024c-.643-3.824-.643-7.104 0-10.928C3.051 21.978 14.084 9.721 30.72 3.531 36.068 1.541 44.74.004 50.629.001c7.43-.003 15.939 1.736 22.843 4.668 12.596 5.35 21.73 14.524 25.834 25.951 2.587 7.203 2.587 16.677 0 23.88-3.018 8.4-8.883 15.743-16.906 21.162-11.117 7.51-26.234 10.855-39.782 8.805Zm12.902-5.119c12.235-1.15 22.878-6.002 30.537-13.918 4.583-4.738 7.319-9.499 8.891-15.472 1.173-4.455 1.162-10.38-.028-14.918-.981-3.741-3.37-8.721-5.605-11.684-6.04-8.007-15.754-14.005-26.62-16.437-17.092-3.826-34.75.617-46.157 11.614C9.08 25.723 5.675 33.254 5.675 42.56c0 5.47.957 9.475 3.446 14.411 2.398 4.757 7.772 10.68 12.709 14.01 9.598 6.472 21.752 9.49 33.69 8.367ZM41.11 71.76c.4-1.031.336-1.141-.95-1.6-4.477-1.594-5.927-2.255-8.02-3.654-2.386-1.596-4.613-3.948-3.948-4.17.223-.074.042-.59-.476-1.353-1.322-1.949-1.16-2.42.844-2.437 2.033-.017 3.589-.539 5.145-1.726l1.168-.89-.645-.907c-.355-.498-.863-1.428-1.13-2.067-.267-.638-.587-1.107-.712-1.041-3.386 1.777-4.883 2.295-6.946 2.402-2.816.146-4.056-.518-5.016-2.689-.754-1.705-.633-3.285.42-5.471 1.025-2.129 2.985-3.468 8.565-5.853 7.998-3.418 9.951-4.988 9.951-8.001 0-1.698-.231-2.543-.696-2.543-.168 0-.775.357-1.347.794-1.271.969-3.45 1.768-4.797 1.759-.55-.004-1.576-.272-2.28-.595-1.355-.622-2.792-1.958-2.106-1.958.242 0 .138-.324-.27-.843-.366-.464-.664-1.252-.664-1.75v-.908l1.165.79c1.47.998 2.527.996 4.915-.009 3.083-1.298 5.072-.97 6.833 1.123 1.66 1.972 1.845 4.944.461 7.406-1.274 2.266-4.211 4.1-11.176 6.978-2.223.919-4.544 2.085-5.158 2.59-2.239 1.846-2.885 5.047-1.333 6.6.738.737 1.008.808 2.48.652 3.263-.344 6.997-2.457 7.774-4.398.672-1.678 1.846-2.619 4.57-3.66 2.462-.94 3.98-2.335 4.344-3.987.195-.888.335-.984 1.43-.984.668 0 1.701-.096 2.295-.214 1.015-.201 1.051-.179.602.367-.457.555-.368.574 1.92.426 1.458-.094 3.007-.425 3.95-.844 1.218-.54 1.514-.585 1.371-.212-.1.263-.039.477.138.477.62 0 3.487-1.61 4.585-2.573l1.11-.975-.334 1.214c-.838 3.049-3.57 6.365-6.342 7.699-1.562.751-4.715 1.575-7.099 1.853l-1.499.175 1.428 1.49c1.963 2.05 3.101 4.47 3.101 6.595 0 2.038-.672 3.196-2.353 4.053-1.657.845-5.442 1.38-7.986 1.13-2.055-.202-2.128-.184-2.494.62-.845 1.853-.064 3.624 2.321 5.265 2.166 1.49 3.457 1.934 5.621 1.934 2.562 0 4.013.63 4.682 2.033.29.61.437 1.347.326 1.638-.185.482-.266.485-.917.029-.934-.654-1.493-.63-3.176.133-.767.348-1.95.636-2.63.64-1.046.006-1.2-.078-1.016-.553zm24.47-2.107c.58-1.528-1.232-2.405-2.76-1.335-1.91 1.338-10.043-3.266-11.85-6.706-.46-.88-.455-.972.084-1.28.32-.183 1.088-.782 1.708-1.333 2.086-1.854 1.228-4.599-1.437-4.599-.929 0-1.085-.11-1.085-.76 0-1.22-.91-3.467-1.912-4.716l-.927-1.155 1.18-.343c4.443-1.291 9.45-1.337 11.832-.108 1.84.95 2.624 2.299 2.626 4.522 0 2.358-1.332 5.142-3.5 7.31l-1.658 1.659.607.772c1.839 2.338 3.9 3.378 6.696 3.38 1.197.002 2.704.15 3.35.329 1.392.386 3.146 2.25 3.146 3.341 0 .7-.1.753-1.127.586-.818-.133-1.298-.029-1.747.378-.341.308-1.278.635-2.081.725l-1.462.165zm8.34-25.493c.697-.697.787-1.193.344-1.893-.356-.562-1.796-.525-4.515.116-1.138.268-3.2.49-4.583.492-2.105.004-2.484-.073-2.33-.475.222-.58.345-.577-1.578-.034-.868.245-2.048.53-2.622.633l-1.043.186 1.131-1.672c2.496-3.69 3.358-9.642 1.933-13.354-.157-.409.368-.479 3.58-.479 3.468 0 3.905-.07 5.577-.89 1.663-.817 1.832-1 2.033-2.193.457-2.706 2.99-4.135 5.346-3.017.615.292 1.288.904 1.496 1.36.374.82.367.826-.764.643l-1.142-.186.649.825c.775.985.814 1.728.16 2.994-.508.981-1.112 1.26-1.112.514 0-.436-1.2-1.704-1.383-1.461-.055.072-.522.986-1.038 2.03-1.54 3.118-5.899 7.37-5.899 5.755 0-.367-.167-.458-.56-.307-.308.12-1.208.369-2 .555-2.942.691-2.942.695 0 2.114 1.496.721 3.84 1.616 5.209 1.99 2.105.573 2.666.62 3.637.299 3.202-1.057 6.532 1.43 5.213 3.894-.358.67-.41.68-.793.157-.382-.523-.423-.515-.626.124-.32 1.006-2.03 1.917-3.6 1.919l-1.36.001zm-24.466-6.798c.898-1.57 1.054-4.359.319-5.682-.42-.755-.445-.693-.446 1.093-.001 2.014-.46 2.95-2.012 4.109-1.706 1.273-6 1.486-5.594.277.097-.285.537-1.527.979-2.759 1.13-3.152 1.082-5.428-.198-9.356-1.202-3.686-1.343-6.14-.441-7.654l.602-1.01 1.149.74c.631.408 1.616.838 2.188.956.797.165 1.04.381 1.04.927 0 .391.355 1.424.79 2.296.991 1.99 2.502 2.999 6.47 4.32 3.391 1.13 4.688 2.048 5.234 3.704.748 2.266-.435 5.362-2.519 6.593l-.92.544.152-1.572c.187-1.952-.093-3.47-.814-4.406-.538-.699-.553-.65-.553 1.785 0 2.231-.095 2.627-.871 3.645-.852 1.116-2.744 2.223-4.471 2.616l-.863.195zm5.82-13.172c-.312-.237-1.154-.524-1.87-.639-3.273-.523-5.364-2.89-4.994-5.653l.17-1.258h-1.335c-1.513 0-3.3-.837-3.983-1.866-.435-.657-.394-.722.77-1.208a4.907 4.907 0 0 1 2.595-.326c.751.103 1.764.033 2.25-.154 1.6-.618 4.375-.42 6.268.448.959.439 2.33.897 3.05 1.018 1.777.3 3.015 1.297 2.733 2.2-.313 1.004-2.038 3.328-2.88 3.88-.697.456-.724.44-.667-.398.057-.844-.001-.877-1.701-.957-.968-.046-1.976.058-2.24.23-.402.264-.311.484.566 1.364.95.952 1.223 1.049 2.96 1.049 1.053 0 1.914.103 1.914.229s-.447.738-.993 1.36c-1.058 1.205-1.702 1.373-2.614.68zm-.952-8.679c-.045-.036-.658-.17-1.362-.297l-1.28-.23.775.827c.728.777.812.796 1.362.297.323-.292.55-.56.505-.597z" transform="translate(-.025 -.001)"/></svg>