<svg xml:space="preserve" width="115.602" height="115.685" xmlns="http://www.w3.org/2000/svg"><defs><filter style="color-interpolation-filters:sRGB" height="1" width="1" y="0" x="0" id="a"><feColorMatrix values="0.299 0.587 0.114 0 0 0.299 0.587 0.114 0 0 0.299 0.587 0.114 0 0 0 0 0 1 0" result="fbSourceGraphic"/><feColorMatrix result="fbSourceGraphicAlpha" in="fbSourceGraphic" values="0 0 0 -1 0 0 0 0 -1 0 0 0 0 -1 0 0 0 0 1 0"/><feColorMatrix values="0.299 0.587 0.114 0 0 0.299 0.587 0.114 0 0 0.299 0.587 0.114 0 0 0 0 0 1 0" result="fbSourceGraphic" in="fbSourceGraphic"/><feColorMatrix result="fbSourceGraphicAlpha" in="fbSourceGraphic" values="0 0 0 -1 0 0 0 0 -1 0 0 0 0 -1 0 0 0 0 1 0"/><feColorMatrix values="0.299 0.587 0.114 0 0 0.299 0.587 0.114 0 0 0.299 0.587 0.114 0 0 0 0 0 1 0" result="colormatrix1" in="fbSourceGraphic"/></filter><filter style="color-interpolation-filters:sRGB" height="1" width="1" y="0" x="0" id="b"><feColorMatrix values="0.299 0.587 0.114 0 0 0.299 0.587 0.114 0 0 0.299 0.587 0.114 0 0 0 0 0 1 0" result="fbSourceGraphic"/><feColorMatrix result="fbSourceGraphicAlpha" in="fbSourceGraphic" values="0 0 0 -1 0 0 0 0 -1 0 0 0 0 -1 0 0 0 0 1 0"/><feColorMatrix values="0.299 0.587 0.114 0 0 0.299 0.587 0.114 0 0 0.299 0.587 0.114 0 0 0 0 0 1 0" result="fbSourceGraphic" in="fbSourceGraphic"/><feColorMatrix result="fbSourceGraphicAlpha" in="fbSourceGraphic" values="0 0 0 -1 0 0 0 0 -1 0 0 0 0 -1 0 0 0 0 1 0"/><feColorMatrix values="0.299 0.587 0.114 0 0 0.299 0.587 0.114 0 0 0.299 0.587 0.114 0 0 0 0 0 1 0" result="colormatrix1" in="fbSourceGraphic"/></filter><filter style="color-interpolation-filters:sRGB" height="1" width="1" y="0" x="0" id="c"><feColorMatrix values="0.299 0.587 0.114 0 0 0.299 0.587 0.114 0 0 0.299 0.587 0.114 0 0 0 0 0 1 0" result="fbSourceGraphic"/><feColorMatrix result="fbSourceGraphicAlpha" in="fbSourceGraphic" values="0 0 0 -1 0 0 0 0 -1 0 0 0 0 -1 0 0 0 0 1 0"/><feColorMatrix values="0.299 0.587 0.114 0 0 0.299 0.587 0.114 0 0 0.299 0.587 0.114 0 0 0 0 0 1 0" result="fbSourceGraphic" in="fbSourceGraphic"/><feColorMatrix result="fbSourceGraphicAlpha" in="fbSourceGraphic" values="0 0 0 -1 0 0 0 0 -1 0 0 0 0 -1 0 0 0 0 1 0"/><feColorMatrix values="0.299 0.587 0.114 0 0 0.299 0.587 0.114 0 0 0.299 0.587 0.114 0 0 0 0 0 1 0" result="colormatrix1" in="fbSourceGraphic"/></filter><filter style="color-interpolation-filters:sRGB" height="1" width="1" y="0" x="0" id="d"><feColorMatrix values="0.299 0.587 0.114 0 0 0.299 0.587 0.114 0 0 0.299 0.587 0.114 0 0 0 0 0 1 0" result="fbSourceGraphic"/><feColorMatrix result="fbSourceGraphicAlpha" in="fbSourceGraphic" values="0 0 0 -1 0 0 0 0 -1 0 0 0 0 -1 0 0 0 0 1 0"/><feColorMatrix values="0.299 0.587 0.114 0 0 0.299 0.587 0.114 0 0 0.299 0.587 0.114 0 0 0 0 0 1 0" result="fbSourceGraphic" in="fbSourceGraphic"/><feColorMatrix result="fbSourceGraphicAlpha" in="fbSourceGraphic" values="0 0 0 -1 0 0 0 0 -1 0 0 0 0 -1 0 0 0 0 1 0"/><feColorMatrix values="0.299 0.587 0.114 0 0 0.299 0.587 0.114 0 0 0.299 0.587 0.114 0 0 0 0 0 1 0" result="colormatrix1" in="fbSourceGraphic"/></filter><filter style="color-interpolation-filters:sRGB" height="1" width="1" y="0" x="0" id="f"><feColorMatrix values="0.299 0.587 0.114 0 0 0.299 0.587 0.114 0 0 0.299 0.587 0.114 0 0 0 0 0 1 0" result="fbSourceGraphic"/><feColorMatrix result="fbSourceGraphicAlpha" in="fbSourceGraphic" values="0 0 0 -1 0 0 0 0 -1 0 0 0 0 -1 0 0 0 0 1 0"/><feColorMatrix values="0.299 0.587 0.114 0 0 0.299 0.587 0.114 0 0 0.299 0.587 0.114 0 0 0 0 0 1 0" result="fbSourceGraphic" in="fbSourceGraphic"/><feColorMatrix result="fbSourceGraphicAlpha" in="fbSourceGraphic" values="0 0 0 -1 0 0 0 0 -1 0 0 0 0 -1 0 0 0 0 1 0"/><feColorMatrix values="0.299 0.587 0.114 0 0 0.299 0.587 0.114 0 0 0.299 0.587 0.114 0 0 0 0 0 1 0" result="colormatrix1" in="fbSourceGraphic"/></filter><clipPath clipPathUnits="userSpaceOnUse" id="e"><path d="M0 0h595.276v841.89H0Z"/></clipPath></defs><g style="display:inline"><g style="display:inline;filter:url(#a)"><path d="M0 0a40.581 40.581 0 0 0 20.9-5.758C16.203.698 8.593 4.894 0 4.894c-8.592 0-16.203-4.196-20.898-10.652A40.571 40.571 0 0 0 0 0" style="fill:#1825aa;fill-opacity:1;fill-rule:nonzero;stroke:none" transform="matrix(1.99551 0 0 -1.99551 57.892 85.724)"/></g><g style="display:inline;filter:url(#b)"><path d="M0 0a43.334 43.334 0 0 0-4.632-16.557 43.37 43.37 0 0 0-10.673-13.482C-9.14-28.701-3.606-24.71-.517-18.652 2.569-12.596 2.543-5.771 0 0" style="fill:#1825aa;fill-opacity:1;fill-rule:nonzero;stroke:none" transform="matrix(1.99551 0 0 -1.99551 51.187 23.934)"/></g><g style="display:inline;filter:url(#c)"><path d="M0 0a43.39 43.39 0 0 1 4.633-16.557 43.413 43.413 0 0 1 10.673-13.482C9.141-28.701 3.607-24.71.519-18.652-2.567-12.596-2.542-5.771 0 0" style="fill:#1825aa;fill-opacity:1;fill-rule:nonzero;stroke:none" transform="matrix(1.99551 0 0 -1.99551 64.596 23.934)"/></g><g style="display:inline;filter:url(#d)"><path d="M0 0a5.437 5.437 0 1 0-10.875 0A5.438 5.438 0 0 0 0 0" style="fill:#008aab;fill-opacity:1;fill-rule:nonzero;stroke:none" transform="matrix(1.99551 0 0 -1.99551 68.743 10.85)"/></g><g clip-path="url(#e)" style="display:inline;filter:url(#f)" transform="matrix(1.99551 0 0 -1.99551 -400.761 1295.357)"><path d="M0 0c10.939 0 21-3.756 28.965-10.051C21.515-2.706 11.289 1.83 0 1.83c-11.287 0-21.516-4.536-28.966-11.881A46.55 46.55 0 0 0 0 0" style="fill:#1825aa;fill-opacity:1;fill-rule:nonzero;stroke:none" transform="translate(229.797 601.213)"/><path d="M0 0a46.599 46.599 0 0 0 28.965-10.038C21.513-2.701 11.286 1.827 0 1.827c-11.286 0-21.511-4.528-28.966-11.865A46.608 46.608 0 0 0 0 0" style="fill:#1825aa;fill-opacity:1;fill-rule:nonzero;stroke:none" transform="translate(229.797 601.2)"/><path d="M0 0a46.652 46.652 0 0 0 28.965-10.022C21.509-2.695 11.284 1.828 0 1.828c-11.282 0-21.506-4.523-28.966-11.85A46.667 46.667 0 0 0 0 0" style="fill:#224396;fill-opacity:1;fill-rule:nonzero;stroke:none" transform="translate(229.797 601.184)"/><path d="M0 0a46.708 46.708 0 0 0 28.965-10.009C21.505-2.692 11.28 1.823 0 1.823c-11.28 0-21.503-4.515-28.966-11.832A46.716 46.716 0 0 0 0 0" style="fill:#234398;fill-opacity:1;fill-rule:nonzero;stroke:none" transform="translate(229.797 601.171)"/><path d="M0 0a46.752 46.752 0 0 0 28.965-9.993C21.499-2.685 11.279 1.823 0 1.823c-11.276 0-21.499-4.508-28.966-11.816A46.768 46.768 0 0 0 0 0" style="fill:#234599;fill-opacity:1;fill-rule:nonzero;stroke:none" transform="translate(229.797 601.155)"/><path d="M0 0a46.82 46.82 0 0 0 28.965-9.98C21.494-2.682 11.274 1.821 0 1.821c-11.275 0-21.495-4.503-28.966-11.801A46.824 46.824 0 0 0 0 0" style="fill:#264599;fill-opacity:1;fill-rule:nonzero;stroke:none" transform="translate(229.797 601.142)"/><path d="M0 0a46.86 46.86 0 0 0 28.965-9.964C21.492-2.675 11.273 1.821 0 1.821c-11.271 0-21.491-4.496-28.966-11.785A46.872 46.872 0 0 0 0 0" style="fill:#264599;fill-opacity:1;fill-rule:nonzero;stroke:none" transform="translate(229.797 601.126)"/><path d="M0 0a46.916 46.916 0 0 0 28.965-9.951C21.487-2.672 11.269 1.818 0 1.818c-11.266 0-21.485-4.49-28.966-11.769A46.923 46.923 0 0 0 0 0" style="fill:#264599;fill-opacity:1;fill-rule:nonzero;stroke:none" transform="translate(229.797 601.113)"/><path d="M0 0a46.965 46.965 0 0 0 28.965-9.935C21.483-2.666 11.264 1.816 0 1.816S-21.482-2.666-28.966-9.935A46.986 46.986 0 0 0 0 0" style="fill:#29479b;fill-opacity:1;fill-rule:nonzero;stroke:none" transform="translate(229.797 601.097)"/><path d="M0 0a47.032 47.032 0 0 0 28.965-9.922C21.478-2.661 11.263 1.813 0 1.813c-11.261 0-21.478-4.474-28.965-11.735A47.034 47.034 0 0 0 0 0" style="fill:#29479b;fill-opacity:1;fill-rule:nonzero;stroke:none" transform="translate(229.797 601.084)"/><path d="M0 0a47.08 47.08 0 0 0 28.965-9.907C21.475-2.657 11.259 1.812 0 1.812S-21.474-2.657-28.965-9.907A47.084 47.084 0 0 0 0 0" style="fill:#29479b;fill-opacity:1;fill-rule:nonzero;stroke:none" transform="translate(229.797 601.07)"/><path d="M0 0a47.135 47.135 0 0 0 28.965-9.893C21.471-2.651 11.258 1.81 0 1.81c-11.256 0-21.47-4.461-28.965-11.703A47.135 47.135 0 0 0 0 0" style="fill:#2c479d;fill-opacity:1;fill-rule:nonzero;stroke:none" transform="translate(229.797 601.055)"/><path d="M0 0a47.182 47.182 0 0 0 28.965-9.877C21.466-2.645 11.254 1.81 0 1.81c-11.254 0-21.464-4.455-28.965-11.687A47.197 47.197 0 0 0 0 0" style="fill:#2c479d;fill-opacity:1;fill-rule:nonzero;stroke:none" transform="translate(229.797 601.04)"/><path d="M0 0a47.24 47.24 0 0 0 28.965-9.864C21.461-2.642 11.252 1.808 0 1.808c-11.25 0-21.461-4.45-28.965-11.672A47.244 47.244 0 0 0 0 0" style="fill:#2f479d;fill-opacity:1;fill-rule:nonzero;stroke:none" transform="translate(229.797 601.027)"/><path d="M0 0a47.295 47.295 0 0 0 28.965-9.849C21.457-2.636 11.249 1.806 0 1.806c-11.247 0-21.457-4.442-28.965-11.655A47.295 47.295 0 0 0 0 0" style="fill:#2f499d;fill-opacity:1;fill-rule:nonzero;stroke:none" transform="translate(229.797 601.012)"/><path d="M0 0a47.343 47.343 0 0 0 28.965-9.836C21.454-2.63 11.245 1.804 0 1.804c-11.243 0-21.453-4.434-28.965-11.64A47.347 47.347 0 0 0 0 0" style="fill:#2f499d;fill-opacity:1;fill-rule:nonzero;stroke:none" transform="translate(229.797 600.998)"/><path d="M0 0a47.405 47.405 0 0 0 28.965-9.822C21.45-2.626 11.242 1.802 0 1.802S-21.449-2.626-28.965-9.822A47.403 47.403 0 0 0 0 0" style="fill:#31499d;fill-opacity:1;fill-rule:nonzero;stroke:none" transform="translate(229.797 600.984)"/><path d="M0 0c10.9 0 20.946-3.66 28.965-9.807C21.445-2.622 11.24 1.801 0 1.801c-11.238 0-21.443-4.423-28.965-11.608A47.462 47.462 0 0 0 0 0" style="fill:#314b9d;fill-opacity:1;fill-rule:nonzero;stroke:none" transform="translate(229.797 600.969)"/><path d="M0 0a47.503 47.503 0 0 0 28.965-9.792C21.44-2.615 11.237 1.799 0 1.799c-11.237 0-21.44-4.414-28.965-11.591A47.509 47.509 0 0 0 0 0" style="fill:#344b9d;fill-opacity:1;fill-rule:nonzero;stroke:none" transform="translate(229.797 600.954)"/><path d="M0 0a47.567 47.567 0 0 0 28.965-9.778C21.436-2.611 11.233 1.797 0 1.797S-21.436-2.611-28.965-9.778A47.57 47.57 0 0 0 0 0" style="fill:#344b9d;fill-opacity:1;fill-rule:nonzero;stroke:none" transform="translate(229.797 600.94)"/><path d="M0 0a47.626 47.626 0 0 0 28.965-9.764C21.433-2.606 11.231 1.795 0 1.795c-11.229 0-21.432-4.401-28.965-11.559A47.628 47.628 0 0 0 0 0" style="fill:#344b9d;fill-opacity:1;fill-rule:nonzero;stroke:none" transform="translate(229.797 600.926)"/><path d="M0 0a47.678 47.678 0 0 0 28.965-9.749A41.962 41.962 0 0 1 0 1.794c-11.228 0-21.427-4.395-28.965-11.543A47.68 47.68 0 0 0 0 0" style="fill:#364b9e;fill-opacity:1;fill-rule:nonzero;stroke:none" transform="translate(229.797 600.911)"/><path d="M0 0a47.727 47.727 0 0 0 28.965-9.736C21.424-2.597 11.226 1.792 0 1.792c-11.224 0-21.422-4.389-28.965-11.528A47.738 47.738 0 0 0 0 0" style="fill:#364ca0;fill-opacity:1;fill-rule:nonzero;stroke:none" transform="translate(229.797 600.898)"/><path d="M0 0a47.778 47.778 0 0 0 28.965-9.72A42.044 42.044 0 0 1 0 1.792c-11.221 0-21.419-4.382-28.965-11.512A47.795 47.795 0 0 0 0 0" style="fill:#364ea0;fill-opacity:1;fill-rule:nonzero;stroke:none" transform="translate(229.797 600.882)"/><path d="M0 0a47.844 47.844 0 0 0 28.965-9.706C21.415-2.587 11.219 1.788 0 1.788c-11.219 0-21.415-4.375-28.965-11.494A47.846 47.846 0 0 0 0 0" style="fill:#384ea0;fill-opacity:1;fill-rule:nonzero;stroke:none" transform="translate(229.797 600.868)"/><path d="M0 0a47.896 47.896 0 0 0 28.964-9.691A42.128 42.128 0 0 1 0 1.786 42.126 42.126 0 0 1-28.963-9.691C-20.918-3.612-10.881 0 0 0" style="fill:#384ea0;fill-opacity:1;fill-rule:nonzero;stroke:none" transform="translate(229.797 600.853)"/><path d="M0 0a47.963 47.963 0 0 0 28.964-9.676C21.405-2.577 11.214 1.785 0 1.785A42.168 42.168 0 0 1-28.963-9.678 47.954 47.954 0 0 0 0 0" style="fill:#384ea0;fill-opacity:1;fill-rule:nonzero;stroke:none" transform="translate(229.797 600.84)"/><path d="M0 0a48.028 48.028 0 0 0 28.964-9.66A42.222 42.222 0 0 1 0 1.784 42.216 42.216 0 0 1-28.963-9.662 48.012 48.012 0 0 0 0 0" style="fill:#3850a1;fill-opacity:1;fill-rule:nonzero;stroke:none" transform="translate(229.797 600.824)"/><path d="M0 0a48.074 48.074 0 0 0 28.964-9.646A42.263 42.263 0 0 1 0 1.782a42.253 42.253 0 0 1-28.963-11.43A48.064 48.064 0 0 0 0 0" style="fill:#3b50a1;fill-opacity:1;fill-rule:nonzero;stroke:none" transform="translate(229.797 600.81)"/><path d="M0 0c10.872 0 20.904-3.588 28.964-9.631A42.308 42.308 0 0 1 0 1.781 42.3 42.3 0 0 1-28.963-9.633 48.119 48.119 0 0 0 0 0" style="fill:#3b50a3;fill-opacity:1;fill-rule:nonzero;stroke:none" transform="translate(229.797 600.795)"/><path d="M0 0c10.871 0 20.9-3.583 28.964-9.617A42.344 42.344 0 0 1 0 1.78 42.334 42.334 0 0 1-28.963-9.618 48.185 48.185 0 0 0 0 0" style="fill:#3d50a2;fill-opacity:1;fill-rule:nonzero;stroke:none" transform="translate(229.797 600.78)"/><path d="M0 0a48.244 48.244 0 0 0 28.964-9.603A42.393 42.393 0 0 1 0 1.778 42.387 42.387 0 0 1-28.963-9.604 48.237 48.237 0 0 0 0 0" style="fill:#3d50a2;fill-opacity:1;fill-rule:nonzero;stroke:none" transform="translate(229.797 600.766)"/><path d="M0 0a48.302 48.302 0 0 0 28.964-9.59A42.432 42.432 0 0 1 0 1.775 42.428 42.428 0 0 1-28.963-9.591 48.288 48.288 0 0 0 0 0" style="fill:#3d50a2;fill-opacity:1;fill-rule:nonzero;stroke:none" transform="translate(229.797 600.753)"/><path d="M0 0a48.368 48.368 0 0 0 28.964-9.574A42.472 42.472 0 0 1 0 1.773 42.468 42.468 0 0 1-28.963-9.575 48.357 48.357 0 0 0 0 0" style="fill:#3d52a3;fill-opacity:1;fill-rule:nonzero;stroke:none" transform="translate(229.797 600.737)"/><path d="M0 0c10.86 0 20.888-3.56 28.964-9.56A42.524 42.524 0 0 1 0 1.771 42.506 42.506 0 0 1-28.963-9.562 48.413 48.413 0 0 0 0 0" style="fill:#4052a4;fill-opacity:1;fill-rule:nonzero;stroke:none" transform="translate(229.797 600.724)"/><path d="M0 0c10.858 0 20.885-3.554 28.964-9.545A42.565 42.565 0 0 1 0 1.77 42.553 42.553 0 0 1-28.963-9.547C-20.884-3.554-10.856 0 0 0" style="fill:#4052a4;fill-opacity:1;fill-rule:nonzero;stroke:none" transform="translate(229.797 600.709)"/><path d="M0 0a48.531 48.531 0 0 0 28.964-9.532A42.61 42.61 0 0 1 0 1.768 42.608 42.608 0 0 1-28.963-9.533C-20.88-3.549-10.855 0 0 0" style="fill:#4054a3;fill-opacity:1;fill-rule:nonzero;stroke:none" transform="translate(229.797 600.696)"/><path d="M0 0c10.853 0 20.878-3.543 28.964-9.517A42.646 42.646 0 0 1 0 1.767 42.642 42.642 0 0 1-28.963-9.518 48.602 48.602 0 0 0 0 0" style="fill:#4354a3;fill-opacity:1;fill-rule:nonzero;stroke:none" transform="translate(229.797 600.68)"/><path d="M0 0a48.655 48.655 0 0 0 28.964-9.503A42.698 42.698 0 0 1 0 1.765 42.697 42.697 0 0 1-28.963-9.504 48.644 48.644 0 0 0 0 0" style="fill:#4354a3;fill-opacity:1;fill-rule:nonzero;stroke:none" transform="translate(229.797 600.667)"/><path d="M0 0c10.848 0 20.872-3.532 28.964-9.489A42.74 42.74 0 0 1 0 1.762 42.728 42.728 0 0 1-28.963-9.49C-20.871-3.532-10.848 0 0 0" style="fill:#4355a5;fill-opacity:1;fill-rule:nonzero;stroke:none" transform="translate(229.797 600.653)"/><path d="M0 0c10.846 0 20.868-3.525 28.964-9.474A42.783 42.783 0 0 1 0 1.76 42.776 42.776 0 0 1-28.963-9.475C-20.867-3.526-10.846 0 0 0" style="fill:#4555a5;fill-opacity:1;fill-rule:nonzero;stroke:none" transform="translate(229.797 600.638)"/><path d="M0 0a48.837 48.837 0 0 0 28.964-9.459A42.833 42.833 0 0 1 0 1.76 42.819 42.819 0 0 1-28.963-9.461C-20.864-3.521-10.844 0 0 0" style="fill:#4555a5;fill-opacity:1;fill-rule:nonzero;stroke:none" transform="translate(229.797 600.623)"/><path d="M0 0c10.843 0 20.862-3.515 28.964-9.445A42.87 42.87 0 0 1 0 1.758 42.863 42.863 0 0 1-28.963-9.447C-20.86-3.515-10.841 0 0 0" style="fill:#4557a6;fill-opacity:1;fill-rule:nonzero;stroke:none" transform="translate(229.797 600.609)"/><path d="M0 0a48.95 48.95 0 0 0 28.964-9.431A42.921 42.921 0 0 1 0 1.756 42.91 42.91 0 0 1-28.963-9.433C-20.858-3.509-10.839 0 0 0" style="fill:#4557a6;fill-opacity:1;fill-rule:nonzero;stroke:none" transform="translate(229.797 600.595)"/><path d="M0 0a49.014 49.014 0 0 0 28.964-9.416A42.962 42.962 0 0 1 0 1.755 42.953 42.953 0 0 1-28.962-9.418C-20.854-3.504-10.836 0 0 0" style="fill:#4857a6;fill-opacity:1;fill-rule:nonzero;stroke:none" transform="translate(229.797 600.58)"/><path d="M0 0c10.834 0 20.851-3.497 28.964-9.401A43.012 43.012 0 0 1 0 1.754 42.997 42.997 0 0 1-28.962-9.403C-20.849-3.497-10.834 0 0 0" style="fill:#4857a6;fill-opacity:1;fill-rule:nonzero;stroke:none" transform="translate(229.797 600.565)"/><path d="M0 0c10.832 0 20.848-3.491 28.964-9.387A43.066 43.066 0 0 1 0 1.752 43.05 43.05 0 0 1-28.962-9.389C-20.848-3.491-10.83 0 0 0" style="fill:#4a5aa5;fill-opacity:1;fill-rule:nonzero;stroke:none" transform="translate(229.797 600.551)"/><path d="M0 0a49.205 49.205 0 0 0 28.964-9.373A43.105 43.105 0 0 1 0 1.75 43.088 43.088 0 0 1-28.962-9.375C-20.844-3.487-10.829 0 0 0" style="fill:#4a5aa5;fill-opacity:1;fill-rule:nonzero;stroke:none" transform="translate(229.797 600.537)"/><path d="M0 0a49.262 49.262 0 0 0 28.964-9.358A43.154 43.154 0 0 1 0 1.749 43.141 43.141 0 0 1-28.962-9.36C-20.841-3.481-10.827 0 0 0" style="fill:#4a5aa8;fill-opacity:1;fill-rule:nonzero;stroke:none" transform="translate(229.797 600.522)"/><path d="M0 0c10.825 0 20.837-3.474 28.964-9.343A43.192 43.192 0 0 1 0 1.746 43.18 43.18 0 0 1-28.962-9.345C-20.837-3.474-10.825 0 0 0" style="fill:#4a5aa8;fill-opacity:1;fill-rule:nonzero;stroke:none" transform="translate(229.797 600.507)"/><path d="M0 0a49.382 49.382 0 0 0 28.964-9.329A43.243 43.243 0 0 1 0 1.744 43.232 43.232 0 0 1-28.962-9.329C-20.834-3.468-10.823 0 0 0" style="fill:#4d5aa8;fill-opacity:1;fill-rule:nonzero;stroke:none" transform="translate(229.797 600.493)"/><path d="M0 0c10.821 0 20.83-3.462 28.962-9.314A43.285 43.285 0 0 1 0 1.742c-11.14 0-21.3-4.194-28.962-11.059C-20.832-3.462-10.82 0 0 0" style="fill:#4c5ca9;fill-opacity:1;fill-rule:nonzero;stroke:none" transform="translate(229.797 600.48)"/><path d="M0 0c10.818 0 20.827-3.457 28.962-9.299A43.334 43.334 0 0 1 0 1.742 43.321 43.321 0 0 1-28.962-9.302C-20.828-3.457-10.818 0 0 0" style="fill:#4f5da9;fill-opacity:1;fill-rule:nonzero;stroke:none" transform="translate(229.797 600.464)"/><path d="M0 0c10.816 0 20.823-3.45 28.962-9.284A43.376 43.376 0 0 1 0 1.741 43.379 43.379 0 0 1-28.962-9.285C-20.823-3.45-10.814 0 0 0" style="fill:#4f5da9;fill-opacity:1;fill-rule:nonzero;stroke:none" transform="translate(229.797 600.45)"/><path d="M0 0c10.813 0 20.82-3.444 28.962-9.27A43.423 43.423 0 0 1 0 1.739a43.42 43.42 0 0 1-28.962-11.01C-20.821-3.445-10.813 0 0 0" style="fill:#4f5da9;fill-opacity:1;fill-rule:nonzero;stroke:none" transform="translate(229.797 600.435)"/><path d="M0 0c10.811 0 20.816-3.44 28.962-9.257A43.468 43.468 0 0 1 0 1.735 43.464 43.464 0 0 1-28.962-9.258C-20.818-3.441-10.809 0 0 0" style="fill:#505da9;fill-opacity:1;fill-rule:nonzero;stroke:none" transform="translate(229.797 600.422)"/><path d="M0 0c10.807 0 20.814-3.434 28.962-9.242A43.512 43.512 0 0 1 0 1.734 43.507 43.507 0 0 1-28.962-9.243C-20.814-3.434-10.808 0 0 0" style="fill:#525fab;fill-opacity:1;fill-rule:nonzero;stroke:none" transform="translate(229.797 600.407)"/><path d="M0 0c10.806 0 20.81-3.428 28.962-9.229A43.566 43.566 0 0 1 0 1.731 43.558 43.558 0 0 1-28.962-9.23C-20.811-3.428-10.805 0 0 0" style="fill:#525fab;fill-opacity:1;fill-rule:nonzero;stroke:none" transform="translate(229.797 600.394)"/><path d="M0 0c10.804 0 20.806-3.42 28.962-9.213A43.603 43.603 0 0 1 0 1.731 43.617 43.617 0 0 1-28.962-9.214C-20.808-3.422-10.804 0 0 0" style="fill:#525fab;fill-opacity:1;fill-rule:nonzero;stroke:none" transform="translate(229.797 600.378)"/><path d="M0 0c10.802 0 20.804-3.418 28.962-9.2A43.66 43.66 0 0 1 0 1.728 43.655 43.655 0 0 1-28.962-9.201C-20.806-3.418-10.802 0 0 0" style="fill:#545fab;fill-opacity:1;fill-rule:nonzero;stroke:none" transform="translate(229.797 600.365)"/><path d="M0 0c10.801 0 20.801-3.411 28.962-9.185A43.7 43.7 0 0 1 0 1.728 43.705 43.705 0 0 1-28.962-9.186C-20.801-3.411-10.799 0 0 0" style="fill:#5462ac;fill-opacity:1;fill-rule:nonzero;stroke:none" transform="translate(229.797 600.35)"/><path d="M0 0c10.796 0 20.797-3.404 28.962-9.171A43.76 43.76 0 0 1 0 1.726 43.755 43.755 0 0 1-28.962-9.172C-20.797-3.404-10.797 0 0 0" style="fill:#5462ac;fill-opacity:1;fill-rule:nonzero;stroke:none" transform="translate(229.797 600.336)"/><path d="M0 0c10.795 0 20.793-3.398 28.962-9.155A43.806 43.806 0 0 1 0 1.726 43.805 43.805 0 0 1-28.962-9.156C-20.795-3.398-10.793 0 0 0" style="fill:#5462ac;fill-opacity:1;fill-rule:nonzero;stroke:none" transform="translate(229.797 600.32)"/><path d="M0 0c10.792 0 20.79-3.394 28.96-9.142A43.83 43.83 0 0 1 0 1.722 43.841 43.841 0 0 1-28.962-9.143C-20.791-3.394-10.792 0 0 0" style="fill:#5662ac;fill-opacity:1;fill-rule:nonzero;stroke:none" transform="translate(229.797 600.307)"/><path d="M0 0c10.79 0 20.788-3.386 28.96-9.126A43.889 43.889 0 0 1 0 1.721 43.89 43.89 0 0 1-28.962-9.127C-20.786-3.386-10.788 0 0 0" style="fill:#5762ac;fill-opacity:1;fill-rule:nonzero;stroke:none" transform="translate(229.797 600.291)"/><path d="M0 0c10.786 0 20.784-3.382 28.96-9.113A43.95 43.95 0 0 1 0 1.72 43.954 43.954 0 0 1-28.962-9.114C-20.785-3.382-10.787 0 0 0" style="fill:#5762ac;fill-opacity:1;fill-rule:nonzero;stroke:none" transform="translate(229.797 600.278)"/><path d="M0 0c10.786 0 20.78-3.377 28.96-9.099A43.987 43.987 0 0 1 0 1.716 43.992 43.992 0 0 1-28.962-9.1C-20.78-3.378-10.785 0 0 0" style="fill:#5964ae;fill-opacity:1;fill-rule:nonzero;stroke:none" transform="translate(229.797 600.264)"/><path d="M0 0c10.783 0 20.778-3.37 28.96-9.084A44.038 44.038 0 0 1 0 1.716 44.049 44.049 0 0 1-28.962-9.085C-20.776-3.37-10.783 0 0 0" style="fill:#5964ae;fill-opacity:1;fill-rule:nonzero;stroke:none" transform="translate(229.797 600.249)"/><path d="M0 0c10.779 0 20.774-3.363 28.96-9.068A44.08 44.08 0 0 1 0 1.716 44.094 44.094 0 0 1-28.962-9.069C-20.774-3.363-10.779 0 0 0" style="fill:#5964ae;fill-opacity:1;fill-rule:nonzero;stroke:none" transform="translate(229.797 600.233)"/><path d="M0 0c10.777 0 20.771-3.359 28.96-9.055A44.139 44.139 0 0 1 0 1.713 44.142 44.142 0 0 1-28.962-9.056C-20.77-3.359-10.778 0 0 0" style="fill:#5c67af;fill-opacity:1;fill-rule:nonzero;stroke:none" transform="translate(229.797 600.22)"/><path d="M0 0c10.776 0 20.767-3.352 28.96-9.039A44.181 44.181 0 0 1 0 1.711 44.193 44.193 0 0 1-28.962-9.04C-20.769-3.352-10.776 0 0 0" style="fill:#5c67af;fill-opacity:1;fill-rule:nonzero;stroke:none" transform="translate(229.797 600.204)"/><path d="M0 0c10.774 0 20.764-3.347 28.96-9.026A44.232 44.232 0 0 1 0 1.708 44.24 44.24 0 0 1-28.962-9.027C-20.764-3.347-10.772 0 0 0" style="fill:#5c67af;fill-opacity:1;fill-rule:nonzero;stroke:none" transform="translate(229.797 600.191)"/><path d="M0 0c10.771 0 20.762-3.34 28.96-9.011A44.295 44.295 0 0 1 0 1.708a44.296 44.296 0 0 1-28.962-10.72C-20.76-3.342-10.77 0 0 0" style="fill:#5c67af;fill-opacity:1;fill-rule:nonzero;stroke:none" transform="translate(229.797 600.176)"/><path d="M0 0c10.769 0 20.758-3.336 28.96-8.997A44.335 44.335 0 0 1 0 1.705 44.341 44.341 0 0 1-28.962-8.998C-20.757-3.336-10.767 0 0 0" style="fill:#5f67af;fill-opacity:1;fill-rule:nonzero;stroke:none" transform="translate(229.797 600.162)"/><path d="M0 0c10.765 0 20.753-3.33 28.96-8.983A44.386 44.386 0 0 1 0 1.703 44.387 44.387 0 0 1-28.962-8.984C-20.753-3.33-10.766 0 0 0" style="fill:#5e69b0;fill-opacity:1;fill-rule:nonzero;stroke:none" transform="translate(229.797 600.148)"/><path d="M0 0c10.765 0 20.751-3.323 28.96-8.968A44.433 44.433 0 0 1 0 1.702 44.433 44.433 0 0 1-28.962-8.969C-20.75-3.323-10.764 0 0 0" style="fill:#5e69b0;fill-opacity:1;fill-rule:nonzero;stroke:none" transform="translate(229.797 600.133)"/><path d="M0 0c10.76 0 20.746-3.316 28.96-8.954A44.486 44.486 0 0 1 0 1.702 44.497 44.497 0 0 1-28.962-8.954C-20.748-3.319-10.76 0 0 0" style="fill:#6169b0;fill-opacity:1;fill-rule:nonzero;stroke:none" transform="translate(229.797 600.118)"/><path d="M0 0c10.758 0 20.743-3.313 28.96-8.94A44.533 44.533 0 0 1 0 1.7 44.544 44.544 0 0 1-28.962-8.941C-20.743-3.313-10.758 0 0 0" style="fill:#6169b0;fill-opacity:1;fill-rule:nonzero;stroke:none" transform="translate(229.797 600.105)"/><path d="M0 0c10.757 0 20.741-3.307 28.96-8.926A44.591 44.591 0 0 1 0 1.697 44.596 44.596 0 0 1-28.962-8.927C-20.739-3.307-10.757 0 0 0" style="fill:#616bb1;fill-opacity:1;fill-rule:nonzero;stroke:none" transform="translate(229.797 600.091)"/><path d="M0 0c10.755 0 20.737-3.299 28.96-8.911A44.642 44.642 0 0 1 0 1.694 44.637 44.637 0 0 1-28.96-8.912C-20.737-3.3-10.755 0 0 0" style="fill:#616bb1;fill-opacity:1;fill-rule:nonzero;stroke:none" transform="translate(229.797 600.076)"/><path d="M0 0c10.753 0 20.732-3.296 28.96-8.898A44.684 44.684 0 0 1 0 1.694 44.69 44.69 0 0 1-28.96-8.899C-20.734-3.297-10.751 0 0 0" style="fill:#646bb1;fill-opacity:1;fill-rule:nonzero;stroke:none" transform="translate(229.797 600.063)"/><path d="M0 0c10.75 0 20.731-3.289 28.96-8.882A44.739 44.739 0 0 1 0 1.692 44.734 44.734 0 0 1-28.96-8.883C-20.731-3.289-10.75 0 0 0" style="fill:#646bb2;fill-opacity:1;fill-rule:nonzero;stroke:none" transform="translate(229.797 600.047)"/><path d="M0 0c10.748 0 20.727-3.284 28.96-8.868A44.787 44.787 0 0 1 0 1.689 44.784 44.784 0 0 1-28.96-8.87C-20.727-3.284-10.746 0 0 0" style="fill:#646bb2;fill-opacity:1;fill-rule:nonzero;stroke:none" transform="translate(229.797 600.033)"/><path d="M0 0c10.744 0 20.722-3.278 28.96-8.853A44.85 44.85 0 0 1 0 1.689 44.843 44.843 0 0 1-28.96-8.854C-20.723-3.278-10.745 0 0 0" style="fill:#666eb4;fill-opacity:1;fill-rule:nonzero;stroke:none" transform="translate(229.797 600.018)"/><path d="M0 0c10.743 0 20.72-3.273 28.96-8.84A44.898 44.898 0 0 1 0 1.687 44.905 44.905 0 0 1-28.96-8.84C-20.722-3.273-10.744 0 0 0" style="fill:#666eb4;fill-opacity:1;fill-rule:nonzero;stroke:none" transform="translate(229.797 600.005)"/><path d="M0 0c10.739 0 20.716-3.265 28.96-8.824A44.948 44.948 0 0 1 0 1.687 44.948 44.948 0 0 1-28.96-8.824C-20.717-3.265-10.74 0 0 0" style="fill:#666eb4;fill-opacity:1;fill-rule:nonzero;stroke:none" transform="translate(229.797 599.989)"/><path d="M0 0c10.737 0 20.713-3.26 28.96-8.811A45.011 45.011 0 0 1 0 1.682 45.007 45.007 0 0 1-28.96-8.811C-20.713-3.262-10.737 0 0 0" style="fill:#696eb3;fill-opacity:1;fill-rule:nonzero;stroke:none" transform="translate(229.797 599.976)"/><path d="M0 0c10.735 0 20.709-3.253 28.96-8.795A45.052 45.052 0 0 1 0 1.682 45.063 45.063 0 0 1-28.96-8.795C-20.711-3.255-10.736 0 0 0" style="fill:#6971b5;fill-opacity:1;fill-rule:nonzero;stroke:none" transform="translate(229.797 599.96)"/><path d="M0 0c10.734 0 20.706-3.25 28.96-8.782A45.106 45.106 0 0 1 0 1.679 45.108 45.108 0 0 1-28.96-8.782C-20.708-3.25-10.734 0 0 0" style="fill:#6971b5;fill-opacity:1;fill-rule:nonzero;stroke:none" transform="translate(229.797 599.947)"/><path d="M0 0c10.732 0 20.704-3.242 28.96-8.766C21.14-2.259 11.031 1.678 0 1.678A45.173 45.173 0 0 1-28.96-8.766C-20.704-3.242-10.73 0 0 0" style="fill:#6c71b5;fill-opacity:1;fill-rule:nonzero;stroke:none" transform="translate(229.797 599.931)"/><path d="M0 0c10.729 0 20.7-3.237 28.958-8.752A45.212 45.212 0 0 1 0 1.676c-11.028 0-21.137-3.933-28.96-10.429C-20.701-3.237-10.729 0 0 0" style="fill:#6c71b5;fill-opacity:1;fill-rule:nonzero;stroke:none" transform="translate(229.797 599.918)"/><path d="M0 0c10.727 0 20.696-3.231 28.958-8.736A45.269 45.269 0 0 1 0 1.676 45.271 45.271 0 0 1-28.96-8.737C-20.697-3.231-10.725 0 0 0" style="fill:#6c71b5;fill-opacity:1;fill-rule:nonzero;stroke:none" transform="translate(229.797 599.902)"/><path d="M0 0c10.723 0 20.694-3.226 28.958-8.723A45.316 45.316 0 0 1 0 1.673 45.327 45.327 0 0 1-28.96-8.724C-20.696-3.226-10.723 0 0 0" style="fill:#6c73b5;fill-opacity:1;fill-rule:nonzero;stroke:none" transform="translate(229.797 599.889)"/><path d="M0 0c10.722 0 20.69-3.218 28.958-8.708A45.372 45.372 0 0 1 0 1.673 45.38 45.38 0 0 1-28.96-8.708C-20.69-3.218-10.72 0 0 0" style="fill:#6e73b5;fill-opacity:1;fill-rule:nonzero;stroke:none" transform="translate(229.797 599.873)"/><path d="M0 0c10.718 0 20.687-3.215 28.958-8.694A45.426 45.426 0 0 1 0 1.67 45.435 45.435 0 0 1-28.96-8.695C-20.687-3.215-10.719 0 0 0" style="fill:#6e73b5;fill-opacity:1;fill-rule:nonzero;stroke:none" transform="translate(229.797 599.86)"/><path d="M0 0c10.717 0 20.683-3.208 28.958-8.68A45.477 45.477 0 0 1 0 1.669c-11.013 0-21.116-3.9-28.96-10.349C-20.685-3.208-10.717 0 0 0" style="fill:#6e73b6;fill-opacity:1;fill-rule:nonzero;stroke:none" transform="translate(229.797 599.845)"/><path d="M0 0c10.715 0 20.68-3.202 28.958-8.665A45.532 45.532 0 0 1 0 1.667 45.55 45.55 0 0 1-28.96-8.666C-20.681-3.202-10.715 0 0 0" style="fill:#7076b8;fill-opacity:1;fill-rule:nonzero;stroke:none" transform="translate(229.797 599.831)"/><path d="M0 0c10.713 0 20.678-3.196 28.958-8.651A45.591 45.591 0 0 1 0 1.664 45.591 45.591 0 0 1-28.96-8.653C-20.676-3.198-10.713 0 0 0" style="fill:#7076b8;fill-opacity:1;fill-rule:nonzero;stroke:none" transform="translate(229.797 599.817)"/><path d="M0 0c10.709 0 20.673-3.19 28.958-8.636A45.651 45.651 0 0 1 0 1.663 45.647 45.647 0 0 1-28.96-8.638C-20.674-3.192-10.709 0 0 0" style="fill:#7076b8;fill-opacity:1;fill-rule:nonzero;stroke:none" transform="translate(229.797 599.802)"/><path d="M0 0c10.707 0 20.669-3.185 28.958-8.622C21.095-2.21 11.002 1.662 0 1.662A45.712 45.712 0 0 1-28.96-8.622C-20.671-3.185-10.708 0 0 0" style="fill:#7076b8;fill-opacity:1;fill-rule:nonzero;stroke:none" transform="translate(229.797 599.787)"/><path d="M0 0c10.706 0 20.667-3.179 28.958-8.608A45.755 45.755 0 0 1 0 1.66c-10.998 0-21.095-3.867-28.96-10.269C-20.667-3.179-10.704 0 0 0" style="fill:#7378b7;fill-opacity:1;fill-rule:nonzero;stroke:none" transform="translate(229.797 599.774)"/><path d="M0 0c10.702 0 20.664-3.174 28.958-8.594C21.089-2.202 10.995 1.658 0 1.658c-10.996 0-21.09-3.86-28.96-10.253C-20.664-3.174-10.702 0 0 0" style="fill:#7378b9;fill-opacity:1;fill-rule:nonzero;stroke:none" transform="translate(229.797 599.76)"/><path d="M0 0c10.701 0 20.66-3.168 28.958-8.579A45.862 45.862 0 0 1 0 1.658 45.875 45.875 0 0 1-28.96-8.58C-20.66-3.168-10.699 0 0 0" style="fill:#7378b9;fill-opacity:1;fill-rule:nonzero;stroke:none" transform="translate(229.797 599.745)"/><path d="M0 0c10.697 0 20.657-3.161 28.958-8.564C21.079-2.191 10.99 1.654 0 1.654c-10.991 0-21.081-3.846-28.96-10.219C-20.659-3.161-10.698 0 0 0" style="fill:#7378b9;fill-opacity:1;fill-rule:nonzero;stroke:none" transform="translate(229.797 599.73)"/><path d="M0 0c10.696 0 20.653-3.155 28.958-8.55C21.074-2.186 10.986 1.652 0 1.652c-10.987 0-21.076-3.839-28.96-10.203C-20.655-3.156-10.696 0 0 0" style="fill:#7678b9;fill-opacity:1;fill-rule:nonzero;stroke:none" transform="translate(229.797 599.716)"/><path d="M0 0c10.694 0 20.648-3.152 28.958-8.536C21.072-2.182 10.985 1.651 0 1.651c-10.983 0-21.074-3.833-28.96-10.188C-20.65-3.152-10.693 0 0 0" style="fill:#767bba;fill-opacity:1;fill-rule:nonzero;stroke:none" transform="translate(229.797 599.702)"/><path d="M0 0c10.692 0 20.646-3.144 28.958-8.521C21.067-2.175 10.981 1.65 0 1.65A46.103 46.103 0 0 1-28.96-8.522C-20.648-3.144-10.692 0 0 0" style="fill:#767bba;fill-opacity:1;fill-rule:nonzero;stroke:none" transform="translate(229.797 599.687)"/><path d="M0 0c10.688 0 20.643-3.139 28.958-8.508C21.063-2.172 10.979 1.647 0 1.647c-10.977 0-21.063-3.819-28.96-10.156C-20.643-3.139-10.688 0 0 0" style="fill:#787bba;fill-opacity:1;fill-rule:nonzero;stroke:none" transform="translate(229.797 599.674)"/><path d="M0 0c10.686 0 20.639-3.132 28.958-8.492C21.058-2.166 10.976 1.647 0 1.647a46.21 46.21 0 0 1-28.96-10.14C-20.641-3.134-10.687 0 0 0" style="fill:#787dba;fill-opacity:1;fill-rule:nonzero;stroke:none" transform="translate(229.797 599.658)"/><path d="M0 0c10.685 0 20.636-3.129 28.958-8.479C21.053-2.162 10.972 1.644 0 1.644A46.274 46.274 0 0 1-28.96-8.48C-20.638-3.129-10.683 0 0 0" style="fill:#787dba;fill-opacity:1;fill-rule:nonzero;stroke:none" transform="translate(229.797 599.645)"/><path d="M0 0c10.681 0 20.632-3.121 28.958-8.463A46.324 46.324 0 0 1 0 1.644 46.331 46.331 0 0 1-28.96-8.464C-20.633-3.121-10.681 0 0 0" style="fill:#787dbc;fill-opacity:1;fill-rule:nonzero;stroke:none" transform="translate(229.797 599.629)"/><path d="M0 0c10.68 0 20.631-3.116 28.958-8.45C21.046-2.151 10.965 1.641 0 1.641c-10.967 0-21.047-3.793-28.96-10.092C-20.629-3.117-10.678 0 0 0" style="fill:#7a7dbc;fill-opacity:1;fill-rule:nonzero;stroke:none" transform="translate(229.797 599.616)"/><path d="M0 0c10.676 0 20.626-3.109 28.958-8.434C21.04-2.146 10.963 1.639 0 1.639c-10.965 0-21.042-3.785-28.96-10.074C-20.627-3.11-10.677 0 0 0" style="fill:#7a7dbc;fill-opacity:1;fill-rule:nonzero;stroke:none" transform="translate(229.797 599.6)"/><path d="M0 0c10.675 0 20.622-3.105 28.958-8.421A46.499 46.499 0 0 1 0 1.637 46.503 46.503 0 0 1-28.96-8.422C-20.624-3.105-10.674 0 0 0" style="fill:#7a80bd;fill-opacity:1;fill-rule:nonzero;stroke:none" transform="translate(229.797 599.587)"/><path d="M0 0c10.673 0 20.62-3.097 28.958-8.405C21.033-2.136 10.958 1.637 0 1.637c-10.958 0-21.033-3.773-28.958-10.043C-20.62-3.097-10.673 0 0 0" style="fill:#7d80bd;fill-opacity:1;fill-rule:nonzero;stroke:none" transform="translate(229.797 599.571)"/><path d="M0 0c10.669 0 20.617-3.093 28.956-8.392C21.03-2.131 10.955 1.634 0 1.634A46.611 46.611 0 0 1-28.958-8.393C-20.617-3.093-10.671 0 0 0" style="fill:#7d80bd;fill-opacity:1;fill-rule:nonzero;stroke:none" transform="translate(229.797 599.558)"/><path d="M0 0c10.667 0 20.611-3.086 28.956-8.376C21.025-2.125 10.953 1.634 0 1.634S-21.026-2.125-28.958-8.377C-20.613-3.086-10.667 0 0 0" style="fill:#7d82bf;fill-opacity:1;fill-rule:nonzero;stroke:none" transform="translate(229.797 599.542)"/><path d="M0 0c10.666 0 20.61-3.081 28.956-8.363C21.019-2.122 10.948 1.631 0 1.631c-10.95 0-21.021-3.753-28.958-9.995C-20.611-3.081-10.666 0 0 0" style="fill:#7d82bf;fill-opacity:1;fill-rule:nonzero;stroke:none" transform="translate(229.797 599.53)"/><path d="M0 0c10.664 0 20.606-3.075 28.956-8.349C21.016-2.116 10.948 1.628 0 1.628c-10.946 0-21.018-3.745-28.958-9.977C-20.607-3.076-10.662 0 0 0" style="fill:#8082bf;fill-opacity:1;fill-rule:nonzero;stroke:none" transform="translate(229.797 599.514)"/><path d="M0 0c10.66 0 20.602-3.07 28.956-8.335C21.011-2.112 10.943 1.627 0 1.627c-10.944 0-21.012-3.739-28.958-9.963C-20.603-3.071-10.66 0 0 0" style="fill:#8082bf;fill-opacity:1;fill-rule:nonzero;stroke:none" transform="translate(229.797 599.5)"/><path d="M0 0c10.659 0 20.599-3.065 28.956-8.319C21.009-2.107 10.939 1.625 0 1.625c-10.941 0-21.007-3.733-28.958-9.946C-20.601-3.065-10.657 0 0 0" style="fill:#7f85c0;fill-opacity:1;fill-rule:nonzero;stroke:none" transform="translate(229.797 599.486)"/><path d="M0 0c10.655 0 20.596-3.058 28.956-8.304C21.004-2.102 10.938 1.623 0 1.623c-10.937 0-21.005-3.726-28.958-9.93C-20.597-3.058-10.656 0 0 0" style="fill:#8285c0;fill-opacity:1;fill-rule:nonzero;stroke:none" transform="translate(229.797 599.471)"/><path d="M0 0c10.653 0 20.594-3.051 28.956-8.289C20.998-2.096 10.933 1.623 0 1.623c-10.935 0-21.001-3.72-28.958-9.914C-20.594-3.052-10.653 0 0 0" style="fill:#8285c0;fill-opacity:1;fill-rule:nonzero;stroke:none" transform="translate(229.797 599.456)"/><path d="M0 0c10.65 0 20.589-3.046 28.956-8.275C20.995-2.091 10.932 1.621 0 1.621c-10.932 0-20.997-3.714-28.958-9.898C-20.59-3.047-10.652 0 0 0" style="fill:#8287c2;fill-opacity:1;fill-rule:nonzero;stroke:none" transform="translate(229.797 599.442)"/><path d="M0 0c10.648 0 20.585-3.041 28.956-8.261A47.151 47.151 0 0 1 0 1.619c-10.929 0-20.992-3.707-28.958-9.882C-20.587-3.041-10.648 0 0 0" style="fill:#8287c2;fill-opacity:1;fill-rule:nonzero;stroke:none" transform="translate(229.797 599.428)"/><path d="M0 0c10.646 0 20.583-3.034 28.956-8.246C20.984-2.08 10.926 1.617 0 1.617c-10.925 0-20.986-3.7-28.958-9.866C-20.585-3.034-10.646 0 0 0" style="fill:#8487c2;fill-opacity:1;fill-rule:nonzero;stroke:none" transform="translate(229.797 599.414)"/><path d="M0 0c10.645 0 20.58-3.028 28.956-8.231C20.983-2.076 10.923 1.616 0 1.616c-10.923 0-20.984-3.692-28.958-9.85C-20.58-3.028-10.645 0 0 0" style="fill:#8487c2;fill-opacity:1;fill-rule:nonzero;stroke:none" transform="translate(229.797 599.399)"/><path d="M0 0c10.643 0 20.576-3.024 28.956-8.217C20.978-2.073 10.921 1.613 0 1.613c-10.919 0-20.979-3.686-28.958-9.833C-20.577-3.024-10.641 0 0 0" style="fill:#8787c1;fill-opacity:1;fill-rule:nonzero;stroke:none" transform="translate(229.797 599.385)"/><path d="M0 0c10.639 0 20.573-3.018 28.956-8.204C20.974-2.067 10.917 1.61 0 1.61c-10.918 0-20.976-3.679-28.958-9.817C-20.575-3.018-10.639 0 0 0" style="fill:#878ac2;fill-opacity:1;fill-rule:nonzero;stroke:none" transform="translate(229.797 599.371)"/><path d="M0 0c10.638 0 20.569-3.01 28.955-8.188C20.969-2.062 10.914 1.61 0 1.61c-10.914 0-20.97-3.672-28.957-9.801C-20.57-3.012-10.636 0 0 0" style="fill:#878ac2;fill-opacity:1;fill-rule:nonzero;stroke:none" transform="translate(229.797 599.356)"/><path d="M0 0c10.634 0 20.564-3.005 28.955-8.173C20.963-2.055 10.911 1.609 0 1.609c-10.913 0-20.965-3.665-28.957-9.785C-20.566-3.006-10.635 0 0 0" style="fill:#878ac3;fill-opacity:1;fill-rule:nonzero;stroke:none" transform="translate(229.797 599.34)"/><path d="M0 0c10.632 0 20.562-3 28.955-8.159C20.962-2.052 10.907 1.608 0 1.608c-10.909 0-20.963-3.66-28.957-9.77C-20.564-3-10.634 0 0 0" style="fill:#898cc5;fill-opacity:1;fill-rule:nonzero;stroke:none" transform="translate(229.797 599.327)"/><path d="M0 0c10.629 0 20.559-2.994 28.955-8.145C20.956-2.047 10.906 1.606 0 1.606c-10.907 0-20.958-3.654-28.957-9.754C-20.56-2.994-10.63 0 0 0" style="fill:#898cc5;fill-opacity:1;fill-rule:nonzero;stroke:none" transform="translate(229.797 599.313)"/><path d="M0 0c10.627 0 20.555-2.989 28.955-8.131C20.953-2.041 10.902 1.603 0 1.603c-10.903 0-20.953-3.644-28.957-9.736C-20.557-2.989-10.627 0 0 0" style="fill:#898cc5;fill-opacity:1;fill-rule:nonzero;stroke:none" transform="translate(229.797 599.298)"/><path d="M0 0c10.625 0 20.552-2.982 28.955-8.117C20.947-2.038 10.9 1.601 0 1.601c-10.899 0-20.949-3.639-28.957-9.721C-20.554-2.984-10.625 0 0 0" style="fill:#8c8cc4;fill-opacity:1;fill-rule:nonzero;stroke:none" transform="translate(229.797 599.285)"/><path d="M0 0c10.624 0 20.548-2.977 28.955-8.102C20.942-2.031 10.897 1.6 0 1.6c-10.898 0-20.946-3.632-28.957-9.704C-20.55-2.977-10.624 0 0 0" style="fill:#8c8fc6;fill-opacity:1;fill-rule:nonzero;stroke:none" transform="translate(229.797 599.27)"/><path d="M0 0c10.622 0 20.547-2.971 28.955-8.089C20.941-2.028 10.893 1.597 0 1.597c-10.893 0-20.942-3.625-28.957-9.688C-20.548-2.973-10.62 0 0 0" style="fill:#8c8fc6;fill-opacity:1;fill-rule:nonzero;stroke:none" transform="translate(229.797 599.256)"/><path d="M0 0c10.617 0 20.542-2.966 28.955-8.073C20.935-2.022 10.891 1.597 0 1.597c-10.892 0-20.937-3.619-28.957-9.672C-20.544-2.966-10.618 0 0 0" style="fill:#8c8fc6;fill-opacity:1;fill-rule:nonzero;stroke:none" transform="translate(229.797 599.24)"/><path d="M0 0c10.617 0 20.538-2.961 28.955-8.06C20.93-2.018 10.888 1.595 0 1.595c-10.888 0-20.932-3.613-28.957-9.657C-20.54-2.961-10.615 0 0 0" style="fill:#8f8fc6;fill-opacity:1;fill-rule:nonzero;stroke:none" transform="translate(229.797 599.227)"/><path d="M0 0c10.613 0 20.536-2.953 28.955-8.044C20.926-2.012 10.884 1.594 0 1.594c-10.886 0-20.928-3.606-28.957-9.641C-20.538-2.953-10.614 0 0 0" style="fill:#8f91c7;fill-opacity:1;fill-rule:nonzero;stroke:none" transform="translate(229.797 599.211)"/><path d="M0 0c10.611 0 20.533-2.948 28.955-8.031C20.923-2.007 10.883 1.591 0 1.591s-20.923-3.599-28.957-9.623C-20.534-2.95-10.613 0 0 0" style="fill:#8f91c7;fill-opacity:1;fill-rule:nonzero;stroke:none" transform="translate(229.797 599.198)"/><path d="M0 0c10.608 0 20.529-2.943 28.954-8.016C20.92-2.003 10.879 1.591 0 1.591c-10.881 0-20.921-3.594-28.957-9.609C-20.531-2.943-10.609 0 0 0" style="fill:#8f91c7;fill-opacity:1;fill-rule:nonzero;stroke:none" transform="translate(229.797 599.183)"/><path d="M0 0c10.607 0 20.526-2.937 28.954-8.002C20.914-1.997 10.876 1.587 0 1.587c-10.877 0-20.916-3.585-28.957-9.59C-20.527-2.937-10.606 0 0 0" style="fill:#9294c6;fill-opacity:1;fill-rule:nonzero;stroke:none" transform="translate(229.797 599.17)"/><path d="M0 0c10.604 0 20.522-2.929 28.954-7.986C20.909-1.991 10.874 1.587 0 1.587c-10.874 0-20.911-3.578-28.957-9.575C-20.524-2.93-10.604 0 0 0" style="fill:#9294c9;fill-opacity:1;fill-rule:nonzero;stroke:none" transform="translate(229.797 599.153)"/><path d="M0 0c10.601 0 20.52-2.924 28.954-7.973C20.906-1.986 10.871 1.584 0 1.584c-10.871 0-20.907-3.573-28.957-9.558C-20.522-2.926-10.602 0 0 0" style="fill:#9494c9;fill-opacity:1;fill-rule:nonzero;stroke:none" transform="translate(229.797 599.14)"/><path d="M0 0c10.599 0 20.516-2.919 28.954-7.958C20.9-1.982 10.869 1.583 0 1.583c-10.867 0-20.902-3.565-28.957-9.543C-20.518-2.919-10.599 0 0 0" style="fill:#9494c9;fill-opacity:1;fill-rule:nonzero;stroke:none" transform="translate(229.797 599.125)"/><path d="M0 0c10.596 0 20.512-2.913 28.954-7.944C20.899-1.978 10.865 1.581 0 1.581c-10.865 0-20.9-3.559-28.957-9.527C-20.513-2.913-10.597 0 0 0" style="fill:#9496c9;fill-opacity:1;fill-rule:nonzero;stroke:none" transform="translate(229.797 599.112)"/><path d="M0 0c10.596 0 20.51-2.907 28.954-7.928C20.893-1.97 10.862 1.581 0 1.581c-10.862 0-20.895-3.553-28.957-9.511C-20.512-2.907-10.594 0 0 0" style="fill:#9496c9;fill-opacity:1;fill-rule:nonzero;stroke:none" transform="translate(229.797 599.096)"/><path d="M0 0c10.592 0 20.506-2.901 28.954-7.915C20.888-1.968 10.859 1.577 0 1.577c-10.86 0-20.891-3.545-28.957-9.494C-20.508-2.903-10.593 0 0 0" style="fill:#9699cc;fill-opacity:1;fill-rule:nonzero;stroke:none" transform="translate(229.797 599.083)"/><path d="M0 0c10.59 0 20.501-2.895 28.954-7.899C20.885-1.961 10.855 1.577 0 1.577c-10.856 0-20.887-3.538-28.955-9.478C-20.505-2.895-10.589 0 0 0" style="fill:#9699cc;fill-opacity:1;fill-rule:nonzero;stroke:none" transform="translate(229.797 599.067)"/><path d="M0 0c10.587 0 20.499-2.89 28.954-7.886C20.879-1.957 10.853 1.574 0 1.574c-10.855 0-20.881-3.531-28.955-9.462C-20.501-2.891-10.588 0 0 0" style="fill:#9699cc;fill-opacity:1;fill-rule:nonzero;stroke:none" transform="translate(229.797 599.054)"/><path d="M0 0c10.586 0 20.496-2.885 28.954-7.872C20.874-1.953 10.85 1.572 0 1.572c-10.851 0-20.876-3.526-28.955-9.446C-20.498-2.886-10.585 0 0 0" style="fill:#9899cb;fill-opacity:1;fill-rule:nonzero;stroke:none" transform="translate(229.797 599.04)"/><path d="M0 0c10.581 0 20.492-2.879 28.954-7.857C20.872-1.947 10.848 1.571 0 1.571c-10.848 0-20.874-3.518-28.955-9.43C-20.494-2.879-10.583 0 0 0" style="fill:#999bcc;fill-opacity:1;fill-rule:nonzero;stroke:none" transform="translate(229.797 599.025)"/><path d="M0 0c10.58 0 20.489-2.872 28.954-7.842C20.867-1.942 10.844 1.57 0 1.57c-10.844 0-20.87-3.512-28.955-9.414C-20.49-2.872-10.582 0 0 0" style="fill:#999bcc;fill-opacity:1;fill-rule:nonzero;stroke:none" transform="translate(229.797 599.01)"/><path d="M0 0c10.578 0 20.485-2.866 28.954-7.828C20.864-1.936 10.843 1.568 0 1.568S-20.865-1.937-28.955-7.83C-20.487-2.867-10.578 0 0 0" style="fill:#9b9bcd;fill-opacity:1;fill-rule:nonzero;stroke:none" transform="translate(229.797 598.996)"/><path d="M0 0c10.576 0 20.483-2.862 28.953-7.814C20.858-1.932 10.838 1.567 0 1.567c-10.839 0-20.86-3.499-28.955-9.383C-20.483-2.862-10.576 0 0 0" style="fill:#9b9ecf;fill-opacity:1;fill-rule:nonzero;stroke:none" transform="translate(229.797 598.982)"/><path d="M0 0c10.575 0 20.479-2.856 28.953-7.799C20.853-1.927 10.834 1.565 0 1.565c-10.836 0-20.855-3.492-28.955-9.366C-20.481-2.856-10.575 0 0 0" style="fill:#9b9ecf;fill-opacity:1;fill-rule:nonzero;stroke:none" transform="translate(229.797 598.967)"/><path d="M0 0c10.571 0 20.475-2.85 28.953-7.786C20.851-1.923 10.833 1.562 0 1.562c-10.834 0-20.853-3.485-28.955-9.35C-20.476-2.85-10.571 0 0 0" style="fill:#9e9ece;fill-opacity:1;fill-rule:nonzero;stroke:none" transform="translate(229.797 598.954)"/><path d="M0 0c10.569 0 20.471-2.844 28.953-7.771C20.846-1.918 10.829 1.562 0 1.562c-10.83 0-20.849-3.48-28.955-9.334C-20.475-2.844-10.568 0 0 0" style="fill:#9ea0ce;fill-opacity:1;fill-rule:nonzero;stroke:none" transform="translate(229.797 598.938)"/><path d="M0 0c10.566 0 20.469-2.84 28.953-7.757C20.841-1.913 10.828 1.558 0 1.558s-20.844-3.471-28.955-9.317C-20.471-2.84-10.567 0 0 0" style="fill:#9ea0d0;fill-opacity:1;fill-rule:nonzero;stroke:none" transform="translate(229.797 598.925)"/><path d="M0 0c10.564 0 20.464-2.832 28.953-7.742-8.116 5.835-18.13 9.3-28.953 9.3-10.825 0-20.839-3.465-28.955-9.301C-20.466-2.832-10.564 0 0 0" style="fill:#a0a0d0;fill-opacity:1;fill-rule:nonzero;stroke:none" transform="translate(229.797 598.91)"/><path d="M0 0c10.56 0 20.463-2.827 28.953-7.729C20.832-1.902 10.821 1.555 0 1.555c-10.823 0-20.836-3.459-28.955-9.285C-20.464-2.828-10.562 0 0 0" style="fill:#a1a3d1;fill-opacity:1;fill-rule:nonzero;stroke:none" transform="translate(229.797 598.896)"/><path d="M0 0c10.559 0 20.458-2.82 28.953-7.713C20.83-1.897 10.818 1.555 0 1.555c-10.819 0-20.832-3.452-28.955-9.27C-20.46-2.821-10.56 0 0 0" style="fill:#a1a3d1;fill-opacity:1;fill-rule:nonzero;stroke:none" transform="translate(229.797 598.88)"/><path d="M0 0c10.557 0 20.454-2.816 28.953-7.7C20.825-1.891 10.816 1.553 0 1.553c-10.814 0-20.827-3.447-28.955-9.254C-20.455-2.816-10.557 0 0 0" style="fill:#a3a3d1;fill-opacity:1;fill-rule:nonzero;stroke:none" transform="translate(229.797 598.867)"/><path d="M0 0c10.555 0 20.452-2.808 28.953-7.684C20.82-1.886 10.813 1.551 0 1.551c-10.814 0-20.821-3.438-28.955-9.237C-20.454-2.808-10.555 0 0 0" style="fill:#a3a3d1;fill-opacity:1;fill-rule:nonzero;stroke:none" transform="translate(229.797 598.851)"/><path d="M0 0c10.553 0 20.448-2.801 28.953-7.669C20.816-1.882 10.811 1.55 0 1.55c-10.809 0-20.818-3.432-28.955-9.221C-20.45-2.802-10.552 0 0 0" style="fill:#a4a6d1;fill-opacity:1;fill-rule:nonzero;stroke:none" transform="translate(229.797 598.837)"/><path d="M0 0c10.55 0 20.445-2.797 28.953-7.655C20.811-1.876 10.806 1.547 0 1.547c-10.808 0-20.814-3.425-28.955-9.204C-20.447-2.798-10.55 0 0 0" style="fill:#a7a7d3;fill-opacity:1;fill-rule:nonzero;stroke:none" transform="translate(229.797 598.823)"/><path d="M0 0c10.548 0 20.441-2.792 28.953-7.642C20.809-1.873 10.804 1.545 0 1.545c-10.804 0-20.811-3.418-28.955-9.189C-20.443-2.792-10.547 0 0 0" style="fill:#a7a7d3;fill-opacity:1;fill-rule:nonzero;stroke:none" transform="translate(229.797 598.81)"/><path d="M0 0c10.545 0 20.438-2.786 28.953-7.627C20.804-1.867 10.801 1.544 0 1.544c-10.802 0-20.806-3.413-28.955-9.173C-20.44-2.786-10.546 0 0 0" style="fill:#a7a9d4;fill-opacity:1;fill-rule:nonzero;stroke:none" transform="translate(229.797 598.794)"/><path d="M0 0c10.543 0 20.436-2.781 28.953-7.613C20.799-1.863 10.797 1.542 0 1.542c-10.799 0-20.801-3.405-28.955-9.157C-20.438-2.782-10.543 0 0 0" style="fill:#a7a9d4;fill-opacity:1;fill-rule:nonzero;stroke:none" transform="translate(229.797 598.78)"/><path d="M0 0c10.539 0 20.432-2.772 28.953-7.597C20.795-1.856 10.795 1.542 0 1.542c-10.797 0-20.797-3.399-28.955-9.141C-20.434-2.774-10.541 0 0 0" style="fill:#a9a9d4;fill-opacity:1;fill-rule:nonzero;stroke:none" transform="translate(229.797 598.765)"/><path d="M0 0c10.538 0 20.427-2.769 28.953-7.584C20.79-1.852 10.792 1.539 0 1.539c-10.793 0-20.793-3.391-28.955-9.125C-20.429-2.769-10.539 0 0 0" style="fill:#a9abd6;fill-opacity:1;fill-rule:nonzero;stroke:none" transform="translate(229.797 598.752)"/><path d="M0 0c10.536 0 20.426-2.761 28.953-7.568C20.785-1.847 10.79 1.538 0 1.538c-10.792 0-20.79-3.385-28.955-9.108C-20.428-2.763-10.536 0 0 0" style="fill:#ababd5;fill-opacity:1;fill-rule:nonzero;stroke:none" transform="translate(229.797 598.736)"/><path d="M0 0c10.534 0 20.422-2.758 28.953-7.555C20.783-1.842 10.786 1.536 0 1.536c-10.787 0-20.785-3.379-28.955-9.093C-20.424-2.758-10.534 0 0 0" style="fill:#ababd5;fill-opacity:1;fill-rule:nonzero;stroke:none" transform="translate(229.797 598.723)"/><path d="M0 0c10.532 0 20.419-2.752 28.953-7.541C20.778-1.838 10.783 1.534 0 1.534c-10.783 0-20.78-3.372-28.955-9.077C-20.421-2.752-10.531 0 0 0" style="fill:#abadd7;fill-opacity:1;fill-rule:nonzero;stroke:none" transform="translate(229.797 598.709)"/><path d="M0 0c10.528 0 20.415-2.745 28.953-7.526C20.774-1.833 10.779 1.532 0 1.532c-10.781 0-20.776-3.365-28.955-9.06C-20.417-2.747-10.529 0 0 0" style="fill:#abadd7;fill-opacity:1;fill-rule:nonzero;stroke:none" transform="translate(229.797 598.694)"/><path d="M0 0c10.527 0 20.412-2.738 28.953-7.511C20.769-1.827 10.777 1.531 0 1.531c-10.778 0-20.772-3.359-28.955-9.044C-20.413-2.741-10.525 0 0 0" style="fill:#aeb0d6;fill-opacity:1;fill-rule:nonzero;stroke:none" transform="translate(229.797 598.679)"/><path d="M0 0c10.524 0 20.41-2.735 28.953-7.496C20.764-1.823 10.774 1.529 0 1.529c-10.776 0-20.769-3.352-28.955-9.028C-20.412-2.735-10.525 0 0 0" style="fill:#aeb0d8;fill-opacity:1;fill-rule:nonzero;stroke:none" transform="translate(229.797 598.665)"/><path d="M0 0c10.522 0 20.405-2.729 28.953-7.482C20.762-1.817 10.771 1.527 0 1.527c-10.772 0-20.764-3.345-28.955-9.012C-20.408-2.729-10.524 0 0 0" style="fill:#b0b0d8;fill-opacity:1;fill-rule:nonzero;stroke:none" transform="translate(229.797 598.651)"/><path d="M0 0c10.518 0 20.401-2.722 28.953-7.467C20.758-1.813 10.769 1.525 0 1.525c-10.77 0-20.759-3.338-28.955-8.994C-20.403-2.722-10.52 0 0 0" style="fill:#b0b0d8;fill-opacity:1;fill-rule:nonzero;stroke:none" transform="translate(229.797 598.636)"/><path d="M0 0c10.517 0 20.399-2.716 28.953-7.452C20.753-1.806 10.765 1.525 0 1.525c-10.767 0-20.755-3.333-28.955-8.98C-20.401-2.717-10.518 0 0 0" style="fill:#b0b2d9;fill-opacity:1;fill-rule:nonzero;stroke:none" transform="translate(229.797 598.621)"/><path d="M0 0c10.515 0 20.396-2.711 28.949-7.438C20.748-1.802 10.764 1.522 0 1.522c-10.764 0-20.75-3.324-28.955-8.962C-20.398-2.711-10.515 0 0 0" style="fill:#b2b2da;fill-opacity:1;fill-rule:nonzero;stroke:none" transform="translate(229.797 598.607)"/><path d="M0 0c10.513 0 20.391-2.705 28.949-7.424C20.743-1.797 10.76 1.519 0 1.519c-10.762 0-20.748-3.318-28.955-8.944C-20.394-2.705-10.513 0 0 0" style="fill:#b3b5d8;fill-opacity:1;fill-rule:nonzero;stroke:none" transform="translate(229.797 598.593)"/><path d="M0 0c10.51 0 20.389-2.7 28.949-7.408C20.741-1.792 10.757 1.518 0 1.518c-10.758 0-20.743-3.311-28.955-8.929C-20.391-2.7-10.51 0 0 0" style="fill:#b5b5db;fill-opacity:1;fill-rule:nonzero;stroke:none" transform="translate(229.797 598.578)"/><path d="M0 0c10.507 0 20.385-2.694 28.949-7.395C20.736-1.789 10.755 1.516 0 1.516c-10.755 0-20.738-3.305-28.955-8.913C-20.387-2.695-10.508 0 0 0" style="fill:#b5b5db;fill-opacity:1;fill-rule:nonzero;stroke:none" transform="translate(229.797 598.565)"/><path d="M0 0c10.506 0 20.382-2.687 28.949-7.379C20.731-1.781 10.751 1.516 0 1.516c-10.753 0-20.734-3.299-28.955-8.898C-20.384-2.687-10.504 0 0 0" style="fill:#b5b5db;fill-opacity:1;fill-rule:nonzero;stroke:none" transform="translate(229.797 598.55)"/><path d="M0 0c10.503 0 20.378-2.681 28.949-7.365C20.727-1.778 10.748 1.514 0 1.514c-10.75 0-20.729-3.292-28.955-8.882C-20.38-2.683-10.504 0 0 0" style="fill:#b5b8db;fill-opacity:1;fill-rule:nonzero;stroke:none" transform="translate(229.797 598.535)"/><path d="M0 0c10.501 0 20.375-2.675 28.949-7.35C20.722-1.771 10.744 1.513 0 1.513c-10.746 0-20.727-3.286-28.955-8.866C-20.377-2.677-10.503 0 0 0" style="fill:#b8b8dc;fill-opacity:1;fill-rule:nonzero;stroke:none" transform="translate(229.797 598.52)"/><path d="M0 0c10.497 0 20.371-2.672 28.949-7.337C20.72-1.768 10.743 1.51 0 1.51c-10.744 0-20.722-3.278-28.955-8.85C-20.375-2.672-10.498 0 0 0" style="fill:#b8bade;fill-opacity:1;fill-rule:nonzero;stroke:none" transform="translate(229.797 598.507)"/><path d="M0 0c10.497 0 20.368-2.664 28.949-7.321C20.715-1.762 10.739 1.508 0 1.508c-10.741 0-20.717-3.271-28.955-8.832C-20.371-2.664-10.496 0 0 0" style="fill:#babadd;fill-opacity:1;fill-rule:nonzero;stroke:none" transform="translate(229.797 598.491)"/><path d="M0 0c10.494 0 20.364-2.659 28.949-7.308C20.709-1.758 10.737 1.505 0 1.505c-10.739 0-20.713-3.264-28.955-8.816C-20.366-2.659-10.494 0 0 0" style="fill:#babadd;fill-opacity:1;fill-rule:nonzero;stroke:none" transform="translate(229.797 598.478)"/><path d="M0 0c10.49 0 20.361-2.653 28.949-7.292C20.706-1.752 10.734 1.505 0 1.505c-10.736 0-20.708-3.257-28.955-8.8C-20.364-2.653-10.492 0 0 0" style="fill:#babcdd;fill-opacity:1;fill-rule:nonzero;stroke:none" transform="translate(229.797 598.463)"/><path d="M0 0c10.489 0 20.357-2.648 28.949-7.279C20.701-1.747 10.732 1.503 0 1.503c-10.732 0-20.704-3.251-28.955-8.785C-20.361-2.648-10.489 0 0 0" style="fill:#bdbcdd;fill-opacity:1;fill-rule:nonzero;stroke:none" transform="translate(229.797 598.45)"/><path d="M0 0c10.486 0 20.354-2.64 28.949-7.264C20.699-1.742 10.728 1.502 0 1.502c-10.729 0-20.701-3.244-28.955-8.768C-20.358-2.641-10.487 0 0 0" style="fill:#bdbcdd;fill-opacity:1;fill-rule:nonzero;stroke:none" transform="translate(229.797 598.434)"/><path d="M0 0c10.485 0 20.352-2.637 28.949-7.251C20.694-1.738 10.723 1.5 0 1.5c-10.725 0-20.696-3.239-28.955-8.753C-20.354-2.638-10.483 0 0 0" style="fill:#bfbfe0;fill-opacity:1;fill-rule:nonzero;stroke:none" transform="translate(229.797 598.42)"/><path d="M0 0c10.482 0 20.348-2.63 28.949-7.235C20.688-1.731 10.723 1.5 0 1.5c-10.723 0-20.692-3.233-28.955-8.737C-20.35-2.63-10.483 0 0 0" style="fill:#bfbfe0;fill-opacity:1;fill-rule:nonzero;stroke:none" transform="translate(229.797 598.405)"/><path d="M0 0c10.48 0 20.343-2.624 28.949-7.221C20.685-1.727 10.718 1.496 0 1.496c-10.72 0-20.687-3.224-28.955-8.72C-20.345-2.624-10.482 0 0 0" style="fill:#bfbfe0;fill-opacity:1;fill-rule:nonzero;stroke:none" transform="translate(229.797 598.392)"/><path d="M0 0c10.476 0 20.342-2.618 28.949-7.208C20.68-1.722 10.716 1.493 0 1.493c-10.718 0-20.683-3.216-28.955-8.703C-20.344-2.62-10.477 0 0 0" style="fill:#c2c2e0;fill-opacity:1;fill-rule:nonzero;stroke:none" transform="translate(229.797 598.378)"/><path d="M0 0c10.475 0 20.338-2.612 28.949-7.193C20.675-1.718 10.713 1.492 0 1.492c-10.715 0-20.68-3.21-28.955-8.687C-20.34-2.614-10.475 0 0 0" style="fill:#c2c1e1;fill-opacity:1;fill-rule:nonzero;stroke:none" transform="translate(229.797 598.363)"/><path d="M0 0c10.471 0 20.334-2.607 28.949-7.178C20.673-1.711 10.711 1.491 0 1.491c-10.713 0-20.674-3.205-28.955-8.671C-20.338-2.607-10.473 0 0 0" style="fill:#c2c1e1;fill-opacity:1;fill-rule:nonzero;stroke:none" transform="translate(229.797 598.348)"/><path d="M0 0c10.469 0 20.331-2.601 28.949-7.164C20.667-1.708 10.708 1.49 0 1.49c-10.709 0-20.671-3.198-28.955-8.656C-20.333-2.603-10.471 0 0 0" style="fill:#c2c4e2;fill-opacity:1;fill-rule:nonzero;stroke:none" transform="translate(229.797 598.334)"/><path d="M0 0c10.468 0 20.327-2.596 28.949-7.15C20.664-1.702 10.706 1.488 0 1.488c-10.708 0-20.666-3.192-28.955-8.64C-20.329-2.597-10.468 0 0 0" style="fill:#c4c4e2;fill-opacity:1;fill-rule:nonzero;stroke:none" transform="translate(229.797 598.32)"/><path d="M0 0c10.465 0 20.326-2.59 28.949-7.135C20.659-1.697 10.702 1.487 0 1.487a52.661 52.661 0 0 1-28.955-8.625C-20.328-2.59-10.466 0 0 0" style="fill:#c5c7e1;fill-opacity:1;fill-rule:nonzero;stroke:none" transform="translate(229.797 598.305)"/><path d="M0 0c10.464 0 20.322-2.583 28.949-7.12C20.653-1.692 10.701 1.485 0 1.485c-10.699 0-20.659-3.178-28.951-8.608C-20.323-2.583-10.464 0 0 0" style="fill:#c7c7e2;fill-opacity:1;fill-rule:nonzero;stroke:none" transform="translate(229.797 598.29)"/><path d="M0 0c10.461 0 20.317-2.577 28.949-7.106C20.652-1.686 10.696 1.483 0 1.483c-10.698 0-20.654-3.172-28.951-8.592C-20.319-2.578-10.462 0 0 0" style="fill:#c7c7e2;fill-opacity:1;fill-rule:nonzero;stroke:none" transform="translate(229.797 598.276)"/><path d="M0 0c10.459 0 20.315-2.573 28.949-7.092C20.646-1.683 10.692 1.482 0 1.482c-10.693 0-20.65-3.165-28.951-8.577C-20.317-2.574-10.457 0 0 0" style="fill:#c7c9e4;fill-opacity:1;fill-rule:nonzero;stroke:none" transform="translate(229.797 598.262)"/><path d="M0 0c10.455 0 20.312-2.567 28.949-7.077C20.643-1.677 10.69 1.479 0 1.479c-10.692 0-20.645-3.157-28.951-8.559C-20.314-2.567-10.456 0 0 0" style="fill:#cac9e4;fill-opacity:1;fill-rule:nonzero;stroke:none" transform="translate(229.797 598.247)"/><path d="M0 0c10.454 0 20.308-2.561 28.948-7.064-8.31 5.39-18.261 8.54-28.948 8.54-10.688 0-20.641-3.15-28.951-8.543C-20.31-2.561-10.454 0 0 0" style="fill:#cac9e4;fill-opacity:1;fill-rule:nonzero;stroke:none" transform="translate(229.797 598.234)"/><path d="M0 0c10.45 0 20.305-2.554 28.948-7.048C20.632-1.668 10.685 1.476 0 1.476c-10.687 0-20.638-3.144-28.951-8.527C-20.307-2.556-10.452 0 0 0" style="fill:#cdcce7;fill-opacity:1;fill-rule:nonzero;stroke:none" transform="translate(229.797 598.218)"/><path d="M0 0c10.448 0 20.301-2.55 28.948-7.034C20.631-1.662 10.681 1.475 0 1.475c-10.683 0-20.632-3.14-28.951-8.512C-20.303-2.55-10.45 0 0 0" style="fill:#cdcce7;fill-opacity:1;fill-rule:nonzero;stroke:none" transform="translate(229.797 598.204)"/><path d="M0 0c10.447 0 20.3-2.543 28.948-7.019C20.626-1.658 10.68 1.474 0 1.474c-10.681 0-20.628-3.132-28.951-8.496C-20.301-2.543-10.447 0 0 0" style="fill:#cdcce7;fill-opacity:1;fill-rule:nonzero;stroke:none" transform="translate(229.797 598.19)"/><path d="M0 0c10.445 0 20.295-2.536 28.948-7.005C20.62-1.651 10.676 1.473 0 1.473c-10.677 0-20.624-3.126-28.951-8.48C-20.297-2.538-10.445 0 0 0" style="fill:#cfcfe8;fill-opacity:1;fill-rule:nonzero;stroke:none" transform="translate(229.797 598.175)"/><path d="M0 0c10.443 0 20.291-2.531 28.948-6.99C20.617-1.647 10.673 1.469 0 1.469c-10.674 0-20.62-3.116-28.951-8.462C-20.293-2.533-10.443 0 0 0" style="fill:#cfcfe8;fill-opacity:1;fill-rule:nonzero;stroke:none" transform="translate(229.797 598.16)"/><path d="M0 0c10.439 0 20.289-2.527 28.948-6.977C20.611-1.644 10.669 1.466 0 1.466c-10.671 0-20.617-3.11-28.951-8.446C-20.291-2.527-10.441 0 0 0" style="fill:#d2d2e9;fill-opacity:1;fill-rule:nonzero;stroke:none" transform="translate(229.797 598.147)"/><path d="M0 0c10.438 0 20.284-2.519 28.948-6.961C20.61-1.637 10.667 1.466 0 1.466c-10.667 0-20.611-3.104-28.951-8.43C-20.287-2.519-10.436 0 0 0" style="fill:#d2d2e9;fill-opacity:1;fill-rule:nonzero;stroke:none" transform="translate(229.797 598.132)"/><path d="M0 0c10.434 0 20.281-2.515 28.948-6.948C20.604-1.634 10.664 1.463 0 1.463c-10.666 0-20.607-3.097-28.951-8.414C-20.284-2.515-10.435 0 0 0" style="fill:#d2d1e9;fill-opacity:1;fill-rule:nonzero;stroke:none" transform="translate(229.797 598.119)"/><path d="M0 0c10.433 0 20.279-2.508 28.948-6.933C20.599-1.626 10.662 1.463 0 1.463c-10.662 0-20.603-3.09-28.951-8.398C-20.28-2.509-10.433 0 0 0" style="fill:#d4d4eb;fill-opacity:1;fill-rule:nonzero;stroke:none" transform="translate(229.797 598.103)"/><path d="M0 0c10.429 0 20.274-2.504 28.948-6.92C20.596-1.624 10.659 1.461 0 1.461c-10.66 0-20.597-3.085-28.951-8.383C-20.277-2.504-10.431 0 0 0" style="fill:#d4d4eb;fill-opacity:1;fill-rule:nonzero;stroke:none" transform="translate(229.797 598.09)"/><path d="M0 0c10.427 0 20.27-2.496 28.948-6.904C20.59-1.616 10.655 1.46 0 1.46c-10.657 0-20.596-3.078-28.951-8.366C-20.273-2.497-10.429 0 0 0" style="fill:#d7d6eb;fill-opacity:1;fill-rule:nonzero;stroke:none" transform="translate(229.797 598.074)"/><path d="M0 0c10.426 0 20.268-2.492 28.948-6.891C20.588-1.613 10.653 1.458 0 1.458c-10.653 0-20.59-3.071-28.951-8.351C-20.27-2.493-10.426 0 0 0" style="fill:#d7d6ec;fill-opacity:1;fill-rule:nonzero;stroke:none" transform="translate(229.797 598.06)"/><path d="M0 0c10.422 0 20.264-2.485 28.948-6.875C20.583-1.606 10.65 1.457 0 1.457c-10.652 0-20.586-3.065-28.951-8.334C-20.266-2.485-10.424 0 0 0" style="fill:#d7d6ec;fill-opacity:1;fill-rule:nonzero;stroke:none" transform="translate(229.797 598.045)"/><path d="M0 0c10.42 0 20.261-2.48 28.948-6.862C20.578-1.602 10.646 1.453 0 1.453c-10.648 0-20.582-3.058-28.951-8.317C-20.265-2.48-10.42 0 0 0" style="fill:#d9d9ed;fill-opacity:1;fill-rule:nonzero;stroke:none" transform="translate(229.797 598.032)"/><path d="M0 0c10.418 0 20.258-2.472 28.948-6.846C20.575-1.596 10.645 1.453 0 1.453c-10.646 0-20.577-3.05-28.951-8.301C-20.26-2.474-10.419 0 0 0" style="fill:#d9d9ed;fill-opacity:1;fill-rule:nonzero;stroke:none" transform="translate(229.797 598.016)"/><path d="M0 0c10.417 0 20.254-2.468 28.948-6.833C20.569-1.594 10.641 1.45 0 1.45c-10.643 0-20.573-3.045-28.951-8.286C-20.256-2.469-10.415 0 0 0" style="fill:#d9d9ed;fill-opacity:1;fill-rule:nonzero;stroke:none" transform="translate(229.797 598.003)"/><path d="M0 0c10.413 0 20.251-2.462 28.948-6.817C20.564-1.587 10.638 1.45 0 1.45c-10.639 0-20.569-3.037-28.951-8.27C-20.254-2.462-10.414 0 0 0" style="fill:#dcdbed;fill-opacity:1;fill-rule:nonzero;stroke:none" transform="translate(229.797 597.987)"/><path d="M0 0c10.412 0 20.247-2.456 28.948-6.804C20.562-1.583 10.634 1.447 0 1.447c-10.636 0-20.565-3.031-28.951-8.254C-20.25-2.458-10.413 0 0 0" style="fill:#dcdbee;fill-opacity:1;fill-rule:nonzero;stroke:none" transform="translate(229.797 597.974)"/><path d="M0 0c10.408 0 20.244-2.449 28.948-6.789C20.557-1.577 10.632 1.447 0 1.447c-10.634 0-20.56-3.025-28.951-8.239C-20.247-2.45-10.41 0 0 0" style="fill:#dedeef;fill-opacity:1;fill-rule:nonzero;stroke:none" transform="translate(229.797 597.96)"/><path d="M0 0c10.406 0 20.242-2.446 28.948-6.775C20.554-1.573 10.629 1.443 0 1.443c-10.63 0-20.555-3.016-28.951-8.221C-20.244-2.446-10.408 0 0 0" style="fill:#dedeef;fill-opacity:1;fill-rule:nonzero;stroke:none" transform="translate(229.797 597.945)"/><path d="M0 0c10.403 0 20.238-2.44 28.948-6.761C20.548-1.567 10.627 1.441 0 1.441c-10.629 0-20.552-3.011-28.951-8.204C-20.24-2.44-10.405 0 0 0" style="fill:#dedeef;fill-opacity:1;fill-rule:nonzero;stroke:none" transform="translate(229.797 597.931)"/><path d="M0 0c10.401 0 20.233-2.433 28.948-6.746C20.543-1.563 10.624 1.44 0 1.44c-10.625 0-20.548-3.003-28.951-8.189C-20.238-2.433-10.403 0 0 0" style="fill:#e0e0ef;fill-opacity:1;fill-rule:nonzero;stroke:none" transform="translate(229.797 597.916)"/><path d="M0 0c10.399 0 20.231-2.427 28.948-6.731C20.541-1.557 10.622 1.439 0 1.439c-10.624 0-20.544-2.998-28.951-8.173C-20.234-2.428-10.401 0 0 0" style="fill:#e0e0f1;fill-opacity:1;fill-rule:nonzero;stroke:none" transform="translate(229.797 597.901)"/><path d="M0 0c10.397 0 20.228-2.422 28.948-6.717C20.536-1.553 10.617 1.437 0 1.437c-10.619 0-20.54-2.99-28.951-8.157C-20.23-2.422-10.398 0 0 0" style="fill:#e3e3f2;fill-opacity:1;fill-rule:nonzero;stroke:none" transform="translate(229.797 597.887)"/><path d="M0 0c10.396 0 20.224-2.416 28.948-6.703C20.531-1.548 10.613 1.435 0 1.435c-10.615 0-20.534-2.984-28.951-8.141C-20.228-2.416-10.394 0 0 0" style="fill:#e3e3f2;fill-opacity:1;fill-rule:nonzero;stroke:none" transform="translate(229.797 597.873)"/><path d="M0 0c10.392 0 20.221-2.411 28.948-6.688C20.527-1.542 10.612 1.434 0 1.434c-10.614 0-20.531-2.978-28.951-8.125C-20.224-2.412-10.393 0 0 0" style="fill:#e3e3f2;fill-opacity:1;fill-rule:nonzero;stroke:none" transform="translate(229.797 597.858)"/><path d="M0 0c10.391 0 20.217-2.403 28.948-6.673A55.463 55.463 0 0 1 0 1.434c-10.609 0-20.527-2.972-28.951-8.11C-20.221-2.404-10.393 0 0 0" style="fill:#e5e5f2;fill-opacity:1;fill-rule:nonzero;stroke:none" transform="translate(229.797 597.843)"/><path d="M0 0c10.387 0 20.216-2.399 28.948-6.659C20.52-1.532 10.606 1.431 0 1.431c-10.608 0-20.522-2.965-28.951-8.093C-20.217-2.399-10.389 0 0 0" style="fill:#e6e5f3;fill-opacity:1;fill-rule:nonzero;stroke:none" transform="translate(229.797 597.83)"/><path d="M0 0c10.385 0 20.211-2.393 28.948-6.646C20.515-1.529 10.602 1.426 0 1.426c-10.604 0-20.518-2.955-28.951-8.075C-20.214-2.395-10.387 0 0 0" style="fill:#e8e8f4;fill-opacity:1;fill-rule:nonzero;stroke:none" transform="translate(229.797 597.816)"/><path d="M0 0c10.382 0 20.207-2.386 28.948-6.631C20.51-1.523 10.601 1.426 0 1.426c-10.602 0-20.513-2.95-28.951-8.059C-20.212-2.388-10.384 0 0 0" style="fill:#e8e8f4;fill-opacity:1;fill-rule:nonzero;stroke:none" transform="translate(229.797 597.8)"/><path d="M0 0c10.38 0 20.205-2.382 28.948-6.617C20.506-1.518 10.596 1.424 0 1.424c-10.599 0-20.51-2.944-28.95-8.044C-20.208-2.383-10.382 0 0 0" style="fill:#e8e8f4;fill-opacity:1;fill-rule:nonzero;stroke:none" transform="translate(229.797 597.787)"/><path d="M0 0c10.378 0 20.202-2.375 28.948-6.602C20.501-1.511 10.596 1.424 0 1.424c-10.597 0-20.506-2.937-28.95-8.028C-20.203-2.375-10.378 0 0 0" style="fill:#eaeaf4;fill-opacity:1;fill-rule:nonzero;stroke:none" transform="translate(229.797 597.772)"/><path d="M0 0c10.376 0 20.198-2.369 28.948-6.588C20.499-1.507 10.591 1.422 0 1.422c-10.593 0-20.501-2.931-28.95-8.012C-20.202-2.371-10.376 0 0 0" style="fill:#eaeaf4;fill-opacity:1;fill-rule:nonzero;stroke:none" transform="translate(229.797 597.758)"/><path d="M0 0c10.375 0 20.194-2.364 28.948-6.573C20.494-1.502 10.59 1.421 0 1.421c-10.592 0-20.498-2.923-28.95-7.996C-20.198-2.364-10.373 0 0 0" style="fill:#ededf4;fill-opacity:1;fill-rule:nonzero;stroke:none" transform="translate(229.797 597.743)"/><path d="M0 0c10.372 0 20.191-2.359 28.948-6.56C20.489-1.499 10.586 1.417 0 1.417c-10.588 0-20.492-2.917-28.95-7.979C-20.193-2.359-10.372 0 0 0" style="fill:#ededf7;fill-opacity:1;fill-rule:nonzero;stroke:none" transform="translate(229.797 597.73)"/><path d="M0 0c10.37 0 20.189-2.351 28.948-6.544C20.485-1.492 10.581 1.417 0 1.417c-10.585 0-20.489-2.911-28.95-7.963C-20.191-2.352-10.372 0 0 0" style="fill:#f0edf6;fill-opacity:1;fill-rule:nonzero;stroke:none" transform="translate(229.797 597.714)"/><path d="M0 0c10.366 0 20.184-2.346 28.948-6.531C20.48-1.488 10.58 1.414 0 1.414c-10.582 0-20.485-2.904-28.95-7.948C-20.187-2.349-10.368 0 0 0" style="fill:#f0f0f8;fill-opacity:1;fill-rule:nonzero;stroke:none" transform="translate(229.797 597.7)"/><path d="M0 0c10.364 0 20.181-2.341 28.948-6.515C20.475-1.482 10.576 1.413 0 1.413c-10.578 0-20.48-2.896-28.95-7.931C-20.184-2.341-10.366 0 0 0" style="fill:#f2f0f8;fill-opacity:1;fill-rule:nonzero;stroke:none" transform="translate(229.797 597.685)"/><path d="M0 0c10.361 0 20.177-2.336 28.948-6.502C20.473-1.479 10.575 1.411 0 1.411c-10.576 0-20.476-2.89-28.95-7.915C-20.18-2.336-10.363 0 0 0" style="fill:#f2f2f9;fill-opacity:1;fill-rule:nonzero;stroke:none" transform="translate(229.797 597.672)"/><path d="M0 0c10.359 0 20.173-2.331 28.944-6.487C20.468-1.473 10.571 1.409 0 1.409c-10.573 0-20.471-2.885-28.95-7.899C-20.177-2.331-10.361 0 0 0" style="fill:#f2f2f9;fill-opacity:1;fill-rule:nonzero;stroke:none" transform="translate(229.797 597.658)"/><path d="M0 0c10.357 0 20.17-2.323 28.944-6.472C20.464-1.468 10.569 1.408 0 1.408c-10.571 0-20.468-2.876-28.95-7.883C-20.175-2.325-10.357 0 0 0" style="fill:#f5f5fa;fill-opacity:1;fill-rule:nonzero;stroke:none" transform="translate(229.797 597.643)"/><path d="M0 0c10.355 0 20.168-2.317 28.944-6.456C20.459-1.462 10.566 1.408 0 1.408c-10.568 0-20.464-2.872-28.95-7.868C-20.17-2.317-10.356 0 0 0" style="fill:#f5f5fa;fill-opacity:1;fill-rule:nonzero;stroke:none" transform="translate(229.797 597.627)"/><path d="M0 0c10.354 0 20.164-2.312 28.944-6.444C20.454-1.458 10.562 1.405 0 1.405c-10.564 0-20.459-2.864-28.95-7.852C-20.167-2.314-10.354 0 0 0" style="fill:#f7f7fa;fill-opacity:1;fill-rule:nonzero;stroke:none" transform="translate(229.797 597.614)"/><path d="M0 0c10.35 0 20.159-2.305 28.944-6.427C20.452-1.452 10.559 1.405 0 1.405c-10.562 0-20.455-2.858-28.95-7.836C-20.163-2.307-10.351 0 0 0" style="fill:#f7f7fb;fill-opacity:1;fill-rule:nonzero;stroke:none" transform="translate(229.797 597.598)"/><path d="M0 0c10.349 0 20.158-2.301 28.944-6.414C20.447-1.448 10.557 1.4 0 1.4c-10.559 0-20.45-2.849-28.95-7.818C-20.159-2.301-10.35 0 0 0" style="fill:#f9fafd;fill-opacity:1;fill-rule:nonzero;stroke:none" transform="translate(229.797 597.585)"/><path d="M0 0c10.345 0 20.154-2.294 28.944-6.399-8.501 4.956-18.391 7.8-28.944 7.8-10.555 0-20.447-2.844-28.95-7.804C-20.156-2.294-10.347 0 0 0" style="fill:#f9fafd;fill-opacity:1;fill-rule:nonzero;stroke:none" transform="translate(229.797 597.57)"/><path d="M0 0c10.343 0 20.151-2.288 28.944-6.385C20.438-1.437 10.55 1.398 0 1.398c-10.552 0-20.443-2.838-28.949-7.787C-20.154-2.289-10.345 0 0 0" style="fill:#fdfdfe;fill-opacity:1;fill-rule:nonzero;stroke:none" transform="translate(229.797 597.556)"/><path d="M0 0c10.34 0 20.147-2.284 28.944-6.371C20.433-1.433 10.548 1.396 0 1.396c-10.55 0-20.438-2.83-28.949-7.771C-20.15-2.285-10.341 0 0 0" style="fill:#fff;fill-opacity:1;fill-rule:nonzero;stroke:none" transform="translate(229.797 597.542)"/></g></g></svg>