<svg width="1024" height="1024" xmlns="http://www.w3.org/2000/svg"><defs><filter style="color-interpolation-filters:sRGB" height="1" width="1" y="0" x="0" id="a"><feColorMatrix values="0.299 0.587 0.114 0 0 0.299 0.587 0.114 0 0 0.299 0.587 0.114 0 0 0 0 0 1 0" result="colormatrix1"/></filter></defs><path style="fill:#cf0000;fill-opacity:1;filter:url(#a)" d="M373.446 630.532c-17.02-11.189-43.181-28.374-58.135-38.188L288.12 574.5l-.06-152.64-.06-152.639 17.25-11.32c9.488-6.225 29.85-19.621 45.25-29.769 44.57-29.368 53.48-35.133 54.263-35.112.405.012 9.962 6.278 21.237 13.926a32429.022 32429.022 0 0 0 56.35 38.082l35.85 24.177 21.65-14.51A8690.423 8690.423 0 0 0 579 228.288C614.437 204.195 631.224 193 631.913 193c.388 0 15.98 10.326 34.646 22.946 18.668 12.62 44.178 29.799 56.691 38.176l22.75 15.23-.08 152.574-.08 152.574-26.67 17.813a16072.686 16072.686 0 0 0-56.949 38.265l-30.279 20.451-24.72-16.686c-52.3-35.3-61.14-41.27-74.422-50.248-7.535-5.093-14.292-9.111-15.017-8.928-.724.183-26.06 17.017-56.3 37.408-30.24 20.391-55.458 37.35-56.037 37.688-.58.337-14.98-8.542-32-19.73zm77.497-40.743c23.343-16.11 42.422-29.723 42.396-30.253-.044-.917-6.804-5.716-42.339-30.059-8.525-5.84-22.362-15.34-30.75-21.112L405 497.871v61.6c0 58.379.091 61.547 1.75 60.603.963-.548 20.85-14.177 44.193-30.285zM719.987 418.75l-.013-137.25-6.237-4.174c-11.25-7.527-46.917-31.672-62.995-42.642-8.667-5.914-16.43-11.01-17.25-11.326-1.315-.504-1.492 8.482-1.492 75.535 0 41.859-.173 76.107-.384 76.107-.212 0-10.45-6.81-22.75-15.135a47704.658 47704.658 0 0 0-92.366-62.372 24278.883 24278.883 0 0 1-44.5-30.04c-57.518-38.956-67.34-45.36-68.512-44.678-4.696 2.734-91.425 60.827-91.405 61.225.022.424 406.954 271.911 407.667 271.977.138.013.244-61.74.237-137.227z" transform="translate(-534.04 -344.188) scale(2.0194)"/></svg>