<svg version="1.1" id="Layer_1" height="64.69" xml:space="preserve" width="50.223" xmlns="http://www.w3.org/2000/svg"><defs id="defs1076"><filter style="color-interpolation-filters:sRGB" height="1.01" width="1.015" y="-.004" x="-.008" id="filter1667"><feColorMatrix values="0.299 0.587 0.114 0 0 0.299 0.587 0.114 0 0 0.299 0.587 0.114 0 0 0 0 0 1 0" type="matrix" result="fbSourceGraphic" id="feColorMatrix1665"/><feColorMatrix result="fbSourceGraphicAlpha" in="fbSourceGraphic" values="0 0 0 -1 0 0 0 0 -1 0 0 0 0 -1 0 0 0 0 1 0" id="feColorMatrix1673"/><feColorMatrix id="feColorMatrix1675" values="0.299 0.587 0.114 0 0 0.299 0.587 0.114 0 0 0.299 0.587 0.114 0 0 0 0 0 1 0" type="matrix" result="fbSourceGraphic" in="fbSourceGraphic"/><feColorMatrix result="fbSourceGraphicAlpha" in="fbSourceGraphic" values="0 0 0 -1 0 0 0 0 -1 0 0 0 0 -1 0 0 0 0 1 0" id="feColorMatrix1809"/><feColorMatrix id="feColorMatrix1811" values="3.36842 -0.5 -0.5 0 -1.11111 -0.5 3.36842 -0.5 0 -1.11111 -0.5 -0.5 3.36842 0 -1.11111 0 0 0 1 0" in="fbSourceGraphic"/></filter><filter style="color-interpolation-filters:sRGB" height="1" width="1" y="0" x="0" id="filter1671"><feColorMatrix values="0.299 0.587 0.114 0 0 0.299 0.587 0.114 0 0 0.299 0.587 0.114 0 0 0 0 0 1 0" type="matrix" result="fbSourceGraphic" id="feColorMatrix1669"/><feColorMatrix result="fbSourceGraphicAlpha" in="fbSourceGraphic" values="0 0 0 -1 0 0 0 0 -1 0 0 0 0 -1 0 0 0 0 1 0" id="feColorMatrix1677"/><feColorMatrix id="feColorMatrix1679" values="0.299 0.587 0.114 0 0 0.299 0.587 0.114 0 0 0.299 0.587 0.114 0 0 0 0 0 1 0" type="matrix" result="fbSourceGraphic" in="fbSourceGraphic"/><feColorMatrix result="fbSourceGraphicAlpha" in="fbSourceGraphic" values="0 0 0 -1 0 0 0 0 -1 0 0 0 0 -1 0 0 0 0 1 0" id="feColorMatrix1813"/><feColorMatrix id="feColorMatrix1815" values="3.36842 -0.5 -0.5 0 -1.11111 -0.5 3.36842 -0.5 0 -1.11111 -0.5 -0.5 3.36842 0 -1.11111 0 0 0 1 0" in="fbSourceGraphic"/></filter></defs><style type="text/css" id="style915">.st1{fill:#b59652}.st3{stroke-width:.649}.st3,.st4,.st5,.st6{fill:none;stroke:#b59652;stroke-miterlimit:3.864}.st4{stroke-width:.649;stroke-linecap:round}.st5{stroke-width:.328}.st6{stroke-width:.389}</style><g id="g1071" transform="translate(-14.991 -1.76)"><g id="g1069" style="filter:url(#filter1667)" transform="matrix(1.15858 0 0 1.07867 -37.464 1.722)"><path id="line987" style="fill:none;stroke:#b59652;stroke-width:.649;stroke-linejoin:bevel;stroke-miterlimit:3.864" d="m63.4.3 4.5 3.2"/><path class="st3" id="line989" d="M88.2 40.3v4.6"/><path class="st3" d="M76.6 32.2c5.9 1.8 10.3 5.1 10.3 8.5 0 3.3-3.6 6.4-9.1 8.2" id="path991"/><path class="st3" d="m76.5 30.8 1.7.6c5.9 1.8 10.1 5.6 10.1 9 0 3.3-3.5 7.5-9 9.3l-1.3.5" id="path993"/><path class="st3" d="M88.2 43.9v.3c0 3.3-4.5 7.2-10 9" id="path995"/><path class="st4" id="line997" d="M45.7 39.9v3.7"/><path class="st4" d="M57.3 31.8C51.4 33.6 47 36.9 47 40.2c0 3.3 3.6 6.4 9.1 8.2" id="path999"/><path class="st4" d="m57.3 30.4-1.6.5c-5.9 1.8-10.1 5.6-10.1 9 0 3.3 3.5 7.5 9 9.3l1.3.5" id="path1001"/><path class="st4" d="M45.7 43.5v.3c0 3.3 4.5 7.2 10 9" id="path1003"/><path class="st5" id="line1005" d="M55 49.5v3.2"/><path class="st5" id="line1007" d="M54.3 49.1v3.2"/><path class="st5" id="line1009" d="M53.5 48.9v3.2"/><path class="st5" id="line1011" d="M52.7 48.5v3.2"/><path class="st5" id="line1013" d="M51.9 47.9v3.2"/><path class="st5" id="line1015" d="M51.1 47.4v3.2"/><path class="st5" id="line1017" d="M50.4 46.9v3.2"/><path class="st5" id="line1019" d="M49.6 46.2v3.3"/><path class="st5" id="line1021" d="M48.8 45.7V49"/><path class="st5" id="line1023" d="M48 44.9v3.3"/><path class="st5" id="line1025" d="M47.3 44v3.2"/><path class="st5" id="line1027" d="M46.5 43v3.3"/><path class="st3" id="polyline1029" d="M71.3.3 74.2 3l4.2 54.9-5.4 1.8"/><path class="st1" id="polyline1031" d="M59.5 3.8 55 57.7l6.3 1.8 2.1-59"/><path class="st6" id="polygon1033" d="M59.5 3.8 55 57.7l6.3 1.8 2.1-59z"/><path class="st1" id="polyline1035" d="m67.4 11.1-.1 1.5-.7 45.5 6.4 1.6L71.3.5l-3.5 2.6-.1 2.7h1.5v5.3"/><path class="st6" id="polygon1037" d="M73 59.7 71.3.5l-3.5 2.6-.1 2.7h1.5v5.3h-1.8l-.1 1.5-.7 45.5z"/><path class="st1" id="polyline1039" d="m67.2 13.6 1.5-1.8h-3.2"/><path class="st3" d="M65.1 5.8H69v5.4h-3.9zm2.1 7.8 1.5-1.9-3.2.1z" id="path1041"/><path class="st3" id="line1043" d="m67.2 58-5.9 1.5"/><path class="st5" id="line1045" d="M78.7 49.9v3.2"/><path class="st5" id="line1047" d="M79.5 49.6v3.2"/><path class="st5" id="line1049" d="M80.3 49.3v3.3"/><path class="st5" id="line1051" d="M81.1 49v3.2"/><path class="st5" id="line1053" d="M81.9 48.4v3.2"/><path class="st5" id="line1055" d="M82.7 47.9v3.2"/><path class="st5" id="line1057" d="M83.5 47.6v3.2"/><path class="st5" id="line1059" d="M84.3 47v3.3"/><path class="st5" id="line1061" d="M85.1 46.4v3.2"/><path class="st5" id="line1063" d="M85.9 45.6v3.2"/><path class="st5" id="line1065" d="M86.7 44.6v3.2"/><path class="st5" id="line1067" d="M87.5 43.4v3.2"/></g></g></svg>