<svg viewBox="0 0 60 39" xmlns="http://www.w3.org/2000/svg"><path style="stroke:none;fill-rule:nonzero;fill:#282830;fill-opacity:1" d="M30 .27C13.586.27.277 8.879.277 19.496.277 30.117 13.586 38.73 30 38.73s29.723-8.609 29.723-19.234C59.723 8.871 46.414.27 30 .27Zm0 30.207c-2.441 0-4.434-4.809-4.559-10.86a52.244 52.244 0 0 0 9.118 0c-.125 6.047-2.118 10.86-4.559 10.86Zm-4.258-15.665C26.406 10.535 28.062 7.5 30 7.5c1.938 0 3.594 3.035 4.258 7.313a48.141 48.141 0 0 1-8.516 0ZM30 3.052c-3.188 0-5.906 4.773-6.91 11.437-6.043-.941-10.262-3.09-10.262-5.586 0-3.367 7.688-6.097 17.172-6.097 9.484 0 17.172 2.73 17.172 6.097 0 2.496-4.219 4.645-10.262 5.586C35.906 7.824 33.188 3.051 30 3.051ZM4.54 18.777c0-3.257 1.253-6.316 3.437-8.941-.024.184-.04.371-.04.559 0 4.105 6.157 7.605 14.747 8.894-.008.297-.008.598-.008.898 0 7.653 2.144 14.133 5.11 16.333-13.028-.786-23.247-8.43-23.247-17.743ZM32.214 36.52c2.965-2.2 5.11-8.68 5.11-16.333 0-.304-.005-.601-.009-.898 8.586-1.289 14.746-4.785 14.746-8.894 0-.188-.015-.375-.039-.56 2.184 2.634 3.438 5.685 3.438 8.942 0 9.313-10.219 16.957-23.246 17.743Zm0 0"/></svg>